<svg version="1.1" viewBox="0.0 0.0 713.1154855643044 506.5564304461942" fill="none" stroke="none" stroke-linecap="square" stroke-miterlimit="10" xmlns:xlink="http://www.w3.org/1999/xlink" xmlns="http://www.w3.org/2000/svg"><clipPath id="p.0"><path d="m0 0l713.1155 0l0 506.55643l-713.1155 0l0 -506.55643z" clip-rule="nonzero"/></clipPath><g clip-path="url(#p.0)"><path fill="#ffffff" d="m0 0l713.1155 0l0 506.55643l-713.1155 0z" fill-rule="evenodd"/><path fill="#cfe2f3" d="m135.64568 105.34646l77.66928 0l0 75.05512l-77.66928 0z" fill-rule="evenodd"/><path stroke="#000000" stroke-width="1.0" stroke-linejoin="round" stroke-linecap="butt" d="m135.64568 105.34646l77.66928 0l0 75.05512l-77.66928 0z" fill-rule="evenodd"/><path fill="#cfe2f3" d="m246.77165 105.34646l77.6693 0l0 75.05512l-77.6693 0z" fill-rule="evenodd"/><path stroke="#000000" stroke-width="1.0" stroke-linejoin="round" stroke-linecap="butt" d="m246.77165 105.34646l77.6693 0l0 75.05512l-77.6693 0z" fill-rule="evenodd"/><path fill="#cfe2f3" d="m351.7874 105.34646l77.66928 0l0 75.05512l-77.66928 0z" fill-rule="evenodd"/><path stroke="#000000" stroke-width="1.0" stroke-linejoin="round" stroke-linecap="butt" d="m351.7874 105.34646l77.66928 0l0 75.05512l-77.66928 0z" fill-rule="evenodd"/><path fill="#cfe2f3" d="m573.7507 105.34646l77.66925 0l0 75.05512l-77.66925 0z" fill-rule="evenodd"/><path stroke="#000000" stroke-width="1.0" stroke-linejoin="round" stroke-linecap="butt" d="m573.7507 105.34646l77.66925 0l0 75.05512l-77.66925 0z" fill-rule="evenodd"/><path fill="#cfe2f3" d="m573.7507 213.85564l77.66925 0l0 75.05513l-77.66925 0z" fill-rule="evenodd"/><path stroke="#000000" stroke-width="1.0" stroke-linejoin="round" stroke-linecap="butt" d="m573.7507 213.85564l77.66925 0l0 75.05513l-77.66925 0z" fill-rule="evenodd"/><path fill="#cfe2f3" d="m351.7874 213.85564l77.66928 0l0 75.05513l-77.66928 0z" fill-rule="evenodd"/><path stroke="#000000" stroke-width="1.0" stroke-linejoin="round" stroke-linecap="butt" d="m351.7874 213.85564l77.66928 0l0 75.05513l-77.66928 0z" fill-rule="evenodd"/><path fill="#cfe2f3" d="m246.77165 213.85564l77.6693 0l0 75.05513l-77.6693 0z" fill-rule="evenodd"/><path stroke="#000000" stroke-width="1.0" stroke-linejoin="round" stroke-linecap="butt" d="m246.77165 213.85564l77.6693 0l0 75.05513l-77.6693 0z" fill-rule="evenodd"/><path fill="#cfe2f3" d="m135.64568 213.85564l77.66928 0l0 75.05513l-77.66928 0z" fill-rule="evenodd"/><path stroke="#000000" stroke-width="1.0" stroke-linejoin="round" stroke-linecap="butt" d="m135.64568 213.85564l77.66928 0l0 75.05513l-77.66928 0z" fill-rule="evenodd"/><path fill="#cfe2f3" d="m573.7507 387.8189l77.66925 0l0 75.055115l-77.66925 0z" fill-rule="evenodd"/><path stroke="#000000" stroke-width="1.0" stroke-linejoin="round" stroke-linecap="butt" d="m573.7507 387.8189l77.66925 0l0 75.055115l-77.66925 0z" fill-rule="evenodd"/><path fill="#cfe2f3" d="m351.7874 387.8189l77.66928 0l0 75.055115l-77.66928 0z" fill-rule="evenodd"/><path stroke="#000000" stroke-width="1.0" stroke-linejoin="round" stroke-linecap="butt" d="m351.7874 387.8189l77.66928 0l0 75.055115l-77.66928 0z" fill-rule="evenodd"/><path fill="#cfe2f3" d="m246.77165 387.8189l77.6693 0l0 75.055115l-77.6693 0z" fill-rule="evenodd"/><path stroke="#000000" stroke-width="1.0" stroke-linejoin="round" stroke-linecap="butt" d="m246.77165 387.8189l77.6693 0l0 75.055115l-77.6693 0z" fill-rule="evenodd"/><path fill="#cfe2f3" d="m135.64568 387.8189l77.66928 0l0 75.055115l-77.66928 0z" fill-rule="evenodd"/><path stroke="#000000" stroke-width="1.0" stroke-linejoin="round" stroke-linecap="butt" d="m135.64568 387.8189l77.66928 0l0 75.055115l-77.66928 0z" fill-rule="evenodd"/><path fill="#000000" fill-opacity="0.0" d="m135.64568 105.34646l0 -49.448822" fill-rule="evenodd"/><path stroke="#000000" stroke-width="1.0" stroke-linejoin="round" stroke-linecap="butt" d="m135.64568 105.34646l0 -49.448822" fill-rule="evenodd"/><path fill="#000000" fill-opacity="0.0" d="m213.31496 105.34646l0 -8.0" fill-rule="evenodd"/><path stroke="#000000" stroke-width="1.0" stroke-linejoin="round" stroke-linecap="butt" d="m213.31496 105.34646l0 -8.0" fill-rule="evenodd"/><path fill="#000000" fill-opacity="0.0" d="m135.72441 105.267715l-81.32284 0" fill-rule="evenodd"/><path stroke="#000000" stroke-width="1.0" stroke-linejoin="round" stroke-linecap="butt" d="m135.72441 105.267715l-81.32284 0" fill-rule="evenodd"/><path fill="#000000" fill-opacity="0.0" d="m135.72441 180.40158l-9.448822 0" fill-rule="evenodd"/><path stroke="#000000" stroke-width="1.0" stroke-linejoin="round" stroke-linecap="butt" d="m135.72441 180.40158l-9.448822 0" fill-rule="evenodd"/><path fill="#000000" fill-opacity="0.0" d="m486.6168 122.543304l39.873993 0l0 40.661423l-39.873993 0z" fill-rule="evenodd"/><path fill="#000000" d="m497.78867 149.4633l0 -1.875l1.875 0l0 1.875l-1.875 0zm6.234375 0l0 -1.875l1.859375 0l0 1.875l-1.859375 0zm6.203125 0l0 -1.875l1.8750305 0l0 1.875l-1.8750305 0z" fill-rule="nonzero"/><path fill="#000000" fill-opacity="0.0" d="m486.6168 231.05249l39.873993 0l0 40.661407l-39.873993 0z" fill-rule="evenodd"/><path fill="#000000" d="m497.78867 257.9725l0 -1.875l1.875 0l0 1.875l-1.875 0zm6.234375 0l0 -1.875l1.859375 0l0 1.875l-1.859375 0zm6.203125 0l0 -1.875l1.8750305 0l0 1.875l-1.8750305 0z" fill-rule="nonzero"/><path fill="#000000" fill-opacity="0.0" d="m486.6168 405.01575l39.873993 0l0 40.661407l-39.873993 0z" fill-rule="evenodd"/><path fill="#000000" d="m497.78867 431.93576l0 -1.875l1.875 0l0 1.875l-1.875 0zm6.234375 0l0 -1.875l1.859375 0l0 1.875l-1.859375 0zm6.203125 0l0 -1.875l1.8750305 0l0 1.875l-1.8750305 0z" fill-rule="nonzero"/><path fill="#000000" fill-opacity="0.0" d="m154.5433 318.03412l39.874023 0l0 40.661407l-39.874023 0z" fill-rule="evenodd"/><path fill="#000000" d="m165.71518 344.95413l0 -1.875l1.875 0l0 1.875l-1.875 0zm6.234375 0l0 -1.875l1.859375 0l0 1.875l-1.859375 0zm6.203125 0l0 -1.875l1.875 0l0 1.875l-1.875 0z" fill-rule="nonzero"/><path fill="#000000" fill-opacity="0.0" d="m265.66928 318.03412l39.874023 0l0 40.661407l-39.874023 0z" fill-rule="evenodd"/><path fill="#000000" d="m276.84116 344.95413l0 -1.875l1.875 0l0 1.875l-1.875 0zm6.234375 0l0 -1.875l1.859375 0l0 1.875l-1.859375 0zm6.203125 0l0 -1.875l1.875 0l0 1.875l-1.875 0z" fill-rule="nonzero"/><path fill="#000000" fill-opacity="0.0" d="m370.68503 318.03412l39.874023 0l0 40.661407l-39.874023 0z" fill-rule="evenodd"/><path fill="#000000" d="m381.8569 344.95413l0 -1.875l1.875 0l0 1.875l-1.875 0zm6.234375 0l0 -1.875l1.859375 0l0 1.875l-1.859375 0zm6.203125 0l0 -1.875l1.875 0l0 1.875l-1.875 0z" fill-rule="nonzero"/><path fill="#000000" fill-opacity="0.0" d="m486.6168 318.03412l39.873993 0l0 40.661407l-39.873993 0z" fill-rule="evenodd"/><path fill="#000000" d="m497.78867 344.95413l0 -1.875l1.875 0l0 1.875l-1.875 0zm6.234375 0l0 -1.875l1.859375 0l0 1.875l-1.859375 0zm6.203125 0l0 -1.875l1.8750305 0l0 1.875l-1.8750305 0z" fill-rule="nonzero"/><path fill="#000000" fill-opacity="0.0" d="m592.6483 318.03412l39.874023 0l0 40.661407l-39.874023 0z" fill-rule="evenodd"/><path fill="#000000" d="m603.8202 344.95413l0 -1.875l1.875 0l0 1.875l-1.875 0zm6.234375 0l0 -1.875l1.859375 0l0 1.875l-1.859375 0zm6.203125 0l0 -1.875l1.875 0l0 1.875l-1.875 0z" fill-rule="nonzero"/><path fill="#000000" fill-opacity="0.0" d="m135.8084 101.57481l77.38583 0" fill-rule="evenodd"/><path stroke="#000000" stroke-width="1.0" stroke-linejoin="round" stroke-linecap="butt" d="m139.23549 101.57481l70.53165 0" fill-rule="evenodd"/><path fill="#000000" stroke="#000000" stroke-width="1.0" stroke-linecap="butt" d="m139.23549 101.57481l1.1245728 -1.124588l-3.0897675 1.124588l3.0897675 1.1245804z" fill-rule="evenodd"/><path fill="#000000" stroke="#000000" stroke-width="1.0" stroke-linecap="butt" d="m209.76714 101.57481l-1.1245728 1.1245804l3.0897675 -1.1245804l-3.0897675 -1.124588z" fill-rule="evenodd"/><path fill="#000000" fill-opacity="0.0" d="m130.92389 105.173225l0 74.551186" fill-rule="evenodd"/><path stroke="#000000" stroke-width="1.0" stroke-linejoin="round" stroke-linecap="butt" d="m130.92389 108.60031l0 67.69702" fill-rule="evenodd"/><path fill="#000000" stroke="#000000" stroke-width="1.0" stroke-linecap="butt" d="m130.92389 108.60031l1.1245728 1.124588l-1.1245728 -3.0897675l-1.124588 3.0897675z" fill-rule="evenodd"/><path fill="#000000" stroke="#000000" stroke-width="1.0" stroke-linecap="butt" d="m130.92389 176.29732l-1.124588 -1.1245728l1.124588 3.0897675l1.1245728 -3.0897675z" fill-rule="evenodd"/><path fill="#000000" fill-opacity="0.0" d="m152.51706 65.84252l65.543304 0l0 31.968498l-65.543304 0z" fill-rule="evenodd"/><path fill="#000000" d="m162.87643 92.76252l0 -13.359375l1.78125 0l0 11.78125l6.5625 0l0 1.578125l-8.34375 0zm8.735092 3.703125l0 -1.1875l10.859375 0l0 1.1875l-10.859375 0zm11.235092 -6.59375l1.625 -0.25q0.125 0.96875 0.75 1.5q0.625 0.515625 1.75 0.515625q1.125 0 1.671875 -0.453125q0.546875 -0.46875 0.546875 -1.09375q0 -0.546875 -0.484375 -0.875q-0.328125 -0.21875 -1.671875 -0.546875q-1.8125 -0.46875 -2.515625 -0.796875q-0.6875 -0.328125 -1.046875 -0.90625q-0.359375 -0.59375 -0.359375 -1.3125q0 -0.640625 0.296875 -1.1875q0.296875 -0.5625 0.8125 -0.921875q0.375 -0.28125 1.03125 -0.46875q0.671875 -0.203125 1.421875 -0.203125q1.140625 0 2.0 0.328125q0.859375 0.328125 1.265625 0.890625q0.421875 0.5625 0.578125 1.5l-1.609375 0.21875q-0.109375 -0.75 -0.640625 -1.171875q-0.515625 -0.421875 -1.46875 -0.421875q-1.140625 0 -1.625 0.375q-0.46875 0.375 -0.46875 0.875q0 0.3125 0.1875 0.578125q0.203125 0.265625 0.640625 0.4375q0.234375 0.09375 1.4375 0.421875q1.75 0.453125 2.4375 0.75q0.6875 0.296875 1.078125 0.859375q0.390625 0.5625 0.390625 1.40625q0 0.828125 -0.484375 1.546875q-0.46875 0.71875 -1.375 1.125q-0.90625 0.390625 -2.046875 0.390625q-1.875 0 -2.875 -0.78125q-0.984375 -0.78125 -1.25 -2.328125z" fill-rule="nonzero"/><path fill="#000000" fill-opacity="0.0" d="m77.632545 124.74803l45.70079 0l0 35.40158l-45.70079 0z" fill-rule="evenodd"/><path fill="#000000" d="m87.99192 151.66803l0 -13.359375l1.78125 0l0 11.78125l6.5625 0l0 1.578125l-8.34375 0zm8.735092 3.703125l0 -1.1875l10.859375 0l0 1.1875l-10.859375 0zm15.469467 -5.171875l0.234375 1.453125q-0.6875 0.140625 -1.234375 0.140625q-0.890625 0 -1.390625 -0.28125q-0.484375 -0.28125 -0.6875 -0.734375q-0.203125 -0.46875 -0.203125 -1.9375l0 -5.578125l-1.203125 0l0 -1.265625l1.203125 0l0 -2.390625l1.625 -0.984375l0 3.375l1.65625 0l0 1.265625l-1.65625 0l0 5.671875q0 0.6875 0.078125 0.890625q0.09375 0.203125 0.28125 0.328125q0.203125 0.109375 0.578125 0.109375q0.265625 0 0.71875 -0.0625z" fill-rule="nonzero"/><path fill="#000000" fill-opacity="0.0" d="m62.356956 105.40682l0 357.00787" fill-rule="evenodd"/><path stroke="#000000" stroke-width="1.0" stroke-linejoin="round" stroke-linecap="butt" d="m62.356956 108.83391l0 350.1537" fill-rule="evenodd"/><path fill="#000000" stroke="#000000" stroke-width="1.0" stroke-linecap="butt" d="m62.356956 108.83391l1.1245842 1.124588l-1.1245842 -3.0897675l-1.1245842 3.0897675z" fill-rule="evenodd"/><path fill="#000000" stroke="#000000" stroke-width="1.0" stroke-linecap="butt" d="m62.356956 458.9876l-1.1245842 -1.1245728l1.1245842 3.0897522l1.1245842 -3.0897522z" fill-rule="evenodd"/><path fill="#000000" fill-opacity="0.0" d="m135.72441 462.87402l-81.32284 0" fill-rule="evenodd"/><path stroke="#000000" stroke-width="1.0" stroke-linejoin="round" stroke-linecap="butt" d="m135.72441 462.87402l-81.32284 0" fill-rule="evenodd"/><path fill="#000000" fill-opacity="0.0" d="m34.605583 248.84514l26.236221 0l0 27.401566l-26.236221 0z" fill-rule="evenodd"/><path fill="#000000" d="m44.96496 275.76514l0 -13.359375l5.015625 0q1.53125 0 2.453125 0.40625q0.921875 0.40625 1.4375 1.25q0.53125 0.84375 0.53125 1.765625q0 0.859375 -0.46875 1.625q-0.453125 0.75 -1.390625 1.203125q1.203125 0.359375 1.859375 1.21875q0.65625 0.859375 0.65625 2.015625q0 0.9375 -0.40625 1.75q-0.390625 0.796875 -0.984375 1.234375q-0.578125 0.4375 -1.453125 0.671875q-0.875 0.21875 -2.15625 0.21875l-5.09375 0zm1.78125 -7.75l2.875 0q1.1875 0 1.6875 -0.140625q0.671875 -0.203125 1.015625 -0.671875q0.34375 -0.46875 0.34375 -1.171875q0 -0.65625 -0.328125 -1.15625q-0.3125 -0.515625 -0.90625 -0.703125q-0.59375 -0.1875 -2.03125 -0.1875l-2.65625 0l0 4.03125zm0 6.171875l3.3125 0q0.859375 0 1.203125 -0.0625q0.609375 -0.109375 1.015625 -0.359375q0.421875 -0.265625 0.6875 -0.75q0.265625 -0.484375 0.265625 -1.125q0 -0.75 -0.390625 -1.296875q-0.375 -0.546875 -1.0625 -0.765625q-0.671875 -0.234375 -1.953125 -0.234375l-3.078125 0l0 4.59375z" fill-rule="nonzero"/><path fill="#000000" fill-opacity="0.0" d="m651.4199 105.34646l0 -49.448822" fill-rule="evenodd"/><path stroke="#000000" stroke-width="1.0" stroke-linejoin="round" stroke-linecap="butt" d="m651.4199 105.34646l0 -49.448822" fill-rule="evenodd"/><path fill="#000000" fill-opacity="0.0" d="m135.99213 64.75328l514.5512 0" fill-rule="evenodd"/><path stroke="#000000" stroke-width="1.0" stroke-linejoin="round" stroke-linecap="butt" d="m139.4192 64.75328l507.69702 0" fill-rule="evenodd"/><path fill="#000000" stroke="#000000" stroke-width="1.0" stroke-linecap="butt" d="m139.41922 64.75328l1.1245728 -1.1245842l-3.0897675 1.1245842l3.0897675 1.1245804z" fill-rule="evenodd"/><path fill="#000000" stroke="#000000" stroke-width="1.0" stroke-linecap="butt" d="m647.1162 64.75328l-1.1245728 1.1245804l3.0897827 -1.1245804l-3.0897827 -1.1245842z" fill-rule="evenodd"/><path fill="#000000" fill-opacity="0.0" d="m342.93176 29.309711l143.68503 0l0 31.968502l-143.68503 0z" fill-rule="evenodd"/><path fill="#000000" d="m353.16614 56.22971l0 -9.671875l1.46875 0l0 1.375q1.0625 -1.59375 3.078125 -1.59375q0.875 0 1.609375 0.3125q0.734375 0.3125 1.09375 0.828125q0.375 0.5 0.515625 1.203125q0.09375 0.453125 0.09375 1.59375l0 5.953125l-1.640625 0l0 -5.890625q0 -1.0 -0.203125 -1.484375q-0.1875 -0.5 -0.671875 -0.796875q-0.484375 -0.296875 -1.140625 -0.296875q-1.046875 0 -1.8125 0.671875q-0.75 0.65625 -0.75 2.515625l0 5.28125l-1.640625 0zm16.703827 0l0 -1.421875q-1.125 1.640625 -3.0625 1.640625q-0.859375 0 -1.609375 -0.328125q-0.734375 -0.328125 -1.09375 -0.828125q-0.359375 -0.5 -0.5 -1.21875q-0.109375 -0.46875 -0.109375 -1.53125l0 -5.984375l1.640625 0l0 5.359375q0 1.28125 0.109375 1.734375q0.15625 0.640625 0.65625 1.015625q0.5 0.375 1.234375 0.375q0.734375 0 1.375 -0.375q0.65625 -0.390625 0.921875 -1.03125q0.265625 -0.65625 0.265625 -1.890625l0 -5.1875l1.640625 0l0 9.671875l-1.46875 0zm4.0476074 0l0 -9.671875l1.46875 0l0 1.359375q0.453125 -0.71875 1.203125 -1.140625q0.765625 -0.4375 1.71875 -0.4375q1.078125 0 1.765625 0.453125q0.6875 0.4375 0.96875 1.234375q1.15625 -1.6875 2.984375 -1.6875q1.453125 0 2.21875 0.796875q0.78125 0.796875 0.78125 2.453125l0 6.640625l-1.640625 0l0 -6.09375q0 -0.984375 -0.15625 -1.40625q-0.15625 -0.4375 -0.578125 -0.703125q-0.421875 -0.265625 -0.984375 -0.265625q-1.015625 0 -1.6875 0.6875q-0.671875 0.671875 -0.671875 2.15625l0 5.625l-1.640625 0l0 -6.28125q0 -1.09375 -0.40625 -1.640625q-0.40625 -0.546875 -1.3125 -0.546875q-0.6875 0 -1.28125 0.359375q-0.59375 0.359375 -0.859375 1.0625q-0.25 0.703125 -0.25 2.03125l0 5.015625l-1.640625 0zm14.025177 3.703125l0 -1.1875l10.859375 0l0 1.1875l-10.859375 0zm11.281952 -8.546875q0 -2.6875 1.484375 -3.96875q1.25 -1.078125 3.046875 -1.078125q2.0 0 3.265625 1.3125q1.265625 1.296875 1.265625 3.609375q0 1.859375 -0.5625 2.9375q-0.5625 1.0625 -1.640625 1.65625q-1.0625 0.59375 -2.328125 0.59375q-2.03125 0 -3.28125 -1.296875q-1.25 -1.3125 -1.25 -3.765625zm1.6875 0q0 1.859375 0.796875 2.796875q0.8125 0.921875 2.046875 0.921875q1.21875 0 2.03125 -0.921875q0.8125 -0.9375 0.8125 -2.84375q0 -1.796875 -0.8125 -2.71875q-0.8125 -0.921875 -2.03125 -0.921875q-1.234375 0 -2.046875 0.921875q-0.796875 0.90625 -0.796875 2.765625zm9.688232 4.84375l0 -8.40625l-1.453125 0l0 -1.265625l1.453125 0l0 -1.03125q0 -0.96875 0.171875 -1.453125q0.234375 -0.640625 0.828125 -1.03125q0.59375 -0.390625 1.671875 -0.390625q0.6875 0 1.53125 0.15625l-0.25 1.4375q-0.5 -0.09375 -0.953125 -0.09375q-0.75 0 -1.0625 0.328125q-0.3125 0.3125 -0.3125 1.1875l0 0.890625l1.890625 0l0 1.265625l-1.890625 0l0 8.40625l-1.625 0zm3.2770386 3.703125l0 -1.1875l10.859375 0l0 1.1875l-10.859375 0zm11.891357 -3.703125l0 -13.359375l1.640625 0l0 4.796875q1.140625 -1.328125 2.890625 -1.328125q1.078125 0 1.859375 0.421875q0.796875 0.421875 1.140625 1.171875q0.34375 0.75 0.34375 2.171875l0 6.125l-1.640625 0l0 -6.125q0 -1.234375 -0.53125 -1.796875q-0.53125 -0.5625 -1.515625 -0.5625q-0.71875 0 -1.359375 0.390625q-0.640625 0.375 -0.921875 1.015625q-0.265625 0.640625 -0.265625 1.78125l0 5.296875l-1.640625 0zm17.000702 -3.109375l1.6875 0.203125q-0.40625 1.484375 -1.484375 2.3125q-1.078125 0.8125 -2.765625 0.8125q-2.125 0 -3.375 -1.296875q-1.234375 -1.3125 -1.234375 -3.671875q0 -2.453125 1.25 -3.796875q1.265625 -1.34375 3.265625 -1.34375q1.9375 0 3.15625 1.328125q1.234375 1.3125 1.234375 3.703125q0 0.15625 0 0.4375l-7.21875 0q0.09375 1.59375 0.90625 2.453125q0.8125 0.84375 2.015625 0.84375q0.90625 0 1.546875 -0.46875q0.640625 -0.484375 1.015625 -1.515625zm-5.390625 -2.65625l5.40625 0q-0.109375 -1.21875 -0.625 -1.828125q-0.78125 -0.953125 -2.03125 -0.953125q-1.125 0 -1.90625 0.765625q-0.765625 0.75 -0.84375 2.015625zm15.453857 4.578125q-0.921875 0.765625 -1.765625 1.09375q-0.828125 0.3125 -1.796875 0.3125q-1.59375 0 -2.453125 -0.78125q-0.859375 -0.78125 -0.859375 -1.984375q0 -0.71875 0.328125 -1.296875q0.328125 -0.59375 0.84375 -0.9375q0.53125 -0.359375 1.1875 -0.546875q0.46875 -0.125 1.453125 -0.25q1.984375 -0.234375 2.921875 -0.5625q0.015625 -0.34375 0.015625 -0.421875q0 -1.0 -0.46875 -1.421875q-0.625 -0.546875 -1.875 -0.546875q-1.15625 0 -1.703125 0.40625q-0.546875 0.40625 -0.8125 1.421875l-1.609375 -0.21875q0.21875 -1.015625 0.71875 -1.640625q0.5 -0.640625 1.453125 -0.984375q0.953125 -0.34375 2.1875 -0.34375q1.25 0 2.015625 0.296875q0.78125 0.28125 1.140625 0.734375q0.375 0.4375 0.515625 1.109375q0.078125 0.421875 0.078125 1.515625l0 2.1875q0 2.28125 0.109375 2.890625q0.109375 0.59375 0.40625 1.15625l-1.703125 0q-0.265625 -0.515625 -0.328125 -1.1875zm-0.140625 -3.671875q-0.890625 0.375 -2.671875 0.625q-1.015625 0.140625 -1.4375 0.328125q-0.421875 0.1875 -0.65625 0.53125q-0.21875 0.34375 -0.21875 0.78125q0 0.65625 0.5 1.09375q0.5 0.4375 1.453125 0.4375q0.9375 0 1.671875 -0.40625q0.75 -0.421875 1.09375 -1.140625q0.265625 -0.5625 0.265625 -1.640625l0 -0.609375zm10.469452 4.859375l0 -1.21875q-0.90625 1.4375 -2.703125 1.4375q-1.15625 0 -2.125 -0.640625q-0.96875 -0.640625 -1.5 -1.78125q-0.53125 -1.140625 -0.53125 -2.625q0 -1.453125 0.484375 -2.625q0.484375 -1.1875 1.4375 -1.8125q0.96875 -0.625 2.171875 -0.625q0.875 0 1.546875 0.375q0.6875 0.359375 1.109375 0.953125l0 -4.796875l1.640625 0l0 13.359375l-1.53125 0zm-5.171875 -4.828125q0 1.859375 0.78125 2.78125q0.78125 0.921875 1.84375 0.921875q1.078125 0 1.828125 -0.875q0.75 -0.890625 0.75 -2.6875q0 -1.984375 -0.765625 -2.90625q-0.765625 -0.9375 -1.890625 -0.9375q-1.078125 0 -1.8125 0.890625q-0.734375 0.890625 -0.734375 2.8125zm8.625732 1.9375l1.625 -0.25q0.125 0.96875 0.75 1.5q0.625 0.515625 1.75 0.515625q1.125 0 1.671875 -0.453125q0.546875 -0.46875 0.546875 -1.09375q0 -0.546875 -0.484375 -0.875q-0.328125 -0.21875 -1.671875 -0.546875q-1.8125 -0.46875 -2.515625 -0.796875q-0.6875 -0.328125 -1.046875 -0.90625q-0.359375 -0.59375 -0.359375 -1.3125q0 -0.640625 0.296875 -1.1875q0.296875 -0.5625 0.8125 -0.921875q0.375 -0.28125 1.03125 -0.46875q0.671875 -0.203125 1.421875 -0.203125q1.140625 0 2.0 0.328125q0.859375 0.328125 1.265625 0.890625q0.421875 0.5625 0.578125 1.5l-1.609375 0.21875q-0.109375 -0.75 -0.640625 -1.171875q-0.515625 -0.421875 -1.46875 -0.421875q-1.140625 0 -1.625 0.375q-0.46875 0.375 -0.46875 0.875q0 0.3125 0.1875 0.578125q0.203125 0.265625 0.640625 0.4375q0.234375 0.09375 1.4375 0.421875q1.75 0.453125 2.4375 0.75q0.6875 0.296875 1.078125 0.859375q0.390625 0.5625 0.390625 1.40625q0 0.828125 -0.484375 1.546875q-0.46875 0.71875 -1.375 1.125q-0.90625 0.390625 -2.046875 0.390625q-1.875 0 -2.875 -0.78125q-0.984375 -0.78125 -1.25 -2.328125z" fill-rule="nonzero"/><path fill="#e70606" fill-opacity="0.5" d="m135.84776 105.18898l9.448822 0l0 74.55118l-9.448822 0z" fill-rule="evenodd"/><path stroke="#000000" stroke-width="1.0" stroke-linejoin="round" stroke-linecap="butt" d="m135.84776 105.18898l9.448822 0l0 74.55118l-9.448822 0z" fill-rule="evenodd"/><path fill="#000000" fill-opacity="0.0" d="m145.29659 142.46457l14.141739 0" fill-rule="evenodd"/><path stroke="#000000" stroke-width="1.0" stroke-linejoin="round" stroke-linecap="butt" d="m145.29659 142.46457l10.714645 0" fill-rule="evenodd"/><path fill="#000000" stroke="#000000" stroke-width="1.0" stroke-linecap="butt" d="m156.01123 142.46457l-1.1245728 1.124588l3.0897675 -1.124588l-3.0897675 -1.124588z" fill-rule="evenodd"/><path fill="#000000" fill-opacity="0.0" d="m150.22047 118.32284l60.944885 0l0 44.88189l-60.944885 0z" fill-rule="evenodd"/><path fill="#000000" d="m160.93922 133.20721l0.078125 0.515625q-0.25 0.046875 -0.4375 0.046875q-0.3125 0 -0.5 -0.09375q-0.171875 -0.109375 -0.25 -0.265625q-0.0625 -0.171875 -0.0625 -0.703125l0 -1.984375l-0.4375 0l0 -0.453125l0.4375 0l0 -0.859375l0.578125 -0.34375l0 1.203125l0.59375 0l0 0.453125l-0.59375 0l0 2.015625q0 0.25 0.03125 0.328125q0.03125 0.078125 0.09375 0.125q0.078125 0.03125 0.203125 0.03125q0.109375 0 0.265625 -0.015625zm0.34931946 -1.203125q0 -0.96875 0.53125 -1.421875q0.453125 -0.390625 1.09375 -0.390625q0.703125 0 1.15625 0.46875q0.453125 0.46875 0.453125 1.28125q0 0.671875 -0.203125 1.0625q-0.1875 0.375 -0.578125 0.59375q-0.375 0.203125 -0.828125 0.203125q-0.734375 0 -1.1875 -0.453125q-0.4375 -0.46875 -0.4375 -1.34375zm0.609375 0q0 0.65625 0.28125 0.984375q0.296875 0.328125 0.734375 0.328125q0.4375 0 0.71875 -0.328125q0.296875 -0.328125 0.296875 -1.015625q0 -0.640625 -0.296875 -0.96875q-0.296875 -0.328125 -0.71875 -0.328125q-0.4375 0 -0.734375 0.328125q-0.28125 0.328125 -0.28125 1.0zm3.311264 1.71875l0 -3.453125l0.515625 0l0 0.53125q0.203125 -0.375 0.375 -0.484375q0.171875 -0.125 0.375 -0.125q0.296875 0 0.609375 0.1875l-0.203125 0.546875q-0.21875 -0.125 -0.4375 -0.125q-0.1875 0 -0.34375 0.125q-0.140625 0.109375 -0.21875 0.3125q-0.09375 0.3125 -0.09375 0.671875l0 1.8125l-0.578125 0zm4.4665833 -1.265625l0.578125 0.078125q-0.09375 0.59375 -0.484375 0.9375q-0.390625 0.328125 -0.953125 0.328125q-0.703125 0 -1.140625 -0.453125q-0.421875 -0.46875 -0.421875 -1.34375q0 -0.546875 0.171875 -0.96875q0.1875 -0.421875 0.5625 -0.625q0.390625 -0.21875 0.828125 -0.21875q0.5625 0 0.921875 0.296875q0.359375 0.28125 0.46875 0.796875l-0.578125 0.09375q-0.078125 -0.359375 -0.296875 -0.53125q-0.203125 -0.171875 -0.484375 -0.171875q-0.453125 0 -0.734375 0.3125q-0.265625 0.3125 -0.265625 1.0q0 0.703125 0.265625 1.015625q0.265625 0.3125 0.703125 0.3125q0.34375 0 0.5625 -0.203125q0.234375 -0.21875 0.296875 -0.65625zm1.078125 1.265625l0 -4.765625l0.59375 0l0 1.703125q0.40625 -0.46875 1.03125 -0.46875q0.375 0 0.65625 0.15625q0.28125 0.140625 0.40625 0.421875q0.125 0.265625 0.125 0.765625l0 2.1875l-0.578125 0l0 -2.1875q0 -0.4375 -0.203125 -0.640625q-0.1875 -0.203125 -0.53125 -0.203125q-0.265625 0 -0.5 0.140625q-0.21875 0.140625 -0.3125 0.375q-0.09375 0.21875 -0.09375 0.625l0 1.890625l-0.59375 0zm3.873764 0l0 -0.671875l0.65625 0l0 0.671875l-0.65625 0zm3.9274445 -0.421875q-0.328125 0.265625 -0.625 0.390625q-0.296875 0.109375 -0.640625 0.109375q-0.578125 0 -0.890625 -0.28125q-0.296875 -0.28125 -0.296875 -0.703125q0 -0.25 0.109375 -0.453125q0.125 -0.21875 0.3125 -0.34375q0.1875 -0.140625 0.421875 -0.203125q0.171875 -0.046875 0.515625 -0.078125q0.71875 -0.09375 1.046875 -0.203125q0 -0.125 0 -0.15625q0 -0.359375 -0.15625 -0.5q-0.234375 -0.203125 -0.671875 -0.203125q-0.40625 0 -0.609375 0.15625q-0.203125 0.140625 -0.296875 0.5l-0.5625 -0.078125q0.078125 -0.359375 0.25 -0.578125q0.1875 -0.234375 0.515625 -0.359375q0.34375 -0.125 0.78125 -0.125q0.453125 0 0.71875 0.109375q0.28125 0.09375 0.40625 0.265625q0.140625 0.15625 0.1875 0.390625q0.03125 0.15625 0.03125 0.546875l0 0.765625q0 0.828125 0.03125 1.046875q0.046875 0.203125 0.15625 0.40625l-0.609375 0q-0.09375 -0.1875 -0.125 -0.421875zm-0.046875 -1.3125q-0.3125 0.125 -0.953125 0.21875q-0.359375 0.0625 -0.515625 0.125q-0.140625 0.0625 -0.234375 0.1875q-0.078125 0.125 -0.078125 0.28125q0 0.234375 0.171875 0.390625q0.1875 0.15625 0.53125 0.15625q0.328125 0 0.59375 -0.140625q0.265625 -0.15625 0.390625 -0.421875q0.09375 -0.1875 0.09375 -0.578125l0 -0.21875zm1.498764 1.734375l0 -3.453125l0.53125 0l0 0.5q0.375 -0.578125 1.09375 -0.578125q0.3125 0 0.578125 0.109375q0.265625 0.109375 0.390625 0.296875q0.125 0.1875 0.1875 0.4375q0.03125 0.15625 0.03125 0.5625l0 2.125l-0.59375 0l0 -2.09375q0 -0.359375 -0.078125 -0.53125q-0.0625 -0.1875 -0.234375 -0.28125q-0.171875 -0.109375 -0.40625 -0.109375q-0.375 0 -0.640625 0.234375q-0.265625 0.234375 -0.265625 0.890625l0 1.890625l-0.59375 0zm3.670639 1.328125l-0.0625 -0.546875q0.203125 0.046875 0.34375 0.046875q0.1875 0 0.296875 -0.0625q0.125 -0.0625 0.203125 -0.1875q0.046875 -0.078125 0.171875 -0.421875q0.015625 -0.0625 0.0625 -0.15625l-1.3125 -3.453125l0.625 0l0.71875 2.0q0.140625 0.375 0.25 0.796875q0.109375 -0.40625 0.25 -0.78125l0.734375 -2.015625l0.578125 0l-1.3125 3.515625q-0.203125 0.5625 -0.328125 0.78125q-0.15625 0.28125 -0.359375 0.421875q-0.203125 0.140625 -0.46875 0.140625q-0.171875 0 -0.390625 -0.078125zm4.484375 0.078125q-0.484375 -0.609375 -0.828125 -1.421875q-0.328125 -0.828125 -0.328125 -1.703125q0 -0.78125 0.25 -1.484375q0.296875 -0.828125 0.90625 -1.640625l0.40625 0q-0.390625 0.671875 -0.515625 0.96875q-0.203125 0.4375 -0.3125 0.9375q-0.140625 0.59375 -0.140625 1.21875q0 1.5625 0.96875 3.125l-0.40625 0z" fill-rule="nonzero"/><path fill="#000000" d="m167.05525 141.72284l0 -4.765625l0.59375 0l0 2.71875l1.375 -1.40625l0.765625 0l-1.328125 1.28125l1.453125 2.171875l-0.71875 0l-1.140625 -1.765625l-0.40625 0.390625l0 1.375l-0.59375 0zm5.6875 -1.109375l0.609375 0.078125q-0.140625 0.53125 -0.53125 0.828125q-0.390625 0.28125 -0.984375 0.28125q-0.765625 0 -1.203125 -0.46875q-0.4375 -0.46875 -0.4375 -1.3125q0 -0.859375 0.4375 -1.34375q0.453125 -0.484375 1.171875 -0.484375q0.6875 0 1.125 0.46875q0.4375 0.46875 0.4375 1.328125q0 0.046875 0 0.15625l-2.578125 0q0.03125 0.578125 0.3125 0.875q0.296875 0.296875 0.734375 0.296875q0.328125 0 0.546875 -0.15625q0.234375 -0.171875 0.359375 -0.546875zm-1.921875 -0.953125l1.9375 0q-0.046875 -0.4375 -0.21875 -0.640625q-0.28125 -0.34375 -0.734375 -0.34375q-0.40625 0 -0.6875 0.265625q-0.265625 0.265625 -0.296875 0.71875zm5.623764 0.953125l0.609375 0.078125q-0.140625 0.53125 -0.53125 0.828125q-0.390625 0.28125 -0.984375 0.28125q-0.765625 0 -1.203125 -0.46875q-0.4375 -0.46875 -0.4375 -1.3125q0 -0.859375 0.4375 -1.34375q0.453125 -0.484375 1.171875 -0.484375q0.6875 0 1.125 0.46875q0.4375 0.46875 0.4375 1.328125q0 0.046875 0 0.15625l-2.578125 0q0.03125 0.578125 0.3125 0.875q0.296875 0.296875 0.734375 0.296875q0.328125 0 0.546875 -0.15625q0.234375 -0.171875 0.359375 -0.546875zm-1.921875 -0.953125l1.9375 0q-0.046875 -0.4375 -0.21875 -0.640625q-0.28125 -0.34375 -0.734375 -0.34375q-0.40625 0 -0.6875 0.265625q-0.265625 0.265625 -0.296875 0.71875zm3.264389 3.390625l0 -4.78125l0.53125 0l0 0.453125q0.1875 -0.265625 0.421875 -0.390625q0.25 -0.140625 0.578125 -0.140625q0.453125 0 0.78125 0.234375q0.34375 0.21875 0.515625 0.640625q0.171875 0.40625 0.171875 0.90625q0 0.53125 -0.1875 0.953125q-0.1875 0.421875 -0.5625 0.65625q-0.359375 0.21875 -0.75 0.21875q-0.296875 0 -0.53125 -0.125q-0.234375 -0.125 -0.375 -0.3125l0 1.6875l-0.59375 0zm0.53125 -3.03125q0 0.65625 0.265625 0.984375q0.28125 0.3125 0.65625 0.3125q0.390625 0 0.671875 -0.328125q0.28125 -0.328125 0.28125 -1.015625q0 -0.671875 -0.28125 -1.0q-0.265625 -0.328125 -0.640625 -0.328125q-0.375 0 -0.671875 0.359375q-0.28125 0.34375 -0.28125 1.015625zm3.326889 1.703125l0 -0.671875l0.65625 0l0 0.671875q0 0.375 -0.125 0.59375q-0.125 0.21875 -0.40625 0.34375l-0.171875 -0.25q0.1875 -0.078125 0.265625 -0.234375q0.09375 -0.15625 0.109375 -0.453125l-0.328125 0z" fill-rule="nonzero"/><path fill="#000000" d="m169.28963 149.72284l0 -0.4375q-0.328125 0.515625 -0.953125 0.515625q-0.421875 0 -0.765625 -0.21875q-0.34375 -0.234375 -0.53125 -0.640625q-0.1875 -0.40625 -0.1875 -0.9375q0 -0.515625 0.171875 -0.9375q0.171875 -0.421875 0.515625 -0.640625q0.34375 -0.234375 0.765625 -0.234375q0.3125 0 0.546875 0.140625q0.25 0.125 0.40625 0.328125l0 -1.703125l0.578125 0l0 4.765625l-0.546875 0zm-1.84375 -1.71875q0 0.65625 0.28125 0.984375q0.28125 0.328125 0.65625 0.328125q0.390625 0 0.65625 -0.3125q0.265625 -0.3125 0.265625 -0.953125q0 -0.703125 -0.28125 -1.03125q-0.265625 -0.34375 -0.671875 -0.34375q-0.375 0 -0.640625 0.328125q-0.265625 0.3125 -0.265625 1.0zm3.311264 -2.375l0 -0.671875l0.59375 0l0 0.671875l-0.59375 0zm0 4.09375l0 -3.453125l0.59375 0l0 3.453125l-0.59375 0zm1.4788055 0l0 -3.453125l0.53125 0l0 0.484375q0.15625 -0.25 0.421875 -0.40625q0.28125 -0.15625 0.625 -0.15625q0.375 0 0.625 0.15625q0.25 0.15625 0.34375 0.453125q0.40625 -0.609375 1.0625 -0.609375q0.515625 0 0.78125 0.296875q0.28125 0.28125 0.28125 0.859375l0 2.375l-0.578125 0l0 -2.171875q0 -0.359375 -0.0625 -0.5q-0.046875 -0.15625 -0.203125 -0.25q-0.140625 -0.09375 -0.34375 -0.09375q-0.359375 0 -0.609375 0.25q-0.234375 0.234375 -0.234375 0.765625l0 2.0l-0.59375 0l0 -2.25q0 -0.375 -0.140625 -0.5625q-0.140625 -0.203125 -0.46875 -0.203125q-0.25 0 -0.453125 0.125q-0.203125 0.125 -0.296875 0.375q-0.09375 0.25 -0.09375 0.71875l0 1.796875l-0.59375 0zm10.472153 -2.796875l-3.140625 0l0 -0.546875l3.140625 0l0 0.546875zm0 1.4375l-3.140625 0l0 -0.546875l3.140625 0l0 0.546875zm2.4395905 -0.078125l0 -0.578125l1.796875 0l0 0.578125l-1.796875 0zm5.3415833 0.875l0 0.5625l-3.140625 0q-0.015625 -0.21875 0.0625 -0.40625q0.125 -0.328125 0.390625 -0.640625q0.265625 -0.3125 0.765625 -0.71875q0.78125 -0.640625 1.046875 -1.0q0.28125 -0.375 0.28125 -0.703125q0 -0.359375 -0.25 -0.59375q-0.25 -0.234375 -0.65625 -0.234375q-0.421875 0 -0.671875 0.25q-0.25 0.25 -0.265625 0.703125l-0.59375 -0.0625q0.0625 -0.671875 0.46875 -1.015625q0.40625 -0.359375 1.078125 -0.359375q0.6875 0 1.078125 0.375q0.40625 0.375 0.40625 0.9375q0 0.296875 -0.125 0.578125q-0.109375 0.265625 -0.390625 0.578125q-0.265625 0.296875 -0.890625 0.828125q-0.53125 0.453125 -0.6875 0.609375q-0.140625 0.15625 -0.234375 0.3125l2.328125 0z" fill-rule="nonzero"/><path fill="#000000" d="m160.0486 159.12909l-0.421875 0q0.96875 -1.5625 0.96875 -3.125q0 -0.609375 -0.140625 -1.21875q-0.109375 -0.484375 -0.3125 -0.9375q-0.125 -0.28125 -0.515625 -0.96875l0.421875 0q0.609375 0.8125 0.890625 1.640625q0.25 0.703125 0.25 1.484375q0 0.875 -0.34375 1.703125q-0.328125 0.8125 -0.796875 1.421875z" fill-rule="nonzero"/></g></svg>