<svg version="1.1" viewBox="0.0 0.0 1040.3517060367453 726.3149606299213" fill="none" stroke="none" stroke-linecap="square" stroke-miterlimit="10" xmlns:xlink="http://www.w3.org/1999/xlink" xmlns="http://www.w3.org/2000/svg"><clipPath id="p.0"><path d="m0 0l1040.3517 0l0 726.31494l-1040.3517 0l0 -726.31494z" clip-rule="nonzero"/></clipPath><g clip-path="url(#p.0)"><path fill="#ffffff" d="m0 0l1040.3517 0l0 726.31494l-1040.3517 0z" fill-rule="evenodd"/><path fill="#cfe2f3" d="m84.72384 312.99612l185.1496 0l0 188.26773l-185.1496 0z" fill-rule="evenodd"/><path fill="#a5b4c2" d="m269.87344 312.99612l54.346466 -54.346436l0 188.26773l-54.346466 54.346436z" fill-rule="evenodd"/><path fill="#d8e7f5" d="m84.72384 312.99612l54.346443 -54.346436l185.14963 0l-54.346466 54.346436z" fill-rule="evenodd"/><path fill="#000000" fill-opacity="0.0" d="m84.72384 312.99612l54.346443 -54.346436l185.14963 0l0 188.26773l-54.346466 54.346436l-185.1496 0zm0 0l185.1496 0l54.346466 -54.346436m-54.346466 54.346436l0 188.26773" fill-rule="evenodd"/><path stroke="#000000" stroke-width="1.194225721784777" stroke-linejoin="round" stroke-linecap="butt" d="m84.72384 312.99612l54.346443 -54.346436l185.14963 0l0 188.26773l-54.346466 54.346436l-185.1496 0zm0 0l185.1496 0l54.346466 -54.346436m-54.346466 54.346436l0 188.26773" fill-rule="evenodd"/><path fill="#cfe2f3" d="m543.3861 132.5484l90.821655 0l0 94.85318l-90.821655 0z" fill-rule="evenodd"/><path fill="#a5b4c2" d="m634.20776 132.5484l26.65863 -26.658638l0 94.85317l-26.65863 26.658646z" fill-rule="evenodd"/><path fill="#d8e7f5" d="m543.3861 132.5484l26.65863 -26.658638l90.821655 0l-26.65863 26.658638z" fill-rule="evenodd"/><path fill="#000000" fill-opacity="0.0" d="m543.3861 132.5484l26.65863 -26.658638l90.821655 0l0 94.85317l-26.65863 26.658646l-90.821655 0zm0 0l90.821655 0l26.65863 -26.658638m-26.65863 26.658638l0 94.85318" fill-rule="evenodd"/><path stroke="#000000" stroke-width="1.194225721784777" stroke-linejoin="round" stroke-linecap="butt" d="m543.3861 132.5484l26.65863 -26.658638l90.821655 0l0 94.85317l-26.65863 26.658646l-90.821655 0zm0 0l90.821655 0l26.65863 -26.658638m-26.65863 26.658638l0 94.85318" fill-rule="evenodd"/><path fill="#cfe2f3" d="m543.3861 309.9238l90.821655 0l0 94.85315l-90.821655 0z" fill-rule="evenodd"/><path fill="#a5b4c2" d="m634.20776 309.9238l26.65863 -26.65866l0 94.85318l-26.65863 26.65863z" fill-rule="evenodd"/><path fill="#d8e7f5" d="m543.3861 309.9238l26.65863 -26.65866l90.821655 0l-26.65863 26.65866z" fill-rule="evenodd"/><path fill="#000000" fill-opacity="0.0" d="m543.3861 309.9238l26.65863 -26.65866l90.821655 0l0 94.85318l-26.65863 26.65863l-90.821655 0zm0 0l90.821655 0l26.65863 -26.65866m-26.65863 26.65866l0 94.85315" fill-rule="evenodd"/><path stroke="#000000" stroke-width="1.194225721784777" stroke-linejoin="round" stroke-linecap="butt" d="m543.3861 309.9238l26.65863 -26.65866l90.821655 0l0 94.85318l-26.65863 26.65863l-90.821655 0zm0 0l90.821655 0l26.65863 -26.65866m-26.65863 26.65866l0 94.85315" fill-rule="evenodd"/><path fill="#cfe2f3" d="m543.3861 545.609l90.821655 0l0 94.85315l-90.821655 0z" fill-rule="evenodd"/><path fill="#a5b4c2" d="m634.20776 545.609l26.65863 -26.65863l0 94.85315l-26.65863 26.65863z" fill-rule="evenodd"/><path fill="#d8e7f5" d="m543.3861 545.609l26.65863 -26.65863l90.821655 0l-26.65863 26.65863z" fill-rule="evenodd"/><path fill="#000000" fill-opacity="0.0" d="m543.3861 545.609l26.65863 -26.65863l90.821655 0l0 94.85315l-26.65863 26.65863l-90.821655 0zm0 0l90.821655 0l26.65863 -26.65863m-26.65863 26.65863l0 94.85315" fill-rule="evenodd"/><path stroke="#000000" stroke-width="1.194225721784777" stroke-linejoin="round" stroke-linecap="butt" d="m543.3861 545.609l26.65863 -26.65863l90.821655 0l0 94.85315l-26.65863 26.65863l-90.821655 0zm0 0l90.821655 0l26.65863 -26.65863m-26.65863 26.65863l0 94.85315" fill-rule="evenodd"/><path fill="#000000" fill-opacity="0.0" d="m574.52185 446.05917l55.212646 0l0 45.82675l-55.212646 0z" fill-rule="evenodd"/><path fill="#000000" d="m588.1156 478.4412l0 -2.234375l2.234375 0l0 2.234375l-2.234375 0zm7.4375 0l0 -2.234375l2.21875 0l0 2.234375l-2.21875 0zm7.40625 0l0 -2.234375l2.234375 0l0 2.234375l-2.234375 0z" fill-rule="nonzero"/><path fill="#000000" fill-opacity="0.0" d="m425.18375 182.96863l0 0c0 -13.802383 11.189056 -24.991425 24.991425 -24.991425l0 0c6.6281433 0 12.984833 2.6330109 17.67163 7.319824c4.686798 4.686798 7.319824 11.043457 7.319824 17.6716l0 0c0 13.802399 -11.189056 24.99144 -24.991455 24.99144l0 0c-13.802368 0 -24.991425 -11.189041 -24.991425 -24.99144z" fill-rule="evenodd"/><path stroke="#000000" stroke-width="1.194225721784777" stroke-linejoin="round" stroke-linecap="butt" d="m425.18375 182.96863l0 0c0 -13.802383 11.189056 -24.991425 24.991425 -24.991425l0 0c6.6281433 0 12.984833 2.6330109 17.67163 7.319824c4.686798 4.686798 7.319824 11.043457 7.319824 17.6716l0 0c0 13.802399 -11.189056 24.99144 -24.991455 24.99144l0 0c-13.802368 0 -24.991425 -11.189041 -24.991425 -24.99144z" fill-rule="evenodd"/><path fill="#000000" fill-opacity="0.0" d="m435.06757 164.21567l30.21521 0l0 37.505936l-30.21521 0z" fill-rule="evenodd"/><path fill="#000000" d="m446.7707 183.58205l0.5 -1.546875q1.71875 0.609375 2.5 1.0625q-0.203125 -1.96875 -0.21875 -2.703125l1.578125 0q-0.03125 1.0625 -0.25 2.6875q1.125 -0.5625 2.5625 -1.046875l0.5 1.546875q-1.375 0.453125 -2.703125 0.609375q0.671875 0.578125 1.875 2.0625l-1.3125 0.921875q-0.625 -0.859375 -1.484375 -2.34375q-0.796875 1.53125 -1.40625 2.34375l-1.296875 -0.921875q1.265625 -1.5625 1.8125 -2.0625q-1.40625 -0.265625 -2.65625 -0.609375z" fill-rule="nonzero"/><path fill="#000000" fill-opacity="0.0" d="m425.18375 355.57437l0 0c0 -13.802368 11.189056 -24.991425 24.991425 -24.991425l0 0c6.6281433 0 12.984833 2.6330261 17.67163 7.319824c4.686798 4.686798 7.319824 11.043457 7.319824 17.6716l0 0c0 13.802399 -11.189056 24.991455 -24.991455 24.991455l0 0c-13.802368 0 -24.991425 -11.189056 -24.991425 -24.991455z" fill-rule="evenodd"/><path stroke="#000000" stroke-width="1.194225721784777" stroke-linejoin="round" stroke-linecap="butt" d="m425.18375 355.57437l0 0c0 -13.802368 11.189056 -24.991425 24.991425 -24.991425l0 0c6.6281433 0 12.984833 2.6330261 17.67163 7.319824c4.686798 4.686798 7.319824 11.043457 7.319824 17.6716l0 0c0 13.802399 -11.189056 24.991455 -24.991455 24.991455l0 0c-13.802368 0 -24.991425 -11.189056 -24.991425 -24.991455z" fill-rule="evenodd"/><path fill="#000000" fill-opacity="0.0" d="m435.06757 336.8214l30.21521 0l0 37.50595l-30.21521 0z" fill-rule="evenodd"/><path fill="#000000" d="m446.7707 356.1878l0.5 -1.546875q1.71875 0.609375 2.5 1.0625q-0.203125 -1.96875 -0.21875 -2.703125l1.578125 0q-0.03125 1.0625 -0.25 2.6875q1.125 -0.5625 2.5625 -1.046875l0.5 1.546875q-1.375 0.453125 -2.703125 0.609375q0.671875 0.578125 1.875 2.0625l-1.3125 0.921875q-0.625 -0.859375 -1.484375 -2.34375q-0.796875 1.53125 -1.40625 2.34375l-1.296875 -0.921875q1.265625 -1.5625 1.8125 -2.0625q-1.40625 -0.265625 -2.65625 -0.609375z" fill-rule="nonzero"/><path fill="#000000" fill-opacity="0.0" d="m425.18375 592.149l0 0c0 -13.802368 11.189056 -24.991394 24.991425 -24.991394l0 0c6.6281433 0 12.984833 2.6329956 17.67163 7.319824c4.686798 4.6867676 7.319824 11.043457 7.319824 17.67157l0 0c0 13.802429 -11.189056 24.991455 -24.991455 24.991455l0 0c-13.802368 0 -24.991425 -11.189026 -24.991425 -24.991455z" fill-rule="evenodd"/><path stroke="#000000" stroke-width="1.194225721784777" stroke-linejoin="round" stroke-linecap="butt" d="m425.18375 592.149l0 0c0 -13.802368 11.189056 -24.991394 24.991425 -24.991394l0 0c6.6281433 0 12.984833 2.6329956 17.67163 7.319824c4.686798 4.6867676 7.319824 11.043457 7.319824 17.67157l0 0c0 13.802429 -11.189056 24.991455 -24.991455 24.991455l0 0c-13.802368 0 -24.991425 -11.189026 -24.991425 -24.991455z" fill-rule="evenodd"/><path fill="#000000" fill-opacity="0.0" d="m435.06757 573.39606l30.21521 0l0 37.50592l-30.21521 0z" fill-rule="evenodd"/><path fill="#000000" d="m446.7707 592.76245l0.5 -1.546875q1.71875 0.609375 2.5 1.0625q-0.203125 -1.96875 -0.21875 -2.703125l1.578125 0q-0.03125 1.0625 -0.25 2.6875q1.125 -0.5625 2.5625 -1.046875l0.5 1.546875q-1.375 0.453125 -2.703125 0.609375q0.671875 0.578125 1.875 2.0625l-1.3125 0.921875q-0.625 -0.859375 -1.484375 -2.34375q-0.796875 1.53125 -1.40625 2.34375l-1.296875 -0.921875q1.265625 -1.5625 1.8125 -2.0625q-1.40625 -0.265625 -2.65625 -0.609375z" fill-rule="nonzero"/><path fill="#000000" fill-opacity="0.0" d="m424.38516 469.0858l0 0c0 -13.802368 11.189026 -24.991425 24.991425 -24.991425l0 0c6.6281433 0 12.984802 2.6330261 17.6716 7.319824c4.6868286 4.686798 7.319824 11.043457 7.319824 17.6716l0 0c0 13.802399 -11.189026 24.991455 -24.991425 24.991455l0 0c-13.802399 0 -24.991425 -11.189056 -24.991425 -24.991455z" fill-rule="evenodd"/><path stroke="#000000" stroke-width="1.194225721784777" stroke-linejoin="round" stroke-linecap="butt" d="m424.38516 469.0858l0 0c0 -13.802368 11.189026 -24.991425 24.991425 -24.991425l0 0c6.6281433 0 12.984802 2.6330261 17.6716 7.319824c4.6868286 4.686798 7.319824 11.043457 7.319824 17.6716l0 0c0 13.802399 -11.189026 24.991455 -24.991425 24.991455l0 0c-13.802399 0 -24.991425 -11.189056 -24.991425 -24.991455z" fill-rule="evenodd"/><path fill="#000000" fill-opacity="0.0" d="m434.26898 450.33282l30.21521 0l0 37.50595l-30.21521 0z" fill-rule="evenodd"/><path fill="#000000" d="m445.9721 469.69922l0.5 -1.546875q1.71875 0.609375 2.5 1.0625q-0.203125 -1.96875 -0.21875 -2.703125l1.578125 0q-0.03125 1.0625 -0.25 2.6875q1.125 -0.5625 2.5625 -1.046875l0.5 1.546875q-1.375 0.453125 -2.703125 0.609375q0.671875 0.578125 1.875 2.0625l-1.3125 0.921875q-0.625 -0.859375 -1.484375 -2.34375q-0.796875 1.53125 -1.40625 2.34375l-1.296875 -0.921875q1.265625 -1.5625 1.8125 -2.0625q-1.40625 -0.265625 -2.65625 -0.609375z" fill-rule="nonzero"/><path fill="#cfe2f3" d="m809.483 561.07556l105.08026 0l0 111.84485l-105.08026 0z" fill-rule="evenodd"/><path fill="#a5b4c2" d="m914.56323 561.07556l100.93933 -100.93933l0 111.84491l-100.93933 100.93927z" fill-rule="evenodd"/><path fill="#d8e7f5" d="m809.483 561.07556l100.93927 -100.93933l105.08032 0l-100.93933 100.93933z" fill-rule="evenodd"/><path fill="#000000" fill-opacity="0.0" d="m809.483 561.07556l100.93927 -100.93933l105.08032 0l0 111.84491l-100.93933 100.93927l-105.08026 0zm0 0l105.08026 0l100.93933 -100.93933m-100.93933 100.93933l0 111.84485" fill-rule="evenodd"/><path stroke="#000000" stroke-width="1.194225721784777" stroke-linejoin="round" stroke-linecap="butt" d="m809.483 561.07556l100.93927 -100.93933l105.08032 0l0 111.84491l-100.93933 100.93927l-105.08026 0zm0 0l105.08026 0l100.93933 -100.93933m-100.93933 100.93933l0 111.84485" fill-rule="evenodd"/><path fill="#000000" fill-opacity="0.0" d="m837.5842 533.1455l104.588196 0" fill-rule="evenodd"/><path stroke="#000000" stroke-width="1.194225721784777" stroke-linejoin="round" stroke-linecap="butt" d="m837.5842 533.1455l104.588196 0" fill-rule="evenodd"/><path fill="#000000" fill-opacity="0.0" d="m942.21313 533.1455l0 111.62207" fill-rule="evenodd"/><path stroke="#000000" stroke-width="1.194225721784777" stroke-linejoin="round" stroke-linecap="butt" d="m942.21313 533.1455l0 111.62207" fill-rule="evenodd"/><path fill="#000000" fill-opacity="0.0" d="m861.5641 508.8288l104.738525 0" fill-rule="evenodd"/><path stroke="#000000" stroke-width="1.194225721784777" stroke-linejoin="round" stroke-linecap="butt" d="m861.5641 508.8288l104.738525 0" fill-rule="evenodd"/><path fill="#000000" fill-opacity="0.0" d="m966.3026 508.8288l0 112.06683" fill-rule="evenodd"/><path stroke="#000000" stroke-width="1.194225721784777" stroke-linejoin="round" stroke-linecap="butt" d="m966.3026 508.8288l0 112.06683" fill-rule="evenodd"/><path fill="#000000" fill-opacity="0.0" d="m893.08527 478.9393l103.79901 0" fill-rule="evenodd"/><path stroke="#000000" stroke-width="1.194225721784777" stroke-linejoin="round" stroke-linecap="butt" d="m893.08527 478.9393l103.79901 0" fill-rule="evenodd"/><path fill="#000000" fill-opacity="0.0" d="m996.8843 478.9393l0 111.315216" fill-rule="evenodd"/><path stroke="#000000" stroke-width="1.194225721784777" stroke-linejoin="round" stroke-linecap="butt" d="m996.8843 478.9393l0 111.315216" fill-rule="evenodd"/><path fill="#000000" fill-opacity="0.0" d="m907.20636 465.02176l42.053223 0l0 40.925842l-42.053223 0z" fill-rule="evenodd"/><path fill="#000000" d="m920.8001 497.40378l0 -2.234375l2.234375 0l0 2.234375l-2.234375 0zm7.4375 0l0 -2.234375l2.21875 0l0 2.234375l-2.21875 0zm7.40625 0l0 -2.234375l2.234375 0l0 2.234375l-2.234375 0z" fill-rule="nonzero"/><path fill="#000000" fill-opacity="0.0" d="m303.87366 371.3174l128.62991 -170.67717" fill-rule="evenodd"/><path stroke="#000000" stroke-width="1.194225721784777" stroke-linejoin="round" stroke-linecap="butt" d="m303.87366 371.3174l124.31738 -164.95493" fill-rule="evenodd"/><path fill="#000000" stroke="#000000" stroke-width="1.194225721784777" stroke-linecap="butt" d="m429.7663 207.54968l1.6865234 -5.515213l-4.8370667 3.1408234z" fill-rule="evenodd"/><path fill="#000000" fill-opacity="0.0" d="m303.73492 371.32242l121.44882 -15.748047" fill-rule="evenodd"/><path stroke="#000000" stroke-width="1.194225721784777" stroke-linejoin="round" stroke-linecap="butt" d="m303.73492 371.32242l114.34296 -14.826599" fill-rule="evenodd"/><path fill="#000000" stroke="#000000" stroke-width="1.194225721784777" stroke-linecap="butt" d="m418.3315 358.45197l5.12088 -2.6530762l-5.628174 -1.2592468z" fill-rule="evenodd"/><path fill="#000000" fill-opacity="0.0" d="m304.54263 372.58185l119.84253 96.50394" fill-rule="evenodd"/><path stroke="#000000" stroke-width="1.194225721784777" stroke-linejoin="round" stroke-linecap="butt" d="m304.54263 372.58185l114.26166 92.00992" fill-rule="evenodd"/><path fill="#000000" stroke="#000000" stroke-width="1.194225721784777" stroke-linecap="butt" d="m417.56714 466.1281l5.458252 1.8627014l-2.9839172 -4.9353943z" fill-rule="evenodd"/><path fill="#000000" fill-opacity="0.0" d="m303.4012 370.72937l129.10236 203.74805" fill-rule="evenodd"/><path stroke="#000000" stroke-width="1.194225721784777" stroke-linejoin="round" stroke-linecap="butt" d="m303.4012 370.72937l125.26721 197.69543" fill-rule="evenodd"/><path fill="#000000" stroke="#000000" stroke-width="1.194225721784777" stroke-linecap="butt" d="m427.0022 569.4806l4.566925 3.5220947l-1.2344971 -5.633667z" fill-rule="evenodd"/><path fill="#000000" fill-opacity="0.0" d="m475.16663 182.96863l68.22046 -2.9921265" fill-rule="evenodd"/><path stroke="#000000" stroke-width="1.194225721784777" stroke-linejoin="round" stroke-linecap="butt" d="m475.16663 182.96863l61.06201 -2.6781464" fill-rule="evenodd"/><path fill="#000000" stroke="#000000" stroke-width="1.194225721784777" stroke-linecap="butt" d="m536.31506 182.26111l5.327881 -2.2081146l-5.5007324 -1.7331696z" fill-rule="evenodd"/><path fill="#000000" fill-opacity="0.0" d="m475.16663 355.57437l68.22046 1.763794" fill-rule="evenodd"/><path stroke="#000000" stroke-width="1.194225721784777" stroke-linejoin="round" stroke-linecap="butt" d="m475.16663 355.5744l61.057495 1.5785522" fill-rule="evenodd"/><path fill="#000000" stroke="#000000" stroke-width="1.194225721784777" stroke-linecap="butt" d="m536.17316 359.12488l5.468689 -1.8318176l-5.366699 -2.111969z" fill-rule="evenodd"/><path fill="#000000" fill-opacity="0.0" d="m474.368 469.0858l100.1575 -0.12597656" fill-rule="evenodd"/><path stroke="#000000" stroke-width="1.194225721784777" stroke-linejoin="round" stroke-linecap="butt" d="m474.36804 469.0858l92.99213 -0.11694336" fill-rule="evenodd"/><path fill="#000000" stroke="#000000" stroke-width="1.194225721784777" stroke-linecap="butt" d="m567.3627 470.94138l5.416992 -1.9793701l-5.421997 -1.9657288z" fill-rule="evenodd"/><path fill="#000000" fill-opacity="0.0" d="m85.1153 313.14505l-18.519684 0" fill-rule="evenodd"/><path stroke="#000000" stroke-width="1.194225721784777" stroke-linejoin="round" stroke-linecap="butt" d="m85.1153 313.14505l-18.519684 0" fill-rule="evenodd"/><path fill="#000000" fill-opacity="0.0" d="m85.63518 501.2717l-18.519684 0" fill-rule="evenodd"/><path stroke="#000000" stroke-width="1.194225721784777" stroke-linejoin="round" stroke-linecap="butt" d="m85.63518 501.2717l-18.519684 0" fill-rule="evenodd"/><path fill="#000000" fill-opacity="0.0" d="m76.0082 313.63675l0 186.80313" fill-rule="evenodd"/><path stroke="#000000" stroke-width="1.194225721784777" stroke-linejoin="round" stroke-linecap="butt" d="m76.0082 317.72946l0 178.6177" fill-rule="evenodd"/><path fill="#000000" stroke="#000000" stroke-width="1.194225721784777" stroke-linecap="butt" d="m76.0082 317.72946l1.34301 1.3430176l-1.34301 -3.6898804l-1.3430023 3.6898804z" fill-rule="evenodd"/><path fill="#000000" stroke="#000000" stroke-width="1.194225721784777" stroke-linecap="butt" d="m76.0082 496.34717l-1.3430023 -1.3430176l1.3430023 3.6898804l1.34301 -3.6898804z" fill-rule="evenodd"/><path fill="#000000" fill-opacity="0.0" d="m84.81153 501.40323l0 13.102386" fill-rule="evenodd"/><path stroke="#000000" stroke-width="1.194225721784777" stroke-linejoin="round" stroke-linecap="butt" d="m84.81153 501.40323l0 13.102386" fill-rule="evenodd"/><path fill="#000000" fill-opacity="0.0" d="m269.69385 501.40323l0 13.102386" fill-rule="evenodd"/><path stroke="#000000" stroke-width="1.194225721784777" stroke-linejoin="round" stroke-linecap="butt" d="m269.69385 501.40323l0 13.102386" fill-rule="evenodd"/><path fill="#000000" fill-opacity="0.0" d="m85.24684 508.27426l184.59843 0" fill-rule="evenodd"/><path stroke="#000000" stroke-width="1.194225721784777" stroke-linejoin="round" stroke-linecap="butt" d="m89.339554 508.2743l176.41298 0" fill-rule="evenodd"/><path fill="#000000" stroke="#000000" stroke-width="1.194225721784777" stroke-linecap="butt" d="m89.339554 508.2743l1.34301 -1.3430176l-3.6898804 1.3430176l3.6898804 1.3429871z" fill-rule="evenodd"/><path fill="#000000" stroke="#000000" stroke-width="1.194225721784777" stroke-linecap="butt" d="m265.75256 508.2743l-1.3430176 1.3429871l3.6898804 -1.3429871l-3.6898804 -1.3430176z" fill-rule="evenodd"/><path fill="#000000" fill-opacity="0.0" d="m139.18481 258.6497l-18.519684 0" fill-rule="evenodd"/><path stroke="#000000" stroke-width="1.194225721784777" stroke-linejoin="round" stroke-linecap="butt" d="m139.18481 258.6497l-18.519684 0" fill-rule="evenodd"/><path fill="#000000" fill-opacity="0.0" d="m130.01195 258.89554l-54.015747 54.015747" fill-rule="evenodd"/><path stroke="#000000" stroke-width="1.194225721784777" stroke-linejoin="round" stroke-linecap="butt" d="m127.11796 261.78952l-48.227776 48.227753" fill-rule="evenodd"/><path fill="#000000" stroke="#000000" stroke-width="1.194225721784777" stroke-linecap="butt" d="m127.11796 261.78952l0 1.899292l1.6594925 -3.5587769l-3.558792 1.6594849z" fill-rule="evenodd"/><path fill="#000000" stroke="#000000" stroke-width="1.194225721784777" stroke-linecap="butt" d="m78.89018 310.01727l0 -1.899292l-1.6594925 3.5588074l3.558792 -1.6595154z" fill-rule="evenodd"/><path fill="#000000" fill-opacity="0.0" d="m44.385826 386.2638l31.622047 0l0 41.88974l-31.622047 0z" fill-rule="evenodd"/><path fill="#000000" d="m54.885826 413.18378l0 -13.359375l1.765625 0l0 5.484375l6.9375 0l0 -5.484375l1.765625 0l0 13.359375l-1.765625 0l0 -6.296875l-6.9375 0l0 6.296875l-1.765625 0z" fill-rule="nonzero"/><path fill="#000000" fill-opacity="0.0" d="m161.43964 504.0l31.62204 0l0 41.88977l-31.62204 0z" fill-rule="evenodd"/><path fill="#000000" d="m174.20526 530.92l-3.53125 -13.359375l1.8125 0l2.03125 8.765625q0.328125 1.375 0.5625 2.71875q0.5 -2.140625 0.59375 -2.46875l2.546875 -9.015625l2.125 0l1.921875 6.765625q0.71875 2.515625 1.03125 4.71875q0.265625 -1.265625 0.671875 -2.890625l2.09375 -8.59375l1.78125 0l-3.671875 13.359375l-1.703125 0l-2.8125 -10.171875q-0.359375 -1.28125 -0.421875 -1.5625q-0.203125 0.90625 -0.390625 1.5625l-2.828125 10.171875l-1.8125 0z" fill-rule="nonzero"/><path fill="#000000" fill-opacity="0.0" d="m31.66405 297.5383l78.17323 -85.44881l24.062988 22.015747l-78.17323 85.44884z" fill-rule="evenodd"/><path fill="#000000" d="m49.166233 299.91284l-1.1873894 -1.0863953l0.94921494 -1.0375366l1.1873894 1.0863647l-0.94921494 1.0375671zm7.2626724 6.6447754l-6.121395 -5.6006165l0.94921494 -1.0375671l6.121395 5.6006165l-0.94921494 1.0375671zm2.3994064 -2.6227417l-6.121395 -5.600586l0.8542938 -0.9338074l0.86460495 0.79104614q-0.3912239 -1.5862732 0.77947235 -2.8659058q0.5062485 -0.55337524 1.1240997 -0.8352051q0.61785126 -0.28182983 1.1515732 -0.21707153q0.5337219 0.0647583 1.0676918 0.3838501q0.34093475 0.20605469 1.0556717 0.85998535l3.7696724 3.448944l-0.94921494 1.0375671l-3.7235603 -3.4067688q-0.63404083 -0.58010864 -1.0613136 -0.7380676q-0.42825317 -0.1800232 -0.89746857 -0.03753662q-0.45866394 0.13098145 -0.8383522 0.5460205q-0.6117172 0.66864014 -0.6281471 1.5430908q-0.017410278 0.85235596 1.1584511 1.9281921l3.3431358 3.0587158l-0.94921494 1.0375366zm7.47221 -3.445404l-0.749321 -0.6855774l6.296463 -6.882477l0.749321 0.6855774l-6.296463 6.882477zm5.9418716 -15.731018l1.0770111 -0.8994751q0.89084625 1.132721 0.85749817 2.3728943q-0.02280426 1.2286377 -0.9403839 2.231598q-1.1496048 1.2566223 -2.674736 1.2801514q-1.5261078 0.0014648438 -3.0593414 -1.4013062q-0.9914093 -0.907074 -1.4338913 -1.9048767q-0.4434662 -1.0198975 -0.20064545 -2.026062q0.25336456 -1.0177002 0.97055054 -1.8016357q0.917572 -1.0029602 2.0048828 -1.1729431q1.0757828 -0.18054199 2.1677551 0.5008545l-0.7677078 1.1401062q-0.74809265 -0.40914917 -1.3968506 -0.3250122q-0.6382141 0.07260132 -1.1128159 0.59140015q-0.717186 0.783905 -0.60582733 1.7964478q0.11038208 0.9904785 1.3323517 2.10849q1.2335052 1.12854 2.2307968 1.172699q0.98576355 0.033599854 1.6818619 -0.7272644q0.5589752 -0.61102295 0.55921936 -1.3520203q-7.4005127E-4 -0.76309204 -0.6897278 -1.5840454zm3.9987488 0.14297485l-8.450058 -7.73114l0.9492111 -1.0375366l3.0318756 2.7739258q-0.1770935 -1.4962463 0.83540344 -2.6029663q0.62226105 -0.6802063 1.3409195 -0.9333191q0.7292099 -0.26467896 1.3917007 -0.039733887q0.6730423 0.2133789 1.5722275 1.0360718l3.8849564 3.5544128l-0.94921875 1.0375671l-3.8849487 -3.5544128q-0.77238464 -0.70666504 -1.4356079 -0.6993103q-0.6632309 0.0073547363 -1.2327576 0.6298828q-0.421875 0.46115112 -0.5489273 1.0861206q-0.12704468 0.625 0.12976074 1.1776123q0.2452774 0.54208374 0.96001434 1.1960144l3.3546677 3.069275l-0.94921875 1.0375366zm8.894783 -11.250397q-0.0316391 1.0299683 -0.30928802 1.7501221q-0.28917694 0.7095947 -0.8481598 1.3206177q-0.9281235 1.0144958 -1.9195328 1.1028137q-0.9914017 0.08828735 -1.7522583 -0.6078186q-0.4495926 -0.41134644 -0.62864685 -0.95635986q-0.19058228 -0.5555725 -0.11430359 -1.0787659q0.075294495 -0.5452881 0.33970642 -1.0657654q0.20406342 -0.38510132 0.6938782 -1.0594177q0.9997406 -1.3937073 1.3406754 -2.183014q-0.21903229 -0.20040894 -0.27668 -0.2531433q-0.63404083 -0.58010864 -1.151329 -0.5239258q-0.7265091 0.07650757 -1.4436951 0.8604431q-0.6644516 0.72631836 -0.7262573 1.3262634q-0.06278229 0.5779114 0.43512726 1.329956l-1.0664597 0.88793945q-0.5190048 -0.7290039 -0.63772583 -1.4094238q-0.108169556 -0.69195557 0.2327652 -1.4812927q0.3293991 -0.7998657 1.0465851 -1.5838013q0.717186 -0.78393555 1.3446045 -1.0993652q0.63796234 -0.32696533 1.1255722 -0.30441284q0.48760986 0.022583008 0.9985199 0.32058716q0.31787872 0.18496704 1.0095673 0.81777954l1.3833618 1.265686q1.4525375 1.328949 1.8856964 1.6193542q0.4437027 0.27890015 0.98036957 0.4098816l-0.9914017 1.0836792q-0.47044373 -0.13394165 -0.9506912 -0.48861694zm-2.3909683 -2.0393066q-0.286232 0.7758484 -1.158432 2.0532837q-0.49839783 0.72998047 -0.6256943 1.1006165q-0.12729645 0.370636 -0.033843994 0.7314453q0.09246826 0.33874512 0.3576126 0.58132935q0.41500854 0.3796997 0.97644806 0.32156372q0.57198334 -0.06967163 1.1204224 -0.66915894q0.5484314 -0.5994568 0.71669006 -1.292633q0.16727448 -0.715271 -0.09345245 -1.3562012q-0.18764496 -0.48934937 -0.87932587 -1.1221619l-0.3804245 -0.3480835zm5.509033 0.15881348l-6.1213913 -5.600586l0.8542938 -0.9338074l0.86460114 0.79104614q-0.3912201 -1.5862427 0.77948 -2.8659058q0.5062485 -0.55337524 1.1240921 -0.8352051q0.61785126 -0.28182983 1.1515732 -0.21707153q0.5337219 0.0647583 1.0676956 0.3838501q0.34093475 0.20605469 1.0556717 0.85998535l3.7696762 3.448944l-0.94921875 1.0375671l-3.7235565 -3.4067688q-0.63404846 -0.58010864 -1.0613174 -0.7380676q-0.42825317 -0.1800232 -0.89746857 -0.037506104q-0.45866394 0.13098145 -0.838356 0.54599q-0.6117096 0.66864014 -0.6281433 1.5430908q-0.017410278 0.8523865 1.1584549 1.9281921l3.343132 3.0587158l-0.94921875 1.0375366zm6.006424 -6.5654297l-6.1213913 -5.600586l0.8542938 -0.9338074l0.86460114 0.79104614q-0.3912201 -1.5862732 0.77948 -2.8659363q0.5062485 -0.5533447 1.1240997 -0.8351898q0.61785126 -0.28182983 1.1515732 -0.21707153q0.5337219 0.06474304 1.067688 0.38386536q0.34093475 0.20602417 1.0556717 0.85995483l3.7696762 3.4489746l-0.94921875 1.0375671l-3.7235565 -3.4067688q-0.63404846 -0.58010864 -1.0613174 -0.7380676q-0.42825317 -0.18005371 -0.89746857 -0.03753662q-0.45866394 0.13098145 -0.8383484 0.5460205q-0.6117172 0.66864014 -0.62815094 1.5430908q-0.017410278 0.85235596 1.1584549 1.9281921l3.343132 3.0586853l-0.94921875 1.0375671zm7.863632 -12.553848l1.107666 -0.956131q0.7132721 1.118515 0.5992203 2.2848358q-0.103500366 1.1548157 -1.0738068 2.2154388q-1.2339859 1.3488159 -2.781189 1.373352q-1.5472031 0.024536133 -3.0343246 -1.3360596q-1.544754 -1.4133453 -1.6700974 -2.9893036q-0.12534332 -1.5759583 1.0348053 -2.8440857q1.1179657 -1.2220154 2.666153 -1.224472q1.5472031 -0.024536133 3.0573807 1.3571625q0.09222412 0.0843811 0.27667236 0.25312805l-4.176552 4.565262q1.0672073 0.8705292 2.073082 0.85899353q1.0048981 -0.033599854 1.7009888 -0.7944946q0.52734375 -0.576416 0.596756 -1.2541351q0.06941223 -0.6777344 -0.37675476 -1.509491zm-4.7944107 1.8609924l3.1218643 -3.4124146q-0.83566284 -0.63749695 -1.5113983 -0.6627655q-1.0529709 -0.052734375 -1.7701569 0.7312012q-0.6539078 0.71476746 -0.6232376 1.6534729q0.029678345 0.916626 0.78292847 1.690506zm8.922539 -2.414978l-8.450058 -7.73114l0.9492111 -1.0375519l8.450058 7.73114l-0.9492111 1.0375519zm0.20785522 -3.9077606l0.7772751 -1.1736908q0.69634247 0.48884583 1.3892441 0.40275574q0.69192505 -0.108169556 1.3352814 -0.8114166q0.6539078 -0.7147522 0.68211365 -1.324295q0.016670227 -0.6200714 -0.3752823 -0.9786835q-0.34584045 -0.3164215 -0.8275604 -0.20652771q-0.33872986 0.09246826 -1.3161545 0.74420166q-1.3323364 0.8776245 -1.9511642 1.1373901q-0.61981964 0.2376709 -1.1996536 0.1307373q-0.56928253 -0.11846924 -1.0188751 -0.5298157q-0.41501617 -0.3796997 -0.59210205 -0.88056946q-0.1770935 -0.500885 -0.112342834 -1.0346222q0.03703308 -0.41085815 0.30143738 -0.9313507q0.26342773 -0.542572 0.69584656 -1.0152283q0.6644516 -0.7263031 1.3676529 -1.0782776q0.7032089 -0.35198975 1.2926102 -0.278656q0.58841705 0.05126953 1.2827988 0.49597168l-0.7897873 1.1410675q-0.5359268 -0.363266 -1.1069336 -0.27153015q-0.57099915 0.09173584 -1.1194382 0.6912079q-0.6539078 0.71476746 -0.696579 1.2475281q-0.043655396 0.51068115 0.267601 0.79545593q0.20750427 0.18986511 0.48490906 0.21070862q0.2774124 0.020843506 0.63526917 -0.13883972q0.20529175 -0.10865784 1.1088943 -0.6796875q1.2901459 -0.83151245 1.8869019 -1.0902863q0.58522797 -0.2693329 1.1640854 -0.1844635q0.58940125 0.07333374 1.11969 0.55851746q0.5187607 0.47462463 0.69512177 1.2077789q0.17537689 0.7110901 -0.098350525 1.5195465q-0.26317596 0.79693604 -0.91708374 1.5117035q-1.0968704 1.1989441 -2.1621094 1.3679504q-1.0652313 0.16900635 -2.2033157 -0.5545807z" fill-rule="nonzero"/><path fill="#000000" fill-opacity="0.0" d="m649.2734 169.44678c28.289734 0 132.48541 -62.741127 169.73822 0c37.252747 62.741135 44.81543 313.70563 53.778564 376.44678" fill-rule="evenodd"/><path stroke="#ff0000" stroke-width="1.194225721784777" stroke-linejoin="round" stroke-linecap="butt" d="m649.27344 169.44678c28.289673 0 132.48535 -62.741127 169.7381 0c18.626404 31.37056 29.830322 109.797 37.497986 188.22339c3.8338013 39.213196 6.7835693 78.42642 9.335022 111.75763c1.2757568 16.665619 2.4519653 31.860718 3.5893555 44.850098c0.56866455 6.49469 1.1276245 12.437927 1.6844482 17.737854c0.27838135 2.6499634 0.5562744 5.139038 0.83465576 7.4558716c0.06958008 0.57922363 0.13916016 1.147644 0.20880127 1.7050781l0.084228516 0.6604614" fill-rule="evenodd"/><path fill="#ff0000" stroke="#ff0000" stroke-width="1.194225721784777" stroke-linecap="butt" d="m872.24603 541.83716l-1.5096436 -1.1525269l1.8216553 3.4785767l0.84051514 -3.8356934z" fill-rule="evenodd"/><path fill="#000000" fill-opacity="0.0" d="m639.1892 466.905c49.857056 -15.405121 249.00555 -96.91226 299.14246 -92.430725c50.13684 4.4815674 1.3988037 99.43335 1.6785889 119.32001" fill-rule="evenodd"/><path stroke="#0000ff" stroke-width="1.194225721784777" stroke-linejoin="round" stroke-linecap="butt" d="m639.1892 466.90503c49.857056 -15.405151 249.00562 -96.91229 299.1424 -92.430756c25.068481 2.2407837 25.418152 27.099121 19.535767 53.883087c-2.941162 13.391968 -7.4404297 27.26538 -11.186951 39.033722c-1.87323 5.8841248 -3.5582275 11.242035 -4.7662354 15.750336c-0.6040039 2.254181 -1.0887451 4.295929 -1.4180298 6.0848694l-0.08728027 0.49475098" fill-rule="evenodd"/><path fill="#0000ff" stroke="#0000ff" stroke-width="1.194225721784777" stroke-linecap="butt" d="m940.4089 489.72104l-1.2058105 -1.4674377l0.9772339 3.8031616l1.6960449 -3.5415344z" fill-rule="evenodd"/><path fill="#000000" fill-opacity="0.0" d="m652.6337 576.14075c56.299133 -34.451416 283.73633 -188.78238 337.79462 -206.70859c54.05835 -17.926178 -11.203857 82.62625 -13.444641 99.15149" fill-rule="evenodd"/><path stroke="#9900ff" stroke-width="1.194225721784777" stroke-linejoin="round" stroke-linecap="butt" d="m652.6338 576.14075c56.29901 -34.451416 283.7362 -188.78241 337.79462 -206.70859c27.029114 -8.963074 24.22815 11.693512 14.389832 36.656464c-4.9191895 12.481506 -11.597656 26.039581 -17.186523 37.510162c-2.7943726 5.7352905 -5.316345 10.948669 -7.209717 15.244629c-0.9466553 2.1480103 -1.736206 4.0666504 -2.3240356 5.706482l-0.030517578 0.087127686" fill-rule="evenodd"/><path fill="#9900ff" stroke="#9900ff" stroke-width="1.194225721784777" stroke-linecap="butt" d="m978.0674 464.63702l-0.9394531 -1.6506653l0.3180542 3.9137573l2.2720947 -3.2026062z" fill-rule="evenodd"/><path fill="#000000" fill-opacity="0.0" d="m660.86395 105.88976l43.653564 0" fill-rule="evenodd"/><path stroke="#000000" stroke-width="1.194225721784777" stroke-linejoin="round" stroke-linecap="butt" d="m660.86395 105.88976l43.653564 0" fill-rule="evenodd"/><path fill="#000000" fill-opacity="0.0" d="m633.6116 640.4493l73.165344 0" fill-rule="evenodd"/><path stroke="#000000" stroke-width="1.194225721784777" stroke-linejoin="round" stroke-linecap="butt" d="m633.6116 640.4493l73.165344 0" fill-rule="evenodd"/><path fill="#000000" fill-opacity="0.0" d="m684.9283 106.412766l0 533.8583" fill-rule="evenodd"/><path stroke="#000000" stroke-width="1.194225721784777" stroke-linejoin="round" stroke-linecap="butt" d="m684.9283 110.50548l0 525.6728" fill-rule="evenodd"/><path fill="#000000" stroke="#000000" stroke-width="1.194225721784777" stroke-linecap="butt" d="m684.9283 110.50548l1.3430176 1.3430023l-1.3430176 -3.6898804l-1.3430176 3.6898804z" fill-rule="evenodd"/><path fill="#000000" stroke="#000000" stroke-width="1.194225721784777" stroke-linecap="butt" d="m684.9283 636.17834l-1.3430176 -1.3430176l1.3430176 3.6898804l1.3430176 -3.6898804z" fill-rule="evenodd"/><path fill="#000000" fill-opacity="0.0" d="m726.9591 312.91083l0.03149414 120.91339l-32.629883 0l-0.03149414 -120.91339z" fill-rule="evenodd"/><path fill="#000000" d="m706.7579 322.44208q2.296875 0 3.4065552 1.28125q0.9221802 1.078125 0.9225464 2.609375q4.8828125E-4 1.71875 -1.1242676 2.796875q-1.1090698 1.09375 -3.0934448 1.09375q-1.59375 0 -2.515747 -0.484375q-0.9219971 -0.484375 -1.4378662 -1.40625q-0.50024414 -0.90625 -0.5005493 -2.0q-4.272461E-4 -1.734375 1.1086426 -2.8125q1.1247559 -1.078125 3.2341309 -1.078125zm3.6621094E-4 1.453125q-1.59375 0 -2.390442 0.6875q-0.7966919 0.703125 -0.79644775 1.75q3.0517578E-4 1.046875 0.7973633 1.734375q0.7970581 0.703125 2.437683 0.703125q1.53125 0 2.327942 -0.703125q0.7966919 -0.6875 0.7963867 -1.734375q-2.4414062E-4 -1.046875 -0.79730225 -1.75q-0.7814331 -0.6875 -2.375183 -0.6875zm-4.152771 13.4140625l1.21875 0q-1.4064941 -0.96875 -1.4069214 -2.640625q-1.8310547E-4 -0.734375 0.2808838 -1.375q0.2810669 -0.625 0.70288086 -0.9375q0.43743896 -0.3125 1.0467529 -0.4375q0.421875 -0.078125 1.3125 -0.078125l5.140625 0l3.6621094E-4 1.40625l-4.59375 0q-1.109375 0 -1.484375 0.078125q-0.56243896 0.140625 -0.8748779 0.5625q-0.31237793 0.4375 -0.31219482 1.0625q1.8310547E-4 0.640625 0.31280518 1.1875q0.32824707 0.5625 0.8908081 0.78125q0.56256104 0.234375 1.625061 0.234375l4.4375 0l3.6621094E-4 1.40625l-8.296875 0l-3.0517578E-4 -1.25zm1.267334 6.5234375l-1.249939 0.203125q-0.1251831 -0.59375 -0.12530518 -1.0625q-1.8310547E-4 -0.765625 0.23406982 -1.1875q0.24987793 -0.421875 0.6405029 -0.59375q0.40618896 -0.171875 1.671814 -0.171875l4.765625 0l-2.4414062E-4 -1.03125l1.09375 0l2.4414062E-4 1.03125l2.0625 0l0.8441162 1.40625l-2.90625 0l3.6621094E-4 1.40625l-1.09375 0l-3.6621094E-4 -1.40625l-4.84375 0q-0.609375 0 -0.78125 0.0625q-0.17181396 0.078125 -0.28118896 0.25q-0.093688965 0.171875 -0.09362793 0.484375q6.1035156E-5 0.234375 0.062683105 0.609375zm-4.453125 0.0703125l1.015625 0l0.0024414062 9.328125l-1.015625 0l-0.0024414062 -9.328125zm6.2384644 15.6171875l-0.18713379 1.390625q-1.421936 -0.234375 -2.2346802 -1.171875q-0.81274414 -0.921875 -0.81311035 -2.28125q-4.272461E-4 -1.703125 1.1086426 -2.75q1.1247559 -1.03125 3.2028809 -1.03125q1.34375 0 2.343872 0.4375q1.0157471 0.453125 1.5159912 1.359375q0.50024414 0.921875 0.5004883 1.984375q3.6621094E-4 1.359375 -0.68688965 2.21875q-0.6716919 0.859375 -1.9372559 1.09375l-0.20349121 -1.359375q0.828125 -0.203125 1.2498169 -0.703125q0.42175293 -0.484375 0.42156982 -1.1875q-2.4414062E-4 -1.0625 -0.76605225 -1.734375q-0.7501831 -0.65625 -2.406433 -0.65625q-1.671875 0 -2.437317 0.640625q-0.7498169 0.640625 -0.74957275 1.671875q2.4414062E-4 0.828125 0.5003662 1.375q0.5157471 0.5625 1.5783081 0.703125zm-3.0462036 2.59375l11.453125 0l3.6621094E-4 1.40625l-4.109375 0q1.1408691 0.984375 1.1412964 2.484375q1.8310547E-4 0.921875 -0.3590088 1.59375q-0.3591919 0.6875 -0.99975586 0.96875q-0.6405029 0.296875 -1.8592529 0.296875l-5.265625 0l-3.6621094E-4 -1.40625l5.265625 0q1.046875 0 1.5311279 -0.453125q0.48425293 -0.453125 0.4840088 -1.296875q-1.2207031E-4 -0.625 -0.32843018 -1.171875q-0.32824707 -0.546875 -0.8908081 -0.78125q-0.54693604 -0.234375 -1.515686 -0.234375l-4.546875 0l-3.6621094E-4 -1.40625zm1.0349731 14.3046875q-0.6720581 -0.78125 -0.9534912 -1.5q-0.2658081 -0.71875 -0.26605225 -1.546875q-3.6621094E-4 -1.375 0.6713257 -2.109375q0.6716919 -0.734375 1.7029419 -0.734375q0.609375 0 1.109436 0.28125q0.51568604 0.28125 0.8126831 0.71875q0.31262207 0.453125 0.46899414 1.015625q0.10949707 0.421875 0.20349121 1.25q0.20355225 1.703125 0.4850464 2.515625q0.296875 0 0.375 0q0.859375 0 1.2030029 -0.390625q0.48425293 -0.546875 0.48394775 -1.609375q-2.4414062E-4 -0.984375 -0.3597412 -1.46875q-0.34387207 -0.46875 -1.2189331 -0.6875l0.18713379 -1.375q0.87506104 0.1875 1.4220581 0.609375q0.54693604 0.4375 0.8284302 1.25q0.2970581 0.8125 0.29736328 1.875q2.4414062E-4 1.0625 -0.24957275 1.71875q-0.2498169 0.671875 -0.62475586 0.984375q-0.37487793 0.3125 -0.9530029 0.4375q-0.35931396 0.078125 -1.296814 0.078125l-1.875 0q-1.96875 0 -2.484375 0.078125q-0.515625 0.09375 -0.99993896 0.359375l-3.6621094E-4 -1.46875q0.43743896 -0.21875 1.031189 -0.28125zm3.140625 -0.109375q-0.31274414 -0.765625 -0.53186035 -2.296875q-0.12524414 -0.875 -0.2816162 -1.234375q-0.15631104 -0.359375 -0.46887207 -0.5625q-0.29693604 -0.1875 -0.65631104 -0.1875q-0.5625 0 -0.9373779 0.421875q-0.37487793 0.4375 -0.37469482 1.25q2.4414062E-4 0.8125 0.34417725 1.4375q0.35949707 0.640625 0.98461914 0.9375q0.46881104 0.234375 1.406311 0.234375l0.515625 0zm-4.1709595 3.6015625l8.296875 0l3.0517578E-4 1.265625l-1.171875 0q1.3596191 0.90625 1.3601074 2.640625q1.8310547E-4 0.75 -0.26531982 1.375q-0.2654419 0.625 -0.70288086 0.9375q-0.43737793 0.3125 -1.0467529 0.4375q-0.39056396 0.078125 -1.359314 0.078125l-5.109375 0l-3.6621094E-4 -1.40625l5.046875 0q0.859375 0 1.281189 -0.171875q0.43743896 -0.15625 0.6873169 -0.578125q0.24993896 -0.40625 0.24975586 -0.96875q-2.4414062E-4 -0.90625 -0.5784912 -1.5625q-0.5626831 -0.640625 -2.156433 -0.640625l-4.53125 0l-3.6621094E-4 -1.40625zm0.002319336 8.8984375l8.296875 0l3.0517578E-4 1.265625l-1.171875 0q1.3596191 0.90625 1.3601074 2.640625q1.8310547E-4 0.75 -0.26531982 1.375q-0.2654419 0.625 -0.70288086 0.9375q-0.43737793 0.3125 -1.0467529 0.4375q-0.39056396 0.078125 -1.359314 0.078125l-5.109375 0l-3.6621094E-4 -1.40625l5.046875 0q0.859375 0 1.281189 -0.171875q0.43743896 -0.15625 0.6873169 -0.578125q0.24993896 -0.40625 0.24975586 -0.96875q-2.4414062E-4 -0.90625 -0.5784912 -1.5625q-0.5626831 -0.640625 -2.156433 -0.640625l-4.53125 0l-3.6621094E-4 -1.40625zm2.6756592 14.5703125l-0.17150879 1.453125q-1.281311 -0.34375 -1.9846802 -1.28125q-0.70336914 -0.921875 -0.70373535 -2.359375q-4.8828125E-4 -1.828125 1.1242065 -2.890625q1.1247559 -1.0625 3.1403809 -1.0625q2.09375 0 3.2502441 1.078125q1.1565552 1.078125 1.1569824 2.796875q4.272461E-4 1.65625 -1.1398926 2.703125q-1.1247559 1.0625 -3.1716309 1.0625q-0.125 0 -0.375 0l-0.0015869141 -6.1875q-1.375 0.078125 -2.109192 0.765625q-0.7185669 0.703125 -0.7182617 1.734375q1.8310547E-4 0.78125 0.40655518 1.328125q0.4064331 0.546875 1.2971191 0.859375zm2.2800293 -4.609375l0.0012207031 4.625q1.046875 -0.09375 1.5623779 -0.53125q0.8123169 -0.671875 0.8120117 -1.734375q-2.4414062E-4 -0.96875 -0.65667725 -1.640625q-0.6407471 -0.65625 -1.7189331 -0.71875zm-4.95105 7.8046875l11.453125 0l3.6621094E-4 1.40625l-11.453125 0l-3.6621094E-4 -1.40625zm2.4851685 3.0234375l0.21911621 1.390625q-0.84375 0.109375 -1.2967529 0.640625q-0.4373169 0.546875 -0.43707275 1.5q2.4414062E-4 0.96875 0.3909912 1.4375q0.40637207 0.46875 0.9376221 0.46875q0.46875 0 0.7498779 -0.40625q0.18743896 -0.296875 0.4683838 -1.4375q0.39019775 -1.546875 0.6713257 -2.15625q0.2966919 -0.59375 0.79663086 -0.90625q0.49993896 -0.296875 1.109314 -0.296875q0.5625 0 1.031311 0.25q0.46881104 0.25 0.7814331 0.6875q0.25006104 0.328125 0.4064331 0.890625q0.1720581 0.578125 0.17224121 1.21875q2.4414062E-4 0.984375 -0.28082275 1.71875q-0.2810669 0.734375 -0.7653198 1.078125q-0.46868896 0.359375 -1.2811279 0.5l-0.18786621 -1.375q0.64056396 -0.09375 0.9998169 -0.546875q0.35931396 -0.453125 0.35906982 -1.265625q-2.4414062E-4 -0.96875 -0.3284912 -1.390625q-0.31262207 -0.40625 -0.7344971 -0.40625q-0.28125 0 -0.49993896 0.171875q-0.21868896 0.171875 -0.37487793 0.53125q-0.078063965 0.21875 -0.3590088 1.25q-0.3902588 1.484375 -0.6557007 2.078125q-0.24987793 0.59375 -0.73413086 0.921875q-0.48431396 0.34375 -1.203064 0.34375q-0.703125 0 -1.3282471 -0.421875q-0.6094971 -0.40625 -0.9534302 -1.1875q-0.3439331 -0.765625 -0.34417725 -1.734375q-4.272461E-4 -1.625 0.6712036 -2.46875q0.6716919 -0.84375 1.9997559 -1.078125z" fill-rule="nonzero"/><path fill="#000000" fill-opacity="0.0" d="m664.6877 336.4987c6.9763794 0 10.464539 0.07086182 13.952759 0.14172363c3.4881592 0.07086182 6.9763794 0.14175415 13.952759 0.14175415" fill-rule="evenodd"/><path stroke="#ff9900" stroke-width="1.0" stroke-linejoin="round" stroke-linecap="butt" d="m664.6877 336.4987c6.9763794 0 10.464539 0.07086182 13.952759 0.14172363c3.4881592 0.07086182 6.9763794 0.14175415 13.952759 0.14175415" fill-rule="evenodd"/><path fill="#000000" fill-opacity="0.0" d="m716.3832 337.85358c25.706482 3.0131226 123.165405 -12.712158 154.23889 18.078735c31.073486 30.790894 26.835083 138.88889 32.202087 166.66669" fill-rule="evenodd"/><path stroke="#ff9900" stroke-width="1.0" stroke-linejoin="round" stroke-linecap="butt" d="m716.3832 337.85358c25.706482 3.0131226 123.165405 -12.712158 154.23889 18.078705c15.536743 15.395477 22.245483 50.117706 25.740967 84.46326c1.7476807 17.172821 2.6920776 34.251434 3.5350342 48.77298c0.42138672 7.2607727 0.8175659 13.882263 1.276001 19.55664c0.22912598 2.8371887 0.47399902 5.437561 0.7453613 7.7626953c0.067871094 0.5812988 0.1373291 1.1453247 0.2086792 1.6916504c0.035705566 0.27313232 0.071777344 0.5418091 0.1083374 0.80596924l0.03314209 0.23156738" fill-rule="evenodd"/><path fill="#ff9900" stroke="#ff9900" stroke-width="1.0" stroke-linecap="butt" d="m902.2696 519.21704l-1.291748 -0.9277954l1.6097412 2.8670654l0.6097412 -3.231018z" fill-rule="evenodd"/><path fill="#000000" fill-opacity="0.0" d="m914.5932 672.8845l0 17.165344" fill-rule="evenodd"/><path stroke="#000000" stroke-width="1.0" stroke-linejoin="round" stroke-linecap="butt" d="m914.5932 672.8845l0 17.165344" fill-rule="evenodd"/><path fill="#000000" fill-opacity="0.0" d="m1015.50134 572.21783l0 17.165344" fill-rule="evenodd"/><path stroke="#000000" stroke-width="1.0" stroke-linejoin="round" stroke-linecap="butt" d="m1015.50134 572.21783l0 17.165344" fill-rule="evenodd"/><path fill="#000000" fill-opacity="0.0" d="m914.80316 682.7113l100.50391 -100.50397" fill-rule="evenodd"/><path stroke="#000000" stroke-width="1.0" stroke-linejoin="round" stroke-linecap="butt" d="m917.22644 680.28796l95.65735 -95.65729" fill-rule="evenodd"/><path fill="#000000" stroke="#000000" stroke-width="1.0" stroke-linecap="butt" d="m917.22644 680.28796l0 -1.5903931l-1.3895874 2.9799805l2.9800415 -1.3895874z" fill-rule="evenodd"/><path fill="#000000" stroke="#000000" stroke-width="1.0" stroke-linecap="butt" d="m1012.8838 584.6307l0 1.5903931l1.3895874 -2.9799805l-2.9799805 1.3895874z" fill-rule="evenodd"/><path fill="#000000" fill-opacity="0.0" d="m919.66125 670.3556l83.62207 -83.71649l23.905518 23.905457l-83.62207 83.71655z" fill-rule="evenodd"/><path fill="#000000" d="m940.6833 677.8984q-1.6241455 -1.6240845 -1.5031128 -3.3150635q0.11004639 -1.4146118 1.1921997 -2.4979858q1.2146606 -1.2160645 2.7720947 -1.1833496q1.557373 0.010620117 2.9605713 1.4138184q1.1269531 1.1269531 1.4364624 2.121521q0.3095703 0.9945679 0.022644043 2.0113525q-0.28686523 0.994751 -1.0598145 1.7686157q-1.225708 1.2270508 -2.7720947 1.2053833q-1.557373 -0.032714844 -3.0489502 -1.524292zm1.0269165 -1.0280762q1.1269531 1.1269531 2.1763306 1.2040405q1.0603638 0.065979004 1.8001709 -0.6746826q0.73986816 -0.7406616 0.66223145 -1.7905273q-0.066589355 -1.0609741 -1.2266846 -2.2210693q-1.0827637 -1.0827637 -2.1431274 -1.1487427q-1.0493164 -0.0770874 -1.7891846 0.6635742q-0.7398071 0.7406616 -0.6732178 1.8016357q0.06652832 1.0388184 1.1934814 2.1657715zm12.418762 -6.5516357l-0.8618164 -0.8617554q0.30975342 1.6797485 -0.87176514 2.8626099q-0.51898193 0.5195923 -1.1705933 0.7739868q-0.64056396 0.24328613 -1.159729 0.16607666q-0.5302124 -0.088256836 -1.0494385 -0.4307251q-0.35351562 -0.24304199 -0.98327637 -0.87280273l-3.6350098 -3.6349487l0.99383545 -0.9949341l3.248291 3.24823q0.7844238 0.78448486 1.1047974 0.99438477q0.49713135 0.29821777 1.0162354 0.22070312q0.53015137 -0.08856201 0.9718628 -0.5307007q0.4527588 -0.45324707 0.6182251 -1.0611572q0.16552734 -0.6300049 -0.07763672 -1.1824951q-0.2321167 -0.56359863 -0.98339844 -1.3148804l-3.1378174 -3.1378174l0.99383545 -0.9949341l5.8667603 5.8668213l-0.8833618 0.8843384zm3.71521 -5.510254l1.0274658 0.74017334q-0.3312378 0.50842285 -0.6625366 0.8400879q-0.54107666 0.541687 -1.0049438 0.6744385q-0.47491455 0.1217041 -0.8725586 -0.03289795q-0.40875244 -0.16564941 -1.3036499 -1.0606079l-3.369812 -3.369812l-0.7288208 0.72961426l-0.77337646 -0.77337646l0.72875977 -0.72961426l-1.458374 -1.458435l0.39715576 -1.5915527l2.0550537 2.0550537l0.9937744 -0.9949341l0.7734375 0.77337646l-0.99383545 0.9949341l3.4250488 3.4250488q0.4309082 0.4309082 0.59661865 0.50823975q0.17675781 0.066223145 0.37554932 0.021972656q0.18774414 -0.05529785 0.40856934 -0.27642822q0.16564941 -0.16577148 0.3864746 -0.47528076zm3.1985474 3.09906l-0.7182007 -0.71813965l6.592285 -6.5997314l0.71813965 0.7182007l-6.592224 6.5996704zm6.628418 -15.457642l1.1152954 -0.8512573q0.8397827 1.1712036 0.75177 2.4090576q-0.07696533 1.2267456 -1.0375977 2.1884766q-1.2036133 1.2050171 -2.7279053 1.1612549q-1.524292 -0.06591797 -2.9937744 -1.5353394q-0.9501343 -0.9501953 -1.3480835 -1.9668579q-0.39794922 -1.0387573 -0.11102295 -2.0334473q0.2979126 -1.0057983 1.0488281 -1.7575073q0.96069336 -0.961792 2.0541382 -1.0836792q1.0823975 -0.13293457 2.1429443 0.5961914l-0.8170166 1.1054077q-0.729126 -0.4418335 -1.3807983 -0.38641357q-0.640625 0.04437256 -1.1375122 0.5418701q-0.7508545 0.751709 -0.6843262 1.7684326q0.06652832 0.9946289 1.2377319 2.1657715q1.18219 1.18219 2.1762695 1.2703247q0.98309326 0.0770874 1.711853 -0.65252686q0.5852661 -0.58587646 0.61816406 -1.326355q0.032958984 -0.76257324 -0.6189575 -1.6134033zm3.9874878 0.31939697l-8.098633 -8.098572l0.99383545 -0.9949341l2.9057617 2.9057617q-0.11090088 -1.5029907 0.9491577 -2.56427q0.6515503 -0.6522217 1.3804321 -0.8734741q0.73999023 -0.2322998 1.3917847 0.021728516q0.66278076 0.24298096 1.5245361 1.1047363l3.7233887 3.7233887l-0.99383545 0.99487305l-3.7233276 -3.7233276q-0.7402954 -0.7402344 -1.4030151 -0.762146q-0.6627197 -0.021911621 -1.2589722 0.5750122q-0.44171143 0.4421997 -0.5961914 1.0611572q-0.15447998 0.6188965 0.07763672 1.1824951q0.22106934 0.55249023 0.9061279 1.2374878l3.215088 3.215149l-0.9937744 0.9949341zm9.380005 -10.8498535q-0.07702637 1.027832 -0.3861084 1.7352295q-0.3201294 0.6963501 -0.9053345 1.2822266q-0.9717407 0.97283936 -1.9658203 1.017334q-0.9940796 0.04449463 -1.7232666 -0.6847534q-0.4309082 -0.43084717 -0.58569336 -0.98339844q-0.16583252 -0.56359863 -0.066589355 -1.0830688q0.099243164 -0.54156494 0.3862915 -1.0499878q0.2208252 -0.3758545 0.7397461 -1.0280151q1.0599976 -1.3486328 1.4353027 -2.1223145q-0.2098999 -0.20996094 -0.26513672 -0.26519775q-0.607666 -0.607666 -1.126831 -0.5743408q-0.7289429 0.04437256 -1.4798584 0.7961426q-0.6956177 0.69641113 -0.7838135 1.2932129q-0.088256836 0.57476807 0.37591553 1.3482056l-1.1043091 0.840271q-0.48620605 -0.7514038 -0.57476807 -1.4365845q-0.07751465 -0.696228 0.29779053 -1.4699097q0.3642578 -0.78479004 1.1151733 -1.536499q0.7508545 -0.75177 1.3914185 -1.0392456q0.6516113 -0.29858398 1.1376343 -0.2545166q0.4859619 0.044067383 0.98309326 0.36437988q0.30932617 0.19885254 0.97229004 0.8617554l1.3258057 1.3258667q1.3920898 1.3920898 1.8119507 1.701416q0.43084717 0.2982788 0.9610596 0.45288086l-1.0379639 1.0391235q-0.46398926 -0.15460205 -0.9279785 -0.5302124zm-2.2980347 -2.1433716q-0.3201294 0.7626343 -1.2476196 2.0007324q-0.52996826 0.70739746 -0.6734619 1.0721436q-0.14349365 0.3647461 -0.06604004 0.72943115q0.07739258 0.34259033 0.33154297 0.5967407q0.39770508 0.39770508 0.9610596 0.36444092q0.5743408 -0.04437256 1.1484985 -0.6192627q0.57421875 -0.5748291 0.77282715 -1.2600708q0.19866943 -0.70739746 -0.0335083 -1.359375q-0.16583252 -0.49725342 -0.82873535 -1.1601562l-0.364563 -0.36462402zm5.495178 0.40185547l-5.8667603 -5.8668213l0.8944092 -0.89538574l0.8286743 0.8286133q-0.32080078 -1.602417 0.9049072 -2.8294678q0.5300293 -0.53063965 1.1595459 -0.7850342q0.6295166 -0.2543335 1.159729 -0.16607666q0.5302124 0.088256836 1.0494385 0.4307251q0.3314209 0.22094727 1.0164185 0.9059448l3.612854 3.612854l-0.9937744 0.9949341l-3.5686646 -3.5686646q-0.607666 -0.607666 -1.0274658 -0.7843628q-0.4197998 -0.19885254 -0.89471436 -0.07714844q-0.4638672 0.11065674 -0.86138916 0.508667q-0.6404419 0.6411743 -0.6954346 1.5142212q-0.054992676 0.8510132 1.0719604 1.9779663l3.2041016 3.2041016l-0.99383545 0.9949341zm6.288574 -6.2957153l-5.8667603 -5.8667603l0.8944092 -0.8954468l0.8286743 0.8286133q-0.32080078 -1.602356 0.9049072 -2.8294678q0.5300293 -0.53063965 1.1595459 -0.78497314q0.6295166 -0.25439453 1.159729 -0.1661377q0.5302124 0.088256836 1.0494385 0.4307251q0.3314209 0.22094727 1.0164185 0.9059448l3.612915 3.612915l-0.99383545 0.99487305l-3.5686646 -3.5686646q-0.607666 -0.607666 -1.0274658 -0.7843628q-0.41973877 -0.1987915 -0.89471436 -0.0770874q-0.4638672 0.1105957 -0.86138916 0.50860596q-0.6404419 0.6411743 -0.6954346 1.5142822q-0.054992676 0.85095215 1.0719604 1.9779053l3.2041016 3.2041016l-0.99383545 0.9949341zm8.407654 -12.197876l1.1484985 -0.9065552q0.6630249 1.1491699 0.49768066 2.3096313q-0.15429688 1.1494141 -1.170227 2.1664429q-1.2919312 1.293457 -2.8383179 1.2496338q-1.5463257 -0.043762207 -2.9716187 -1.4689941q-1.4804688 -1.4805298 -1.5361938 -3.060913q-0.055664062 -1.5803223 1.1589966 -2.7963867q1.1704712 -1.171814 2.716858 -1.105896q1.5463867 0.043762207 2.9937744 1.4910889q0.088378906 0.088378906 0.26513672 0.26519775l-4.3727417 4.3776855q1.0274658 0.9169922 2.0325928 0.94989014q1.005188 0.0107421875 1.7339478 -0.7188721q0.552124 -0.5527344 0.6513672 -1.2269287q0.09918213 -0.67419434 -0.30975342 -1.5250244zm-4.8705444 1.6480713l3.2684937 -3.2722168q-0.8064575 -0.6739502 -1.4802856 -0.7290039q-1.0493164 -0.09918213 -1.8001709 0.6525879q-0.68463135 0.68536377 -0.6954346 1.6247559q-0.010803223 0.91729736 0.70739746 1.723877zm9.018005 -2.0194702l-8.098572 -8.098572l0.99383545 -0.9949341l8.098572 8.098572l-0.99383545 0.9949341zm0.38000488 -3.895813l0.82806396 -1.1385498q0.67388916 0.5192261 1.369751 0.46374512q0.6958618 -0.07751465 1.3694458 -0.7518921q0.68463135 -0.68536377 0.73968506 -1.2932739q0.044006348 -0.6188965 -0.33166504 -0.99450684q-0.33148193 -0.33148193 -0.81744385 -0.24291992q-0.3423462 0.07745361 -1.3473511 0.6855469q-1.3693848 0.8182373 -1.9989014 1.0504761q-0.6295166 0.21020508 -1.2039185 0.077697754q-0.5633545 -0.14349365 -0.9942627 -0.57440186q-0.3977661 -0.39770508 -0.55255127 -0.9060669q-0.15478516 -0.5083008 -0.06652832 -1.0388184q0.055114746 -0.40893555 0.34210205 -0.91741943q0.28704834 -0.5305176 0.7398071 -0.98376465q0.6956787 -0.69647217 1.4135132 -1.0171509q0.7178345 -0.32073975 1.3032837 -0.22143555q0.5854492 0.07720947 1.2593384 0.5522461l-0.8391113 1.1054077q-0.5192871 -0.3866577 -1.0936279 -0.32019043q-0.5743408 0.066467285 -1.1484985 0.6412964q-0.68463135 0.6854248 -0.75079346 1.2159424q-0.066101074 0.5083618 0.23217773 0.80670166q0.19891357 0.19885254 0.47503662 0.2319336q0.27618408 0.033081055 0.640625 -0.11071777q0.20983887 -0.099487305 1.1375122 -0.630249q1.3251953 -0.7739868 1.9326172 -1.0062256q0.59643555 -0.24334717 1.1707764 -0.1329956q0.5854492 0.0993042 1.093689 0.60754395q0.49719238 0.49719238 0.6409912 1.2376099q0.14379883 0.71832275 -0.1652832 1.5140991q-0.29797363 0.78479004 -0.982605 1.4701538q-1.1483765 1.1497192 -2.2197876 1.2716064q-1.0713501 0.12182617 -2.1760864 -0.6514282z" fill-rule="nonzero"/><path fill="#000000" fill-opacity="0.0" d="m543.3858 640.4488l0 14.897644" fill-rule="evenodd"/><path stroke="#000000" stroke-width="1.0" stroke-linejoin="round" stroke-linecap="butt" d="m543.3858 640.4488l0 14.897644" fill-rule="evenodd"/><path fill="#000000" fill-opacity="0.0" d="m633.6116 640.4488l0 14.897644" fill-rule="evenodd"/><path stroke="#000000" stroke-width="1.0" stroke-linejoin="round" stroke-linecap="butt" d="m633.6116 640.4488l0 14.897644" fill-rule="evenodd"/><path fill="#000000" fill-opacity="0.0" d="m543.5486 648.66144l89.95276 0" fill-rule="evenodd"/><path stroke="#000000" stroke-width="1.0" stroke-linejoin="round" stroke-linecap="butt" d="m546.97565 648.66144l83.09857 0" fill-rule="evenodd"/><path fill="#000000" stroke="#000000" stroke-width="1.0" stroke-linecap="butt" d="m546.97565 648.66144l1.1245728 -1.1246338l-3.0897827 1.1246338l3.0897827 1.1245728z" fill-rule="evenodd"/><path fill="#000000" stroke="#000000" stroke-width="1.0" stroke-linecap="butt" d="m630.0742 648.66144l-1.1245728 1.1245728l3.0897827 -1.1245728l-3.0897827 -1.1246338z" fill-rule="evenodd"/><path fill="#000000" fill-opacity="0.0" d="m539.0052 646.5302l107.52759 0l0 32.629883l-107.52759 0z" fill-rule="evenodd"/><path fill="#000000" d="m549.0677 670.8902l0 -11.453125l1.40625 0l0 6.53125l3.328125 -3.375l1.828125 0l-3.171875 3.078125l3.484375 5.21875l-1.734375 0l-2.734375 -4.25l-1.0 0.953125l0 3.296875l-1.40625 0zm13.671875 -2.671875l1.453125 0.171875q-0.34375 1.28125 -1.28125 1.984375q-0.921875 0.703125 -2.359375 0.703125q-1.828125 0 -2.890625 -1.125q-1.0625 -1.125 -1.0625 -3.140625q0 -2.09375 1.078125 -3.25q1.078125 -1.15625 2.796875 -1.15625q1.65625 0 2.703125 1.140625q1.0625 1.125 1.0625 3.171875q0 0.125 0 0.375l-6.1875 0q0.078125 1.375 0.765625 2.109375q0.703125 0.71875 1.734375 0.71875q0.78125 0 1.328125 -0.40625q0.546875 -0.40625 0.859375 -1.296875zm-4.609375 -2.28125l4.625 0q-0.09375 -1.046875 -0.53125 -1.5625q-0.671875 -0.8125 -1.734375 -0.8125q-0.96875 0 -1.640625 0.65625q-0.65625 0.640625 -0.71875 1.71875zm7.8203125 4.953125l0 -8.296875l1.265625 0l0 1.25q0.484375 -0.875 0.890625 -1.15625q0.40625 -0.28125 0.90625 -0.28125q0.703125 0 1.4375 0.453125l-0.484375 1.296875q-0.515625 -0.296875 -1.03125 -0.296875q-0.453125 0 -0.828125 0.28125q-0.359375 0.265625 -0.515625 0.765625q-0.234375 0.75 -0.234375 1.640625l0 4.34375l-1.40625 0zm5.34375 0l0 -8.296875l1.265625 0l0 1.171875q0.90625 -1.359375 2.640625 -1.359375q0.75 0 1.375 0.265625q0.625 0.265625 0.9375 0.703125q0.3125 0.4375 0.4375 1.046875q0.078125 0.390625 0.078125 1.359375l0 5.109375l-1.40625 0l0 -5.046875q0 -0.859375 -0.171875 -1.28125q-0.15625 -0.4375 -0.578125 -0.6875q-0.40625 -0.25 -0.96875 -0.25q-0.90625 0 -1.5625 0.578125q-0.640625 0.5625 -0.640625 2.15625l0 4.53125l-1.40625 0zm14.5703125 -2.671875l1.453125 0.171875q-0.34375 1.28125 -1.28125 1.984375q-0.921875 0.703125 -2.359375 0.703125q-1.828125 0 -2.890625 -1.125q-1.0625 -1.125 -1.0625 -3.140625q0 -2.09375 1.078125 -3.25q1.078125 -1.15625 2.796875 -1.15625q1.65625 0 2.703125 1.140625q1.0625 1.125 1.0625 3.171875q0 0.125 0 0.375l-6.1875 0q0.078125 1.375 0.765625 2.109375q0.703125 0.71875 1.734375 0.71875q0.78125 0 1.328125 -0.40625q0.546875 -0.40625 0.859375 -1.296875zm-4.609375 -2.28125l4.625 0q-0.09375 -1.046875 -0.53125 -1.5625q-0.671875 -0.8125 -1.734375 -0.8125q-0.96875 0 -1.640625 0.65625q-0.65625 0.640625 -0.71875 1.71875zm7.8046875 4.953125l0 -11.453125l1.40625 0l0 11.453125l-1.40625 0zm2.2734375 3.1875l0 -1.015625l9.328125 0l0 1.015625l-9.328125 0zm9.6484375 -5.671875l1.390625 -0.21875q0.109375 0.84375 0.640625 1.296875q0.546875 0.4375 1.5 0.4375q0.96875 0 1.4375 -0.390625q0.46875 -0.40625 0.46875 -0.9375q0 -0.46875 -0.40625 -0.75q-0.296875 -0.1875 -1.4375 -0.46875q-1.546875 -0.390625 -2.15625 -0.671875q-0.59375 -0.296875 -0.90625 -0.796875q-0.296875 -0.5 -0.296875 -1.109375q0 -0.5625 0.25 -1.03125q0.25 -0.46875 0.6875 -0.78125q0.328125 -0.25 0.890625 -0.40625q0.578125 -0.171875 1.21875 -0.171875q0.984375 0 1.71875 0.28125q0.734375 0.28125 1.078125 0.765625q0.359375 0.46875 0.5 1.28125l-1.375 0.1875q-0.09375 -0.640625 -0.546875 -1.0q-0.453125 -0.359375 -1.265625 -0.359375q-0.96875 0 -1.390625 0.328125q-0.40625 0.3125 -0.40625 0.734375q0 0.28125 0.171875 0.5q0.171875 0.21875 0.53125 0.375q0.21875 0.078125 1.25 0.359375q1.484375 0.390625 2.078125 0.65625q0.59375 0.25 0.921875 0.734375q0.34375 0.484375 0.34375 1.203125q0 0.703125 -0.421875 1.328125q-0.40625 0.609375 -1.1875 0.953125q-0.765625 0.34375 -1.734375 0.34375q-1.625 0 -2.46875 -0.671875q-0.84375 -0.671875 -1.078125 -2.0zm8.5625 -7.359375l0 -1.609375l1.40625 0l0 1.609375l-1.40625 0zm0 9.84375l0 -8.296875l1.40625 0l0 8.296875l-1.40625 0zm2.8046875 0l0 -1.140625l5.28125 -6.0625q-0.890625 0.046875 -1.578125 0.046875l-3.390625 0l0 -1.140625l6.78125 0l0 0.921875l-4.484375 5.265625l-0.875 0.96875q0.953125 -0.078125 1.78125 -0.078125l3.828125 0l0 1.21875l-7.34375 0zm14.421875 -2.671875l1.453125 0.171875q-0.34375 1.28125 -1.28125 1.984375q-0.921875 0.703125 -2.359375 0.703125q-1.828125 0 -2.890625 -1.125q-1.0625 -1.125 -1.0625 -3.140625q0 -2.09375 1.078125 -3.25q1.078125 -1.15625 2.796875 -1.15625q1.65625 0 2.703125 1.140625q1.0625 1.125 1.0625 3.171875q0 0.125 0 0.375l-6.1875 0q0.078125 1.375 0.765625 2.109375q0.703125 0.71875 1.734375 0.71875q0.78125 0 1.328125 -0.40625q0.546875 -0.40625 0.859375 -1.296875zm-4.609375 -2.28125l4.625 0q-0.09375 -1.046875 -0.53125 -1.5625q-0.671875 -0.8125 -1.734375 -0.8125q-0.96875 0 -1.640625 0.65625q-0.65625 0.640625 -0.71875 1.71875z" fill-rule="nonzero"/><path fill="#000000" fill-opacity="0.0" d="m543.6772 545.5171l-12.629944 0" fill-rule="evenodd"/><path stroke="#000000" stroke-width="1.0" stroke-linejoin="round" stroke-linecap="butt" d="m543.6772 545.5171l-12.629944 0" fill-rule="evenodd"/><path fill="#000000" fill-opacity="0.0" d="m543.6772 640.4488l-12.629944 0" fill-rule="evenodd"/><path stroke="#000000" stroke-width="1.0" stroke-linejoin="round" stroke-linecap="butt" d="m543.6772 640.4488l-12.629944 0" fill-rule="evenodd"/><path fill="#000000" fill-opacity="0.0" d="m536.78217 545.5171l0 94.70862" fill-rule="evenodd"/><path stroke="#000000" stroke-width="1.0" stroke-linejoin="round" stroke-linecap="butt" d="m536.78217 548.94415l0 87.85449" fill-rule="evenodd"/><path fill="#000000" stroke="#000000" stroke-width="1.0" stroke-linecap="butt" d="m536.78217 548.94415l1.1245728 1.1245728l-1.1245728 -3.0897827l-1.1245728 3.0897827z" fill-rule="evenodd"/><path fill="#000000" stroke="#000000" stroke-width="1.0" stroke-linecap="butt" d="m536.78217 636.79865l-1.1245728 -1.1245728l1.1245728 3.0897217l1.1245728 -3.0897217z" fill-rule="evenodd"/><path fill="#000000" fill-opacity="0.0" d="m500.51703 642.07874l0 -107.52753l32.629883 0l0 107.52753z" fill-rule="evenodd"/><path fill="#000000" d="m524.877 632.01624l-11.453125 0l0 -1.40625l6.53125 0l-3.375 -3.328125l0 -1.828125l3.078125 3.171875l5.21875 -3.484375l0 1.734375l-4.25 2.734375l0.953125 1.0l3.296875 0l0 1.40625zm-2.671875 -13.671875l0.171875 -1.453125q1.28125 0.34375 1.984375 1.28125q0.703125 0.921875 0.703125 2.359375q0 1.828125 -1.125 2.890625q-1.125 1.0625 -3.140625 1.0625q-2.09375 0 -3.25 -1.078125q-1.15625 -1.078125 -1.15625 -2.796875q0 -1.65625 1.140625 -2.703125q1.125 -1.0625 3.171875 -1.0625q0.125 0 0.375 0l0 6.1875q1.375 -0.078125 2.109375 -0.765625q0.71875 -0.703125 0.71875 -1.734375q0 -0.78125 -0.40625 -1.328125q-0.40625 -0.546875 -1.296875 -0.859375zm-2.28125 4.609375l0 -4.625q-1.046875 0.09375 -1.5625 0.53125q-0.8125 0.671875 -0.8125 1.734375q0 0.96875 0.65625 1.640625q0.640625 0.65625 1.71875 0.71875zm4.953125 -7.8203125l-8.296875 0l0 -1.265625l1.25 0q-0.875 -0.484375 -1.15625 -0.890625q-0.28125 -0.40625 -0.28125 -0.90625q0 -0.703125 0.453125 -1.4375l1.296875 0.484375q-0.296875 0.515625 -0.296875 1.03125q0 0.453125 0.28125 0.828125q0.265625 0.359375 0.765625 0.515625q0.75 0.234375 1.640625 0.234375l4.34375 0l0 1.40625zm0 -5.34375l-8.296875 0l0 -1.265625l1.171875 0q-1.359375 -0.90625 -1.359375 -2.640625q0 -0.75 0.265625 -1.375q0.265625 -0.625 0.703125 -0.9375q0.4375 -0.3125 1.046875 -0.4375q0.390625 -0.078125 1.359375 -0.078125l5.109375 0l0 1.40625l-5.046875 0q-0.859375 0 -1.28125 0.171875q-0.4375 0.15625 -0.6875 0.578125q-0.25 0.40625 -0.25 0.96875q0 0.90625 0.578125 1.5625q0.5625 0.640625 2.15625 0.640625l4.53125 0l0 1.40625zm-2.671875 -14.5703125l0.171875 -1.453125q1.28125 0.34375 1.984375 1.28125q0.703125 0.921875 0.703125 2.359375q0 1.828125 -1.125 2.890625q-1.125 1.0625 -3.140625 1.0625q-2.09375 0 -3.25 -1.078125q-1.15625 -1.078125 -1.15625 -2.796875q0 -1.65625 1.140625 -2.703125q1.125 -1.0625 3.171875 -1.0625q0.125 0 0.375 0l0 6.1875q1.375 -0.078125 2.109375 -0.765625q0.71875 -0.703125 0.71875 -1.734375q0 -0.78125 -0.40625 -1.328125q-0.40625 -0.546875 -1.296875 -0.859375zm-2.28125 4.609375l0 -4.625q-1.046875 0.09375 -1.5625 0.53125q-0.8125 0.671875 -0.8125 1.734375q0 0.96875 0.65625 1.640625q0.640625 0.65625 1.71875 0.71875zm4.953125 -7.8046875l-11.453125 0l0 -1.40625l11.453125 0l0 1.40625zm3.1875 -2.2734375l-1.015625 0l0 -9.328125l1.015625 0l0 9.328125zm-5.671875 -9.6484375l-0.21875 -1.390625q0.84375 -0.109375 1.296875 -0.640625q0.4375 -0.546875 0.4375 -1.5q0 -0.96875 -0.390625 -1.4375q-0.40625 -0.46875 -0.9375 -0.46875q-0.46875 0 -0.75 0.40625q-0.1875 0.296875 -0.46875 1.4375q-0.390625 1.546875 -0.671875 2.15625q-0.296875 0.59375 -0.796875 0.90625q-0.5 0.296875 -1.109375 0.296875q-0.5625 0 -1.03125 -0.25q-0.46875 -0.25 -0.78125 -0.6875q-0.25 -0.328125 -0.40625 -0.890625q-0.171875 -0.578125 -0.171875 -1.21875q0 -0.984375 0.28125 -1.71875q0.28125 -0.734375 0.765625 -1.078125q0.46875 -0.359375 1.28125 -0.5l0.1875 1.375q-0.640625 0.09375 -1.0 0.546875q-0.359375 0.453125 -0.359375 1.265625q0 0.96875 0.328125 1.390625q0.3125 0.40625 0.734375 0.40625q0.28125 0 0.5 -0.171875q0.21875 -0.171875 0.375 -0.53125q0.078125 -0.21875 0.359375 -1.25q0.390625 -1.484375 0.65625 -2.078125q0.25 -0.59375 0.734375 -0.921875q0.484375 -0.34375 1.203125 -0.34375q0.703125 0 1.328125 0.421875q0.609375 0.40625 0.953125 1.1875q0.34375 0.765625 0.34375 1.734375q0 1.625 -0.671875 2.46875q-0.671875 0.84375 -2.0 1.078125zm-7.359375 -8.5625l-1.609375 0l0 -1.40625l1.609375 0l0 1.40625zm9.84375 0l-8.296875 0l0 -1.40625l8.296875 0l0 1.40625zm0 -2.8046875l-1.140625 0l-6.0625 -5.28125q0.046875 0.890625 0.046875 1.578125l0 3.390625l-1.140625 0l0 -6.78125l0.921875 0l5.265625 4.484375l0.96875 0.875q-0.078125 -0.953125 -0.078125 -1.78125l0 -3.828125l1.21875 0l0 7.34375zm-2.671875 -14.421875l0.171875 -1.453125q1.28125 0.34375 1.984375 1.28125q0.703125 0.921875 0.703125 2.359375q0 1.828125 -1.125 2.890625q-1.125 1.0625 -3.140625 1.0625q-2.09375 0 -3.25 -1.078125q-1.15625 -1.078125 -1.15625 -2.796875q0 -1.65625 1.140625 -2.703125q1.125 -1.0625 3.171875 -1.0625q0.125 0 0.375 0l0 6.1875q1.375 -0.078125 2.109375 -0.765625q0.71875 -0.703125 0.71875 -1.734375q0 -0.78125 -0.40625 -1.328125q-0.40625 -0.546875 -1.296875 -0.859375zm-2.28125 4.609375l0 -4.625q-1.046875 0.09375 -1.5625 0.53125q-0.8125 0.671875 -0.8125 1.734375q0 0.96875 0.65625 1.640625q0.640625 0.65625 1.71875 0.71875z" fill-rule="nonzero"/><path fill="#000000" fill-opacity="0.0" d="m475.60367 593.1819c11.1250305 -17.923828 47.170563 -97.78259 66.75015 -107.54291c19.579529 -9.760315 42.272705 40.817566 50.727234 48.98108" fill-rule="evenodd"/><path stroke="#000000" stroke-width="1.0" stroke-linejoin="round" stroke-linecap="butt" d="m475.60367 593.1819c11.125061 -17.923828 47.170563 -97.78259 66.75015 -107.54291c9.789734 -4.8801575 20.357971 5.3242493 29.535461 17.769073c4.588806 6.2224426 8.829895 13.005035 12.4522705 18.742157c1.8111572 2.8685913 3.4676514 5.47583 4.935486 7.6210327c0.3670044 0.5363159 0.72216797 1.0437012 1.0650024 1.519104c0.17144775 0.23773193 0.3397827 0.46746826 0.5050049 0.6887207l0.01928711 0.025634766" fill-rule="evenodd"/><path fill="#000000" stroke="#000000" stroke-width="1.0" stroke-linecap="butt" d="m590.86633 532.0047l-1.5849609 -0.13153076l2.8549194 1.6312256l-1.1384277 -3.0846558z" fill-rule="evenodd"/><path fill="#000000" fill-opacity="0.0" d="m809.50397 672.8845l0 17.165344" fill-rule="evenodd"/><path stroke="#000000" stroke-width="1.0" stroke-linejoin="round" stroke-linecap="butt" d="m809.50397 672.8845l0 17.165344" fill-rule="evenodd"/><path fill="#000000" fill-opacity="0.0" d="m809.71655 682.7113l104.66138 0" fill-rule="evenodd"/><path stroke="#000000" stroke-width="1.0" stroke-linejoin="round" stroke-linecap="butt" d="m813.1436 682.7113l97.80725 0" fill-rule="evenodd"/><path fill="#000000" stroke="#000000" stroke-width="1.0" stroke-linecap="butt" d="m813.1436 682.7113l1.1245728 -1.1245728l-3.0897217 1.1245728l3.0897217 1.1245728z" fill-rule="evenodd"/><path fill="#000000" stroke="#000000" stroke-width="1.0" stroke-linecap="butt" d="m910.95087 682.7113l-1.1245728 1.1245728l3.0897827 -1.1245728l-3.0897827 -1.1245728z" fill-rule="evenodd"/><path fill="#000000" fill-opacity="0.0" d="m822.77295 675.35956l78.55121 0l0 31.149658l-78.55121 0z" fill-rule="evenodd"/><path fill="#000000" d="m835.5386 702.2796l-3.53125 -13.359375l1.8125 0l2.03125 8.765625q0.328125 1.375 0.5625 2.71875q0.5 -2.140625 0.59375 -2.46875l2.546875 -9.015625l2.125 0l1.921875 6.765625q0.71875 2.515625 1.03125 4.71875q0.265625 -1.265625 0.671875 -2.890625l2.09375 -8.59375l1.78125 0l-3.671875 13.359375l-1.703125 0l-2.8125 -10.171875q-0.359375 -1.28125 -0.421875 -1.5625q-0.203125 0.90625 -0.390625 1.5625l-2.828125 10.171875l-1.8125 0zm13.561829 3.703125l0 -1.1875l10.859375 0l0 1.1875l-10.859375 0zm11.281921 -8.546875q0 -2.6875 1.484375 -3.96875q1.25 -1.078125 3.046875 -1.078125q2.0 0 3.265625 1.3125q1.265625 1.296875 1.265625 3.609375q0 1.859375 -0.5625 2.9375q-0.5625 1.0625 -1.640625 1.65625q-1.0625 0.59375 -2.328125 0.59375q-2.03125 0 -3.28125 -1.296875q-1.25 -1.3125 -1.25 -3.765625zm1.6875 0q0 1.859375 0.796875 2.796875q0.8125 0.921875 2.046875 0.921875q1.21875 0 2.03125 -0.921875q0.8125 -0.9375 0.8125 -2.84375q0 -1.796875 -0.8125 -2.71875q-0.8125 -0.921875 -2.03125 -0.921875q-1.234375 0 -2.046875 0.921875q-0.796875 0.90625 -0.796875 2.765625zm15.625732 4.84375l0 -1.421875q-1.125 1.640625 -3.0625 1.640625q-0.859375 0 -1.609375 -0.328125q-0.734375 -0.328125 -1.09375 -0.828125q-0.359375 -0.5 -0.5 -1.21875q-0.109375 -0.46875 -0.109375 -1.53125l0 -5.984375l1.640625 0l0 5.359375q0 1.28125 0.109375 1.734375q0.15625 0.640625 0.65625 1.015625q0.5 0.375 1.234375 0.375q0.734375 0 1.375 -0.375q0.65625 -0.390625 0.921875 -1.03125q0.265625 -0.65625 0.265625 -1.890625l0 -5.1875l1.640625 0l0 9.671875l-1.46875 0zm7.6257324 -1.46875l0.234375 1.453125q-0.6875 0.140625 -1.234375 0.140625q-0.890625 0 -1.390625 -0.28125q-0.484375 -0.28125 -0.6875 -0.734375q-0.203125 -0.46875 -0.203125 -1.9375l0 -5.578125l-1.203125 0l0 -1.265625l1.203125 0l0 -2.390625l1.625 -0.984375l0 3.375l1.65625 0l0 1.265625l-1.65625 0l0 5.671875q0 0.6875 0.078125 0.890625q0.09375 0.203125 0.28125 0.328125q0.203125 0.109375 0.578125 0.109375q0.265625 0 0.71875 -0.0625z" fill-rule="nonzero"/><path fill="#000000" fill-opacity="0.0" d="m810.1076 672.9239l-15.149597 0" fill-rule="evenodd"/><path stroke="#000000" stroke-width="1.0" stroke-linejoin="round" stroke-linecap="butt" d="m810.1076 672.9239l-15.149597 0" fill-rule="evenodd"/><path fill="#000000" fill-opacity="0.0" d="m810.1076 561.1063l-15.149597 0" fill-rule="evenodd"/><path stroke="#000000" stroke-width="1.0" stroke-linejoin="round" stroke-linecap="butt" d="m810.1076 561.1063l-15.149597 0" fill-rule="evenodd"/><path fill="#000000" fill-opacity="0.0" d="m802.16534 561.3727l0 111.55908" fill-rule="evenodd"/><path stroke="#000000" stroke-width="1.0" stroke-linejoin="round" stroke-linecap="butt" d="m802.16534 564.7998l0 104.704895" fill-rule="evenodd"/><path fill="#000000" stroke="#000000" stroke-width="1.0" stroke-linecap="butt" d="m802.16534 564.7998l1.1245728 1.1245728l-1.1245728 -3.0897827l-1.1245728 3.0897827z" fill-rule="evenodd"/><path fill="#000000" stroke="#000000" stroke-width="1.0" stroke-linecap="butt" d="m802.16534 669.5047l-1.1245728 -1.1246338l1.1245728 3.0897827l1.1245728 -3.0897827z" fill-rule="evenodd"/><path fill="#000000" fill-opacity="0.0" d="m765.0932 650.76904l0 -78.55121l31.149597 0l0 78.55121z" fill-rule="evenodd"/><path fill="#000000" d="m792.0132 640.26904l-13.359375 0l0 -1.765625l5.484375 0l0 -6.9375l-5.484375 0l0 -1.765625l13.359375 0l0 1.765625l-6.296875 0l0 6.9375l6.296875 0l0 1.765625zm3.703125 -11.691711l-1.1875 0l0 -10.859375l1.1875 0l0 10.859375zm-8.546875 -11.281982q-2.6875 0 -3.96875 -1.484375q-1.078125 -1.25 -1.078125 -3.046875q0 -2.0 1.3125 -3.265625q1.296875 -1.265625 3.609375 -1.265625q1.859375 0 2.9375 0.5625q1.0625 0.5625 1.65625 1.640625q0.59375 1.0625 0.59375 2.328125q0 2.03125 -1.296875 3.28125q-1.3125 1.25 -3.765625 1.25zm0 -1.6875q1.859375 0 2.796875 -0.796875q0.921875 -0.8125 0.921875 -2.046875q0 -1.21875 -0.921875 -2.03125q-0.9375 -0.8125 -2.84375 -0.8125q-1.796875 0 -2.71875 0.8125q-0.921875 0.8125 -0.921875 2.03125q0 1.234375 0.921875 2.046875q0.90625 0.796875 2.765625 0.796875zm4.84375 -15.625671l-1.421875 0q1.640625 1.125 1.640625 3.0625q0 0.859375 -0.328125 1.609375q-0.328125 0.734375 -0.828125 1.09375q-0.5 0.359375 -1.21875 0.5q-0.46875 0.109375 -1.53125 0.109375l-5.984375 0l0 -1.640625l5.359375 0q1.28125 0 1.734375 -0.109375q0.640625 -0.15625 1.015625 -0.65625q0.375 -0.5 0.375 -1.234375q0 -0.734375 -0.375 -1.375q-0.390625 -0.65625 -1.03125 -0.921875q-0.65625 -0.265625 -1.890625 -0.265625l-5.1875 0l0 -1.640625l9.671875 0l0 1.46875zm-1.46875 -7.6257324l1.453125 -0.234375q0.140625 0.6875 0.140625 1.234375q0 0.890625 -0.28125 1.390625q-0.28125 0.484375 -0.734375 0.6875q-0.46875 0.203125 -1.9375 0.203125l-5.578125 0l0 1.203125l-1.265625 0l0 -1.203125l-2.390625 0l-0.984375 -1.625l3.375 0l0 -1.65625l1.265625 0l0 1.65625l5.671875 0q0.6875 0 0.890625 -0.078125q0.203125 -0.09375 0.328125 -0.28125q0.109375 -0.203125 0.109375 -0.578125q0 -0.265625 -0.0625 -0.71875z" fill-rule="nonzero"/><path fill="#000000" fill-opacity="0.0" d="m543.5853 132.40158l-11.685059 0" fill-rule="evenodd"/><path stroke="#000000" stroke-width="1.0" stroke-linejoin="round" stroke-linecap="butt" d="m543.5853 132.40158l-11.685059 0" fill-rule="evenodd"/><path fill="#000000" fill-opacity="0.0" d="m570.1102 105.88976l-11.685059 0" fill-rule="evenodd"/><path stroke="#000000" stroke-width="1.0" stroke-linejoin="round" stroke-linecap="butt" d="m570.1102 105.88976l-11.685059 0" fill-rule="evenodd"/><path fill="#000000" fill-opacity="0.0" d="m563.1575 105.92126l-26.236206 26.236229" fill-rule="evenodd"/><path stroke="#000000" stroke-width="1.0" stroke-linejoin="round" stroke-linecap="butt" d="m560.7342 108.34458l-21.389648 21.38958" fill-rule="evenodd"/><path fill="#000000" stroke="#000000" stroke-width="1.0" stroke-linecap="butt" d="m560.7342 108.344574l0 1.5904007l1.3895874 -2.9799957l-2.9800415 1.389595z" fill-rule="evenodd"/><path fill="#000000" stroke="#000000" stroke-width="1.0" stroke-linecap="butt" d="m539.3446 129.73416l0 -1.5903931l-1.3896484 2.9799957l2.9800415 -1.3896027z" fill-rule="evenodd"/><path fill="#000000" fill-opacity="0.0" d="m432.51367 57.847237l115.811035 0l0 32.62992l-115.811035 0z" fill-rule="evenodd"/><path fill="#000000" d="m442.57617 72.36349l0 -1.609375l1.40625 0l0 1.609375l-1.40625 0zm0 9.84375l0 -8.296875l1.40625 0l0 8.296875l-1.40625 0zm3.5546875 0l0 -8.296875l1.265625 0l0 1.171875q0.90625 -1.359375 2.640625 -1.359375q0.75 0 1.375 0.265625q0.625 0.265625 0.9375 0.703125q0.3125 0.4375 0.4375 1.046875q0.078125 0.390625 0.078125 1.359375l0 5.109375l-1.40625 0l0 -5.046875q0 -0.859375 -0.171875 -1.28125q-0.15625 -0.4375 -0.578125 -0.6875q-0.40625 -0.25 -0.96875 -0.25q-0.90625 0 -1.5625 0.578125q-0.640625 0.5625 -0.640625 2.15625l0 4.53125l-1.40625 0zm7.5859375 3.1875l0 -1.015625l9.328125 0l0 1.015625l-9.328125 0zm15.6171875 -6.234375l1.390625 0.1875q-0.234375 1.421875 -1.171875 2.234375q-0.921875 0.8125 -2.28125 0.8125q-1.703125 0 -2.75 -1.109375q-1.03125 -1.125 -1.03125 -3.203125q0 -1.34375 0.4375 -2.34375q0.453125 -1.015625 1.359375 -1.515625q0.921875 -0.5 1.984375 -0.5q1.359375 0 2.21875 0.6875q0.859375 0.671875 1.09375 1.9375l-1.359375 0.203125q-0.203125 -0.828125 -0.703125 -1.25q-0.484375 -0.421875 -1.1875 -0.421875q-1.0625 0 -1.734375 0.765625q-0.65625 0.75 -0.65625 2.40625q0 1.671875 0.640625 2.4375q0.640625 0.75 1.671875 0.75q0.828125 0 1.375 -0.5q0.5625 -0.515625 0.703125 -1.578125zm2.59375 3.046875l0 -11.453125l1.40625 0l0 4.109375q0.984375 -1.140625 2.484375 -1.140625q0.921875 0 1.59375 0.359375q0.6875 0.359375 0.96875 1.0q0.296875 0.640625 0.296875 1.859375l0 5.265625l-1.40625 0l0 -5.265625q0 -1.046875 -0.453125 -1.53125q-0.453125 -0.484375 -1.296875 -0.484375q-0.625 0 -1.171875 0.328125q-0.546875 0.328125 -0.78125 0.890625q-0.234375 0.546875 -0.234375 1.515625l0 4.546875l-1.40625 0zm14.3046875 -1.03125q-0.78125 0.671875 -1.5 0.953125q-0.71875 0.265625 -1.546875 0.265625q-1.375 0 -2.109375 -0.671875q-0.734375 -0.671875 -0.734375 -1.703125q0 -0.609375 0.28125 -1.109375q0.28125 -0.515625 0.71875 -0.8125q0.453125 -0.3125 1.015625 -0.46875q0.421875 -0.109375 1.25 -0.203125q1.703125 -0.203125 2.515625 -0.484375q0 -0.296875 0 -0.375q0 -0.859375 -0.390625 -1.203125q-0.546875 -0.484375 -1.609375 -0.484375q-0.984375 0 -1.46875 0.359375q-0.46875 0.34375 -0.6875 1.21875l-1.375 -0.1875q0.1875 -0.875 0.609375 -1.421875q0.4375 -0.546875 1.25 -0.828125q0.8125 -0.296875 1.875 -0.296875q1.0625 0 1.71875 0.25q0.671875 0.25 0.984375 0.625q0.3125 0.375 0.4375 0.953125q0.078125 0.359375 0.078125 1.296875l0 1.875q0 1.96875 0.078125 2.484375q0.09375 0.515625 0.359375 1.0l-1.46875 0q-0.21875 -0.4375 -0.28125 -1.03125zm-0.109375 -3.140625q-0.765625 0.3125 -2.296875 0.53125q-0.875 0.125 -1.234375 0.28125q-0.359375 0.15625 -0.5625 0.46875q-0.1875 0.296875 -0.1875 0.65625q0 0.5625 0.421875 0.9375q0.4375 0.375 1.25 0.375q0.8125 0 1.4375 -0.34375q0.640625 -0.359375 0.9375 -0.984375q0.234375 -0.46875 0.234375 -1.40625l0 -0.515625zm3.6015625 4.171875l0 -8.296875l1.265625 0l0 1.171875q0.90625 -1.359375 2.640625 -1.359375q0.75 0 1.375 0.265625q0.625 0.265625 0.9375 0.703125q0.3125 0.4375 0.4375 1.046875q0.078125 0.390625 0.078125 1.359375l0 5.109375l-1.40625 0l0 -5.046875q0 -0.859375 -0.171875 -1.28125q-0.15625 -0.4375 -0.578125 -0.6875q-0.40625 -0.25 -0.96875 -0.25q-0.90625 0 -1.5625 0.578125q-0.640625 0.5625 -0.640625 2.15625l0 4.53125l-1.40625 0zm8.8984375 0l0 -8.296875l1.265625 0l0 1.171875q0.90625 -1.359375 2.640625 -1.359375q0.75 0 1.375 0.265625q0.625 0.265625 0.9375 0.703125q0.3125 0.4375 0.4375 1.046875q0.078125 0.390625 0.078125 1.359375l0 5.109375l-1.40625 0l0 -5.046875q0 -0.859375 -0.171875 -1.28125q-0.15625 -0.4375 -0.578125 -0.6875q-0.40625 -0.25 -0.96875 -0.25q-0.90625 0 -1.5625 0.578125q-0.640625 0.5625 -0.640625 2.15625l0 4.53125l-1.40625 0zm14.5703125 -2.671875l1.453125 0.171875q-0.34375 1.28125 -1.28125 1.984375q-0.921875 0.703125 -2.359375 0.703125q-1.828125 0 -2.890625 -1.125q-1.0625 -1.125 -1.0625 -3.140625q0 -2.09375 1.078125 -3.25q1.078125 -1.15625 2.796875 -1.15625q1.65625 0 2.703125 1.140625q1.0625 1.125 1.0625 3.171875q0 0.125 0 0.375l-6.1875 0q0.078125 1.375 0.765625 2.109375q0.703125 0.71875 1.734375 0.71875q0.78125 0 1.328125 -0.40625q0.546875 -0.40625 0.859375 -1.296875zm-4.609375 -2.28125l4.625 0q-0.09375 -1.046875 -0.53125 -1.5625q-0.671875 -0.8125 -1.734375 -0.8125q-0.96875 0 -1.640625 0.65625q-0.65625 0.640625 -0.71875 1.71875zm7.8046875 4.953125l0 -11.453125l1.40625 0l0 11.453125l-1.40625 0zm3.0234375 -2.484375l1.390625 -0.21875q0.109375 0.84375 0.640625 1.296875q0.546875 0.4375 1.5 0.4375q0.96875 0 1.4375 -0.390625q0.46875 -0.40625 0.46875 -0.9375q0 -0.46875 -0.40625 -0.75q-0.296875 -0.1875 -1.4375 -0.46875q-1.546875 -0.390625 -2.15625 -0.671875q-0.59375 -0.296875 -0.90625 -0.796875q-0.296875 -0.5 -0.296875 -1.109375q0 -0.5625 0.25 -1.03125q0.25 -0.46875 0.6875 -0.78125q0.328125 -0.25 0.890625 -0.40625q0.578125 -0.171875 1.21875 -0.171875q0.984375 0 1.71875 0.28125q0.734375 0.28125 1.078125 0.765625q0.359375 0.46875 0.5 1.28125l-1.375 0.1875q-0.09375 -0.640625 -0.546875 -1.0q-0.453125 -0.359375 -1.265625 -0.359375q-0.96875 0 -1.390625 0.328125q-0.40625 0.3125 -0.40625 0.734375q0 0.28125 0.171875 0.5q0.171875 0.21875 0.53125 0.375q0.21875 0.078125 1.25 0.359375q1.484375 0.390625 2.078125 0.65625q0.59375 0.25 0.921875 0.734375q0.34375 0.484375 0.34375 1.203125q0 0.703125 -0.421875 1.328125q-0.40625 0.609375 -1.1875 0.953125q-0.765625 0.34375 -1.734375 0.34375q-1.625 0 -2.46875 -0.671875q-0.84375 -0.671875 -1.078125 -2.0z" fill-rule="nonzero"/><path fill="#000000" fill-opacity="0.0" d="m475.95956 87.98163c0.16055298 3.5253677 -11.536743 16.1846 0.96325684 21.15223c12.5 4.9676285 61.697296 7.2112885 74.03677 8.653542" fill-rule="evenodd"/><path stroke="#000000" stroke-width="1.0" stroke-linejoin="round" stroke-linecap="butt" d="m475.95956 87.98163c0.16055298 3.5253754 -11.536743 16.1846 0.96325684 21.15223c6.25 2.4838257 21.674347 4.286644 37.078583 5.6487885c7.7021484 0.6810684 15.399231 1.251976 21.942017 1.7427597c3.2713623 0.24538422 6.2542114 0.4707489 8.80481 0.67983246c0.6376343 0.052268982 1.248291 0.103523254 1.8296509 0.1538086l0.9716797 0.08698273" fill-rule="evenodd"/><path fill="#000000" stroke="#000000" stroke-width="1.0" stroke-linecap="butt" d="m547.5495 117.44603l-1.2310181 1.0069733l3.1864624 -0.81121826l-2.9624023 -1.4267654z" fill-rule="evenodd"/></g></svg>