<svg version="1.1" viewBox="0.0 0.0 961.2677165354331 622.5354330708661" fill="none" stroke="none" stroke-linecap="square" stroke-miterlimit="10" xmlns:xlink="http://www.w3.org/1999/xlink" xmlns="http://www.w3.org/2000/svg"><clipPath id="p.0"><path d="m0 0l961.2677 0l0 622.53546l-961.2677 0l0 -622.53546z" clip-rule="nonzero"/></clipPath><g clip-path="url(#p.0)"><path fill="#ffffff" d="m0 0l961.2677 0l0 622.53546l-961.2677 0z" fill-rule="evenodd"/><path fill="#000000" fill-opacity="0.0" d="m63.88714 161.33104l0 0c0 -2.6378937 2.138443 -4.7763367 4.7763443 -4.7763367l110.28984 0c1.2667542 0 2.4816437 0.5032196 3.3773804 1.3989563c0.8957367 0.8957367 1.3989563 2.110611 1.3989563 3.3773804l0 35.927628c0 2.637909 -2.138443 4.776352 -4.7763367 4.776352l-110.28984 0c-2.6379013 0 -4.7763443 -2.138443 -4.7763443 -4.776352z" fill-rule="evenodd"/><path fill="#000000" fill-opacity="0.0" d="m68.66348 202.03502c-2.6379013 0 -4.7763443 -2.138443 -4.7763443 -4.776352l0 -35.927628l0 0c0 -2.6378937 2.138443 -4.7763367 4.7763443 -4.7763367m110.28984 0c1.2667542 0 2.4816437 0.5032196 3.3773804 1.3989563c0.8957367 0.8957367 1.3989563 2.110611 1.3989563 3.3773804l0 35.927628c0 2.637909 -2.138443 4.776352 -4.7763367 4.776352" fill-rule="evenodd"/><path stroke="#000000" stroke-width="1.7191601049868765" stroke-linejoin="round" stroke-linecap="butt" d="m68.66348 202.03502c-2.6379013 0 -4.7763443 -2.138443 -4.7763443 -4.776352l0 -35.927628l0 0c0 -2.6378937 2.138443 -4.7763367 4.7763443 -4.7763367m110.28984 0c1.2667542 0 2.4816437 0.5032196 3.3773804 1.3989563c0.8957367 0.8957367 1.3989563 2.110611 1.3989563 3.3773804l0 35.927628c0 2.637909 -2.138443 4.776352 -4.7763367 4.776352" fill-rule="evenodd"/><path fill="#000000" fill-opacity="0.0" d="m64.38803 214.89732l119.33858 0" fill-rule="evenodd"/><path stroke="#000000" stroke-width="1.7191601049868765" stroke-linejoin="round" stroke-linecap="butt" d="m70.27974 214.89732l107.555145 0" fill-rule="evenodd"/><path fill="#000000" stroke="#000000" stroke-width="1.7191601049868765" stroke-linecap="butt" d="m70.27974 214.89732l1.933342 -1.9333344l-5.3118057 1.9333344l5.3118057 1.9333496z" fill-rule="evenodd"/><path fill="#000000" stroke="#000000" stroke-width="1.7191601049868765" stroke-linecap="butt" d="m177.8349 214.89732l-1.9333496 1.9333496l5.3118134 -1.9333496l-5.3118134 -1.9333344z" fill-rule="evenodd"/><path fill="#000000" d="m208.43369 171.37785l33.955856 0l0 4.3780518l-33.955856 0zm0 11.448456l33.955856 0l0 4.3780518l-33.955856 0z" fill-rule="evenodd"/><path stroke="#000000" stroke-width="1.7191601049868765" stroke-linejoin="round" stroke-linecap="butt" d="m208.43369 171.37785l33.955856 0l0 4.3780518l-33.955856 0zm0 11.448456l33.955856 0l0 4.3780518l-33.955856 0z" fill-rule="evenodd"/><path fill="#000000" fill-opacity="0.0" d="m594.1733 81.22848l0 0c0 -6.921753 5.611206 -12.532936 12.532898 -12.532936l94.272766 0c3.3239136 0 6.5117188 1.320427 8.862122 3.670807c2.3503418 2.3503876 3.6707764 5.538185 3.6707764 8.862129l0 179.56403c0 6.921753 -5.611206 12.532959 -12.532898 12.532959l-94.272766 0c-6.921692 0 -12.532898 -5.611206 -12.532898 -12.532959z" fill-rule="evenodd"/><path fill="#000000" fill-opacity="0.0" d="m606.7062 273.32547c-6.921692 0 -12.532898 -5.611206 -12.532898 -12.532959l0 -179.56403l0 0c0 -6.921753 5.611206 -12.532936 12.532898 -12.532936m94.272766 0c3.3239136 0 6.5117188 1.320427 8.862122 3.670807c2.3503418 2.3503876 3.6707764 5.538185 3.6707764 8.862129l0 179.56403c0 6.921753 -5.611206 12.532959 -12.532898 12.532959" fill-rule="evenodd"/><path stroke="#000000" stroke-width="1.7191601049868765" stroke-linejoin="round" stroke-linecap="butt" d="m606.7062 273.32547c-6.921692 0 -12.532898 -5.611206 -12.532898 -12.532959l0 -179.56403l0 0c0 -6.921753 5.611206 -12.532936 12.532898 -12.532936m94.272766 0c3.3239136 0 6.5117188 1.320427 8.862122 3.670807c2.3503418 2.3503876 3.6707764 5.538185 3.6707764 8.862129l0 179.56403c0 6.921753 -5.611206 12.532959 -12.532898 12.532959" fill-rule="evenodd"/><path fill="#000000" fill-opacity="0.0" d="m579.9994 69.936485l0.661438 204.62991" fill-rule="evenodd"/><path stroke="#000000" stroke-width="1.7191601049868765" stroke-linejoin="round" stroke-linecap="butt" d="m580.01843 75.82816l0.62335205 192.84659" fill-rule="evenodd"/><path fill="#000000" stroke="#000000" stroke-width="1.7191601049868765" stroke-linecap="butt" d="m580.01843 75.82816l1.9395752 1.9270782l-1.9505005 -5.3055267l-1.9161377 5.3180313z" fill-rule="evenodd"/><path fill="#000000" stroke="#000000" stroke-width="1.7191601049868765" stroke-linecap="butt" d="m580.6418 268.67474l-1.9395752 -1.9270935l1.9504395 5.305542l1.9161987 -5.3180237z" fill-rule="evenodd"/><path fill="#000000" fill-opacity="0.0" d="m290.20447 161.33104l0 0c0 -2.6378937 2.1384583 -4.7763367 4.7763367 -4.7763367l200.55756 0c1.2667847 0 2.481659 0.5032196 3.3773804 1.3989563c0.89575195 0.8957367 1.3989563 2.110611 1.3989563 3.3773804l0 35.927628c0 2.637909 -2.1384277 4.776352 -4.7763367 4.776352l-200.55756 0c-2.6378784 0 -4.7763367 -2.138443 -4.7763367 -4.776352z" fill-rule="evenodd"/><path fill="#000000" fill-opacity="0.0" d="m294.9808 202.03502c-2.6378784 0 -4.7763367 -2.138443 -4.7763367 -4.776352l0 -35.927628l0 0c0 -2.6378937 2.1384583 -4.7763367 4.7763367 -4.7763367m200.55756 0c1.2667847 0 2.481659 0.5032196 3.3773804 1.3989563c0.89575195 0.8957367 1.3989563 2.110611 1.3989563 3.3773804l0 35.927628c0 2.637909 -2.1384277 4.776352 -4.7763367 4.776352" fill-rule="evenodd"/><path stroke="#000000" stroke-width="1.7191601049868765" stroke-linejoin="round" stroke-linecap="butt" d="m294.9808 202.03502c-2.6378784 0 -4.7763367 -2.138443 -4.7763367 -4.776352l0 -35.927628l0 0c0 -2.6378937 2.1384583 -4.7763367 4.7763367 -4.7763367m200.55756 0c1.2667847 0 2.481659 0.5032196 3.3773804 1.3989563c0.89575195 0.8957367 1.3989563 2.110611 1.3989563 3.3773804l0 35.927628c0 2.637909 -2.1384277 4.776352 -4.7763367 4.776352" fill-rule="evenodd"/><path fill="#000000" fill-opacity="0.0" d="m290.20447 214.89732l211.08661 0" fill-rule="evenodd"/><path stroke="#000000" stroke-width="1.7191601049868765" stroke-linejoin="round" stroke-linecap="butt" d="m296.0962 214.89732l199.30322 0" fill-rule="evenodd"/><path fill="#000000" stroke="#000000" stroke-width="1.7191601049868765" stroke-linecap="butt" d="m296.0962 214.89732l1.9333496 -1.9333344l-5.3118286 1.9333344l5.3118286 1.9333496z" fill-rule="evenodd"/><path fill="#000000" stroke="#000000" stroke-width="1.7191601049868765" stroke-linecap="butt" d="m495.39938 214.89732l-1.9333496 1.9333496l5.3118286 -1.9333496l-5.3118286 -1.9333344z" fill-rule="evenodd"/><path fill="#000000" d="m526.10645 178.67635l0 0c0 -3.2006378 2.5946045 -5.795273 5.795288 -5.795273l0 0c1.5369873 0 3.0110474 0.6105652 4.0978394 1.6973877c1.086853 1.0868225 1.6974487 2.5608826 1.6974487 4.097885l0 0c0 3.2006378 -2.5946655 5.795273 -5.795288 5.795273l0 0c-3.2006836 0 -5.795288 -2.594635 -5.795288 -5.795273z" fill-rule="evenodd"/><path stroke="#000000" stroke-width="1.7191601049868765" stroke-linejoin="round" stroke-linecap="butt" d="m526.10645 178.67635l0 0c0 -3.2006378 2.5946045 -5.795273 5.795288 -5.795273l0 0c1.5369873 0 3.0110474 0.6105652 4.0978394 1.6973877c1.086853 1.0868225 1.6974487 2.5608826 1.6974487 4.097885l0 0c0 3.2006378 -2.5946655 5.795273 -5.795288 5.795273l0 0c-3.2006836 0 -5.795288 -2.594635 -5.795288 -5.795273z" fill-rule="evenodd"/><path fill="#000000" fill-opacity="0.0" d="m594.1733 289.90027l119.33856 0" fill-rule="evenodd"/><path stroke="#000000" stroke-width="1.7191601049868765" stroke-linejoin="round" stroke-linecap="butt" d="m600.06494 289.90027l107.555115 0" fill-rule="evenodd"/><path fill="#000000" stroke="#000000" stroke-width="1.7191601049868765" stroke-linecap="butt" d="m600.065 289.90027l1.9332886 -1.9333496l-5.3117676 1.9333496l5.3117676 1.9333191z" fill-rule="evenodd"/><path fill="#000000" stroke="#000000" stroke-width="1.7191601049868765" stroke-linecap="butt" d="m707.6201 289.90027l-1.9333496 1.9333191l5.3118286 -1.9333191l-5.3118286 -1.9333496z" fill-rule="evenodd"/><path fill="#000000" fill-opacity="0.0" d="m794.5032 161.33104l0 0c0 -2.6378937 2.1384888 -4.7763367 4.776367 -4.7763367l110.289856 0c1.2667236 0 2.4816284 0.5032196 3.3773804 1.3989563c0.89575195 0.8957367 1.3989258 2.110611 1.3989258 3.3773804l0 35.927628c0 2.637909 -2.1384277 4.776352 -4.776306 4.776352l-110.289856 0c-2.6378784 0 -4.776367 -2.138443 -4.776367 -4.776352z" fill-rule="evenodd"/><path fill="#000000" fill-opacity="0.0" d="m799.27954 202.03502c-2.6378784 0 -4.776367 -2.138443 -4.776367 -4.776352l0 -35.927628l0 0c0 -2.6378937 2.1384888 -4.7763367 4.776367 -4.7763367m110.289856 0c1.2667236 0 2.4816284 0.5032196 3.3773804 1.3989563c0.89575195 0.8957367 1.3989258 2.110611 1.3989258 3.3773804l0 35.927628c0 2.637909 -2.1384277 4.776352 -4.776306 4.776352" fill-rule="evenodd"/><path stroke="#000000" stroke-width="1.7191601049868765" stroke-linejoin="round" stroke-linecap="butt" d="m799.27954 202.03502c-2.6378784 0 -4.776367 -2.138443 -4.776367 -4.776352l0 -35.927628l0 0c0 -2.6378937 2.1384888 -4.7763367 4.776367 -4.7763367m110.289856 0c1.2667236 0 2.4816284 0.5032196 3.3773804 1.3989563c0.89575195 0.8957367 1.3989258 2.110611 1.3989258 3.3773804l0 35.927628c0 2.637909 -2.1384277 4.776352 -4.776306 4.776352" fill-rule="evenodd"/><path fill="#000000" fill-opacity="0.0" d="m795.0041 214.89732l119.33856 0" fill-rule="evenodd"/><path stroke="#000000" stroke-width="1.7191601049868765" stroke-linejoin="round" stroke-linecap="butt" d="m800.8958 214.89732l107.555115 0" fill-rule="evenodd"/><path fill="#000000" stroke="#000000" stroke-width="1.7191601049868765" stroke-linecap="butt" d="m800.8958 214.89732l1.9333496 -1.9333344l-5.3118286 1.9333344l5.3118286 1.9333496z" fill-rule="evenodd"/><path fill="#000000" stroke="#000000" stroke-width="1.7191601049868765" stroke-linecap="butt" d="m908.451 214.89732l-1.9333496 1.9333496l5.3118286 -1.9333496l-5.3118286 -1.9333344z" fill-rule="evenodd"/><path fill="#000000" d="m742.55145 177.6826l9.846985 0l0 -9.846985l3.2210083 0l0 9.846985l9.846985 0l0 3.2210083l-9.846985 0l0 9.847l-3.2210083 0l0 -9.847l-9.846985 0z" fill-rule="evenodd"/><path stroke="#000000" stroke-width="1.7191601049868765" stroke-linejoin="round" stroke-linecap="butt" d="m742.55145 177.6826l9.846985 0l0 -9.846985l3.2210083 0l0 9.846985l9.846985 0l0 3.2210083l-9.846985 0l0 9.847l-3.2210083 0l0 -9.847l-9.846985 0z" fill-rule="evenodd"/><path fill="#000000" fill-opacity="0.0" d="m62.24672 210.82152l140.06299 0l0 33.039368l-140.06299 0z" fill-rule="evenodd"/><path fill="#000000" d="m71.87172 232.89777q0 -2.6875 1.484375 -3.96875q1.25 -1.078125 3.046875 -1.078125q2.0 0 3.265625 1.3125q1.265625 1.296875 1.265625 3.609375q0 1.859375 -0.5625 2.9375q-0.5625 1.0625 -1.640625 1.65625q-1.0625 0.59375 -2.328125 0.59375q-2.03125 0 -3.28125 -1.296875q-1.25 -1.3125 -1.25 -3.765625zm1.6875 0q0 1.859375 0.796875 2.796875q0.8125 0.921875 2.046875 0.921875q1.21875 0 2.03125 -0.921875q0.8125 -0.9375 0.8125 -2.84375q0 -1.796875 -0.8125 -2.71875q-0.8125 -0.921875 -2.03125 -0.921875q-1.234375 0 -2.046875 0.921875q-0.796875 0.90625 -0.796875 2.765625zm15.625717 4.84375l0 -1.421875q-1.125 1.640625 -3.0625 1.640625q-0.859375 0 -1.609375 -0.328125q-0.734375 -0.328125 -1.09375 -0.828125q-0.359375 -0.5 -0.5 -1.21875q-0.109375 -0.46875 -0.109375 -1.53125l0 -5.984375l1.640625 0l0 5.359375q0 1.28125 0.109375 1.734375q0.15625 0.640625 0.65625 1.015625q0.5 0.375 1.234375 0.375q0.734375 0 1.375 -0.375q0.65625 -0.390625 0.921875 -1.03125q0.265625 -0.65625 0.265625 -1.890625l0 -5.1875l1.640625 0l0 9.671875l-1.46875 0zm7.625717 -1.46875l0.234375 1.453125q-0.6875 0.140625 -1.234375 0.140625q-0.890625 0 -1.390625 -0.28125q-0.484375 -0.28125 -0.6875 -0.734375q-0.203125 -0.46875 -0.203125 -1.9375l0 -5.578125l-1.203125 0l0 -1.265625l1.203125 0l0 -2.390625l1.625 -0.984375l0 3.375l1.65625 0l0 1.265625l-1.65625 0l0 5.671875q0 0.6875 0.078125 0.890625q0.09375 0.203125 0.28125 0.328125q0.203125 0.109375 0.578125 0.109375q0.265625 0 0.71875 -0.0625zm0.08955383 5.171875l0 -1.1875l10.859375 0l0 1.1875l-10.859375 0zm12.281967 -3.703125l0 -8.40625l-1.453125 0l0 -1.265625l1.453125 0l0 -1.03125q0 -0.96875 0.171875 -1.453125q0.234375 -0.640625 0.828125 -1.03125q0.59375 -0.390625 1.671875 -0.390625q0.6875 0 1.53125 0.15625l-0.25 1.4375q-0.5 -0.09375 -0.953125 -0.09375q-0.75 0 -1.0625 0.328125q-0.3125 0.3125 -0.3125 1.1875l0 0.890625l1.890625 0l0 1.265625l-1.890625 0l0 8.40625l-1.625 0zm11.417679 -3.109375l1.6875 0.203125q-0.40625 1.484375 -1.484375 2.3125q-1.078125 0.8125 -2.765625 0.8125q-2.125 0 -3.375 -1.296875q-1.234375 -1.3125 -1.234375 -3.671875q0 -2.453125 1.25 -3.796875q1.265625 -1.34375 3.265625 -1.34375q1.9375 0 3.15625 1.328125q1.234375 1.3125 1.234375 3.703125q0 0.15625 0 0.4375l-7.21875 0q0.09375 1.59375 0.90625 2.453125q0.8125 0.84375 2.015625 0.84375q0.90625 0 1.546875 -0.46875q0.640625 -0.484375 1.015625 -1.515625zm-5.390625 -2.65625l5.40625 0q-0.109375 -1.21875 -0.625 -1.828125q-0.78125 -0.953125 -2.03125 -0.953125q-1.125 0 -1.90625 0.765625q-0.765625 0.75 -0.84375 2.015625zm15.453842 4.578125q-0.921875 0.765625 -1.765625 1.09375q-0.828125 0.3125 -1.796875 0.3125q-1.59375 0 -2.453125 -0.78125q-0.859375 -0.78125 -0.859375 -1.984375q0 -0.71875 0.328125 -1.296875q0.328125 -0.59375 0.84375 -0.9375q0.53125 -0.359375 1.1875 -0.546875q0.46875 -0.125 1.453125 -0.25q1.984375 -0.234375 2.921875 -0.5625q0.015625 -0.34375 0.015625 -0.421875q0 -1.0 -0.46875 -1.421875q-0.625 -0.546875 -1.875 -0.546875q-1.15625 0 -1.703125 0.40625q-0.546875 0.40625 -0.8125 1.421875l-1.609375 -0.21875q0.21875 -1.015625 0.71875 -1.640625q0.5 -0.640625 1.453125 -0.984375q0.953125 -0.34375 2.1875 -0.34375q1.25 0 2.015625 0.296875q0.78125 0.28125 1.140625 0.734375q0.375 0.4375 0.515625 1.109375q0.078125 0.421875 0.078125 1.515625l0 2.1875q0 2.28125 0.109375 2.890625q0.109375 0.59375 0.40625 1.15625l-1.703125 0q-0.265625 -0.515625 -0.328125 -1.1875zm-0.140625 -3.671875q-0.890625 0.375 -2.671875 0.625q-1.015625 0.140625 -1.4375 0.328125q-0.421875 0.1875 -0.65625 0.53125q-0.21875 0.34375 -0.21875 0.78125q0 0.65625 0.5 1.09375q0.5 0.4375 1.453125 0.4375q0.9375 0 1.671875 -0.40625q0.75 -0.421875 1.09375 -1.140625q0.265625 -0.5625 0.265625 -1.640625l0 -0.609375zm7.781967 3.390625l0.234375 1.453125q-0.6875 0.140625 -1.234375 0.140625q-0.890625 0 -1.390625 -0.28125q-0.484375 -0.28125 -0.6875 -0.734375q-0.203125 -0.46875 -0.203125 -1.9375l0 -5.578125l-1.203125 0l0 -1.265625l1.203125 0l0 -2.390625l1.625 -0.984375l0 3.375l1.65625 0l0 1.265625l-1.65625 0l0 5.671875q0 0.6875 0.078125 0.890625q0.09375 0.203125 0.28125 0.328125q0.203125 0.109375 0.578125 0.109375q0.265625 0 0.71875 -0.0625zm7.933304 1.46875l0 -1.421875q-1.125 1.640625 -3.0625 1.640625q-0.859375 0 -1.609375 -0.328125q-0.734375 -0.328125 -1.09375 -0.828125q-0.359375 -0.5 -0.5 -1.21875q-0.109375 -0.46875 -0.109375 -1.53125l0 -5.984375l1.640625 0l0 5.359375q0 1.28125 0.109375 1.734375q0.15625 0.640625 0.65625 1.015625q0.5 0.375 1.234375 0.375q0.734375 0 1.375 -0.375q0.65625 -0.390625 0.921875 -1.03125q0.265625 -0.65625 0.265625 -1.890625l0 -5.1875l1.640625 0l0 9.671875l-1.46875 0zm4.031967 0l0 -9.671875l1.46875 0l0 1.46875q0.5625 -1.03125 1.03125 -1.359375q0.484375 -0.328125 1.0625 -0.328125q0.828125 0 1.6875 0.53125l-0.5625 1.515625q-0.609375 -0.359375 -1.203125 -0.359375q-0.546875 0 -0.96875 0.328125q-0.421875 0.328125 -0.609375 0.890625q-0.28125 0.875 -0.28125 1.921875l0 5.0625l-1.625 0zm12.853302 -3.109375l1.6875 0.203125q-0.40625 1.484375 -1.484375 2.3125q-1.078125 0.8125 -2.765625 0.8125q-2.125 0 -3.375 -1.296875q-1.234375 -1.3125 -1.234375 -3.671875q0 -2.453125 1.25 -3.796875q1.265625 -1.34375 3.265625 -1.34375q1.9375 0 3.15625 1.328125q1.234375 1.3125 1.234375 3.703125q0 0.15625 0 0.4375l-7.21875 0q0.09375 1.59375 0.90625 2.453125q0.8125 0.84375 2.015625 0.84375q0.90625 0 1.546875 -0.46875q0.640625 -0.484375 1.015625 -1.515625zm-5.390625 -2.65625l5.40625 0q-0.109375 -1.21875 -0.625 -1.828125q-0.78125 -0.953125 -2.03125 -0.953125q-1.125 0 -1.90625 0.765625q-0.765625 0.75 -0.84375 2.015625zm8.485092 2.875l1.625 -0.25q0.125 0.96875 0.75 1.5q0.625 0.515625 1.75 0.515625q1.125 0 1.671875 -0.453125q0.546875 -0.46875 0.546875 -1.09375q0 -0.546875 -0.484375 -0.875q-0.328125 -0.21875 -1.671875 -0.546875q-1.8125 -0.46875 -2.515625 -0.796875q-0.6875 -0.328125 -1.046875 -0.90625q-0.359375 -0.59375 -0.359375 -1.3125q0 -0.640625 0.296875 -1.1875q0.296875 -0.5625 0.8125 -0.921875q0.375 -0.28125 1.03125 -0.46875q0.671875 -0.203125 1.421875 -0.203125q1.140625 0 2.0 0.328125q0.859375 0.328125 1.265625 0.890625q0.421875 0.5625 0.578125 1.5l-1.609375 0.21875q-0.109375 -0.75 -0.640625 -1.171875q-0.515625 -0.421875 -1.46875 -0.421875q-1.140625 0 -1.625 0.375q-0.46875 0.375 -0.46875 0.875q0 0.3125 0.1875 0.578125q0.203125 0.265625 0.640625 0.4375q0.234375 0.09375 1.4375 0.421875q1.75 0.453125 2.4375 0.75q0.6875 0.296875 1.078125 0.859375q0.390625 0.5625 0.390625 1.40625q0 0.828125 -0.484375 1.546875q-0.46875 0.71875 -1.375 1.125q-0.90625 0.390625 -2.046875 0.390625q-1.875 0 -2.875 -0.78125q-0.984375 -0.78125 -1.25 -2.328125z" fill-rule="nonzero"/><path fill="#000000" fill-opacity="0.0" d="m794.50397 210.82152l140.06299 0l0 33.039368l-140.06299 0z" fill-rule="evenodd"/><path fill="#000000" d="m804.12897 232.89777q0 -2.6875 1.484375 -3.96875q1.25 -1.078125 3.046875 -1.078125q2.0 0 3.265625 1.3125q1.265625 1.296875 1.265625 3.609375q0 1.859375 -0.5625 2.9375q-0.5625 1.0625 -1.640625 1.65625q-1.0625 0.59375 -2.328125 0.59375q-2.03125 0 -3.28125 -1.296875q-1.25 -1.3125 -1.25 -3.765625zm1.6875 0q0 1.859375 0.796875 2.796875q0.8125 0.921875 2.046875 0.921875q1.21875 0 2.03125 -0.921875q0.8125 -0.9375 0.8125 -2.84375q0 -1.796875 -0.8125 -2.71875q-0.8125 -0.921875 -2.03125 -0.921875q-1.234375 0 -2.046875 0.921875q-0.796875 0.90625 -0.796875 2.765625zm15.625671 4.84375l0 -1.421875q-1.125 1.640625 -3.0625 1.640625q-0.859375 0 -1.609375 -0.328125q-0.734375 -0.328125 -1.09375 -0.828125q-0.359375 -0.5 -0.5 -1.21875q-0.109375 -0.46875 -0.109375 -1.53125l0 -5.984375l1.640625 0l0 5.359375q0 1.28125 0.109375 1.734375q0.15625 0.640625 0.65625 1.015625q0.5 0.375 1.234375 0.375q0.734375 0 1.375 -0.375q0.65625 -0.390625 0.921875 -1.03125q0.265625 -0.65625 0.265625 -1.890625l0 -5.1875l1.640625 0l0 9.671875l-1.46875 0zm7.6257324 -1.46875l0.234375 1.453125q-0.6875 0.140625 -1.234375 0.140625q-0.890625 0 -1.390625 -0.28125q-0.484375 -0.28125 -0.6875 -0.734375q-0.203125 -0.46875 -0.203125 -1.9375l0 -5.578125l-1.203125 0l0 -1.265625l1.203125 0l0 -2.390625l1.625 -0.984375l0 3.375l1.65625 0l0 1.265625l-1.65625 0l0 5.671875q0 0.6875 0.078125 0.890625q0.09375 0.203125 0.28125 0.328125q0.203125 0.109375 0.578125 0.109375q0.265625 0 0.71875 -0.0625zm0.089538574 5.171875l0 -1.1875l10.859375 0l0 1.1875l-10.859375 0zm12.281982 -3.703125l0 -8.40625l-1.453125 0l0 -1.265625l1.453125 0l0 -1.03125q0 -0.96875 0.171875 -1.453125q0.234375 -0.640625 0.828125 -1.03125q0.59375 -0.390625 1.671875 -0.390625q0.6875 0 1.53125 0.15625l-0.25 1.4375q-0.5 -0.09375 -0.953125 -0.09375q-0.75 0 -1.0625 0.328125q-0.3125 0.3125 -0.3125 1.1875l0 0.890625l1.890625 0l0 1.265625l-1.890625 0l0 8.40625l-1.625 0zm11.417664 -3.109375l1.6875 0.203125q-0.40625 1.484375 -1.484375 2.3125q-1.078125 0.8125 -2.765625 0.8125q-2.125 0 -3.375 -1.296875q-1.234375 -1.3125 -1.234375 -3.671875q0 -2.453125 1.25 -3.796875q1.265625 -1.34375 3.265625 -1.34375q1.9375 0 3.15625 1.328125q1.234375 1.3125 1.234375 3.703125q0 0.15625 0 0.4375l-7.21875 0q0.09375 1.59375 0.90625 2.453125q0.8125 0.84375 2.015625 0.84375q0.90625 0 1.546875 -0.46875q0.640625 -0.484375 1.015625 -1.515625zm-5.390625 -2.65625l5.40625 0q-0.109375 -1.21875 -0.625 -1.828125q-0.78125 -0.953125 -2.03125 -0.953125q-1.125 0 -1.90625 0.765625q-0.765625 0.75 -0.84375 2.015625zm15.453857 4.578125q-0.921875 0.765625 -1.765625 1.09375q-0.828125 0.3125 -1.796875 0.3125q-1.59375 0 -2.453125 -0.78125q-0.859375 -0.78125 -0.859375 -1.984375q0 -0.71875 0.328125 -1.296875q0.328125 -0.59375 0.84375 -0.9375q0.53125 -0.359375 1.1875 -0.546875q0.46875 -0.125 1.453125 -0.25q1.984375 -0.234375 2.921875 -0.5625q0.015625 -0.34375 0.015625 -0.421875q0 -1.0 -0.46875 -1.421875q-0.625 -0.546875 -1.875 -0.546875q-1.15625 0 -1.703125 0.40625q-0.546875 0.40625 -0.8125 1.421875l-1.609375 -0.21875q0.21875 -1.015625 0.71875 -1.640625q0.5 -0.640625 1.453125 -0.984375q0.953125 -0.34375 2.1875 -0.34375q1.25 0 2.015625 0.296875q0.78125 0.28125 1.140625 0.734375q0.375 0.4375 0.515625 1.109375q0.078125 0.421875 0.078125 1.515625l0 2.1875q0 2.28125 0.109375 2.890625q0.109375 0.59375 0.40625 1.15625l-1.703125 0q-0.265625 -0.515625 -0.328125 -1.1875zm-0.140625 -3.671875q-0.890625 0.375 -2.671875 0.625q-1.015625 0.140625 -1.4375 0.328125q-0.421875 0.1875 -0.65625 0.53125q-0.21875 0.34375 -0.21875 0.78125q0 0.65625 0.5 1.09375q0.5 0.4375 1.453125 0.4375q0.9375 0 1.671875 -0.40625q0.75 -0.421875 1.09375 -1.140625q0.265625 -0.5625 0.265625 -1.640625l0 -0.609375zm7.7819824 3.390625l0.234375 1.453125q-0.6875 0.140625 -1.234375 0.140625q-0.890625 0 -1.390625 -0.28125q-0.484375 -0.28125 -0.6875 -0.734375q-0.203125 -0.46875 -0.203125 -1.9375l0 -5.578125l-1.203125 0l0 -1.265625l1.203125 0l0 -2.390625l1.625 -0.984375l0 3.375l1.65625 0l0 1.265625l-1.65625 0l0 5.671875q0 0.6875 0.078125 0.890625q0.09375 0.203125 0.28125 0.328125q0.203125 0.109375 0.578125 0.109375q0.265625 0 0.71875 -0.0625zm7.9332886 1.46875l0 -1.421875q-1.125 1.640625 -3.0625 1.640625q-0.859375 0 -1.609375 -0.328125q-0.734375 -0.328125 -1.09375 -0.828125q-0.359375 -0.5 -0.5 -1.21875q-0.109375 -0.46875 -0.109375 -1.53125l0 -5.984375l1.640625 0l0 5.359375q0 1.28125 0.109375 1.734375q0.15625 0.640625 0.65625 1.015625q0.5 0.375 1.234375 0.375q0.734375 0 1.375 -0.375q0.65625 -0.390625 0.921875 -1.03125q0.265625 -0.65625 0.265625 -1.890625l0 -5.1875l1.640625 0l0 9.671875l-1.46875 0zm4.0319824 0l0 -9.671875l1.46875 0l0 1.46875q0.5625 -1.03125 1.03125 -1.359375q0.484375 -0.328125 1.0625 -0.328125q0.828125 0 1.6875 0.53125l-0.5625 1.515625q-0.609375 -0.359375 -1.203125 -0.359375q-0.546875 0 -0.96875 0.328125q-0.421875 0.328125 -0.609375 0.890625q-0.28125 0.875 -0.28125 1.921875l0 5.0625l-1.625 0zm12.8532715 -3.109375l1.6875 0.203125q-0.40625 1.484375 -1.484375 2.3125q-1.078125 0.8125 -2.765625 0.8125q-2.125 0 -3.375 -1.296875q-1.234375 -1.3125 -1.234375 -3.671875q0 -2.453125 1.25 -3.796875q1.265625 -1.34375 3.265625 -1.34375q1.9375 0 3.15625 1.328125q1.234375 1.3125 1.234375 3.703125q0 0.15625 0 0.4375l-7.21875 0q0.09375 1.59375 0.90625 2.453125q0.8125 0.84375 2.015625 0.84375q0.90625 0 1.546875 -0.46875q0.640625 -0.484375 1.015625 -1.515625zm-5.390625 -2.65625l5.40625 0q-0.109375 -1.21875 -0.625 -1.828125q-0.78125 -0.953125 -2.03125 -0.953125q-1.125 0 -1.90625 0.765625q-0.765625 0.75 -0.84375 2.015625zm8.485107 2.875l1.625 -0.25q0.125 0.96875 0.75 1.5q0.625 0.515625 1.75 0.515625q1.125 0 1.671875 -0.453125q0.546875 -0.46875 0.546875 -1.09375q0 -0.546875 -0.484375 -0.875q-0.328125 -0.21875 -1.671875 -0.546875q-1.8125 -0.46875 -2.515625 -0.796875q-0.6875 -0.328125 -1.046875 -0.90625q-0.359375 -0.59375 -0.359375 -1.3125q0 -0.640625 0.296875 -1.1875q0.296875 -0.5625 0.8125 -0.921875q0.375 -0.28125 1.03125 -0.46875q0.671875 -0.203125 1.421875 -0.203125q1.140625 0 2.0 0.328125q0.859375 0.328125 1.265625 0.890625q0.421875 0.5625 0.578125 1.5l-1.609375 0.21875q-0.109375 -0.75 -0.640625 -1.171875q-0.515625 -0.421875 -1.46875 -0.421875q-1.140625 0 -1.625 0.375q-0.46875 0.375 -0.46875 0.875q0 0.3125 0.1875 0.578125q0.203125 0.265625 0.640625 0.4375q0.234375 0.09375 1.4375 0.421875q1.75 0.453125 2.4375 0.75q0.6875 0.296875 1.078125 0.859375q0.390625 0.5625 0.390625 1.40625q0 0.828125 -0.484375 1.546875q-0.46875 0.71875 -1.375 1.125q-0.90625 0.390625 -2.046875 0.390625q-1.875 0 -2.875 -0.78125q-0.984375 -0.78125 -1.25 -2.328125z" fill-rule="nonzero"/><path fill="#000000" fill-opacity="0.0" d="m594.1732 289.90027l140.06299 0l0 33.039368l-140.06299 0z" fill-rule="evenodd"/><path fill="#000000" d="m603.7982 311.9765q0 -2.6875 1.484375 -3.96875q1.25 -1.078125 3.046875 -1.078125q2.0 0 3.265625 1.3125q1.265625 1.296875 1.265625 3.609375q0 1.859375 -0.5625 2.9375q-0.5625 1.0625 -1.640625 1.65625q-1.0625 0.59375 -2.328125 0.59375q-2.03125 0 -3.28125 -1.296875q-1.25 -1.3125 -1.25 -3.765625zm1.6875 0q0 1.859375 0.796875 2.796875q0.8125 0.921875 2.046875 0.921875q1.21875 0 2.03125 -0.921875q0.8125 -0.9375 0.8125 -2.84375q0 -1.796875 -0.8125 -2.71875q-0.8125 -0.921875 -2.03125 -0.921875q-1.234375 0 -2.046875 0.921875q-0.796875 0.90625 -0.796875 2.765625zm15.625732 4.84375l0 -1.421875q-1.125 1.640625 -3.0625 1.640625q-0.859375 0 -1.609375 -0.328125q-0.734375 -0.328125 -1.09375 -0.828125q-0.359375 -0.5 -0.5 -1.21875q-0.109375 -0.46875 -0.109375 -1.53125l0 -5.984375l1.640625 0l0 5.359375q0 1.28125 0.109375 1.734375q0.15625 0.640625 0.65625 1.015625q0.5 0.375 1.234375 0.375q0.734375 0 1.375 -0.375q0.65625 -0.390625 0.921875 -1.03125q0.265625 -0.65625 0.265625 -1.890625l0 -5.1875l1.640625 0l0 9.671875l-1.46875 0zm7.6257324 -1.46875l0.234375 1.453125q-0.6875 0.140625 -1.234375 0.140625q-0.890625 0 -1.390625 -0.28125q-0.484375 -0.28125 -0.6875 -0.734375q-0.203125 -0.46875 -0.203125 -1.9375l0 -5.578125l-1.203125 0l0 -1.265625l1.203125 0l0 -2.390625l1.625 -0.984375l0 3.375l1.65625 0l0 1.265625l-1.65625 0l0 5.671875q0 0.6875 0.078125 0.890625q0.09375 0.203125 0.28125 0.328125q0.203125 0.109375 0.578125 0.109375q0.265625 0 0.71875 -0.0625zm0.089538574 5.171875l0 -1.1875l10.859375 0l0 1.1875l-10.859375 0zm12.281982 -3.703125l0 -8.40625l-1.453125 0l0 -1.265625l1.453125 0l0 -1.03125q0 -0.96875 0.171875 -1.453125q0.234375 -0.640625 0.828125 -1.03125q0.59375 -0.390625 1.671875 -0.390625q0.6875 0 1.53125 0.15625l-0.25 1.4375q-0.5 -0.09375 -0.953125 -0.09375q-0.75 0 -1.0625 0.328125q-0.3125 0.3125 -0.3125 1.1875l0 0.890625l1.890625 0l0 1.265625l-1.890625 0l0 8.40625l-1.625 0zm11.417664 -3.109375l1.6875 0.203125q-0.40625 1.484375 -1.484375 2.3125q-1.078125 0.8125 -2.765625 0.8125q-2.125 0 -3.375 -1.296875q-1.234375 -1.3125 -1.234375 -3.671875q0 -2.453125 1.25 -3.796875q1.265625 -1.34375 3.265625 -1.34375q1.9375 0 3.15625 1.328125q1.234375 1.3125 1.234375 3.703125q0 0.15625 0 0.4375l-7.21875 0q0.09375 1.59375 0.90625 2.453125q0.8125 0.84375 2.015625 0.84375q0.90625 0 1.546875 -0.46875q0.640625 -0.484375 1.015625 -1.515625zm-5.390625 -2.65625l5.40625 0q-0.109375 -1.21875 -0.625 -1.828125q-0.78125 -0.953125 -2.03125 -0.953125q-1.125 0 -1.90625 0.765625q-0.765625 0.75 -0.84375 2.015625zm15.453857 4.578125q-0.921875 0.765625 -1.765625 1.09375q-0.828125 0.3125 -1.796875 0.3125q-1.59375 0 -2.453125 -0.78125q-0.859375 -0.78125 -0.859375 -1.984375q0 -0.71875 0.328125 -1.296875q0.328125 -0.59375 0.84375 -0.9375q0.53125 -0.359375 1.1875 -0.546875q0.46875 -0.125 1.453125 -0.25q1.984375 -0.234375 2.921875 -0.5625q0.015625 -0.34375 0.015625 -0.421875q0 -1.0 -0.46875 -1.421875q-0.625 -0.546875 -1.875 -0.546875q-1.15625 0 -1.703125 0.40625q-0.546875 0.40625 -0.8125 1.421875l-1.609375 -0.21875q0.21875 -1.015625 0.71875 -1.640625q0.5 -0.640625 1.453125 -0.984375q0.953125 -0.34375 2.1875 -0.34375q1.25 0 2.015625 0.296875q0.78125 0.28125 1.140625 0.734375q0.375 0.4375 0.515625 1.109375q0.078125 0.421875 0.078125 1.515625l0 2.1875q0 2.28125 0.109375 2.890625q0.109375 0.59375 0.40625 1.15625l-1.703125 0q-0.265625 -0.515625 -0.328125 -1.1875zm-0.140625 -3.671875q-0.890625 0.375 -2.671875 0.625q-1.015625 0.140625 -1.4375 0.328125q-0.421875 0.1875 -0.65625 0.53125q-0.21875 0.34375 -0.21875 0.78125q0 0.65625 0.5 1.09375q0.5 0.4375 1.453125 0.4375q0.9375 0 1.671875 -0.40625q0.75 -0.421875 1.09375 -1.140625q0.265625 -0.5625 0.265625 -1.640625l0 -0.609375zm7.7819214 3.390625l0.234375 1.453125q-0.6875 0.140625 -1.234375 0.140625q-0.890625 0 -1.390625 -0.28125q-0.484375 -0.28125 -0.6875 -0.734375q-0.203125 -0.46875 -0.203125 -1.9375l0 -5.578125l-1.203125 0l0 -1.265625l1.203125 0l0 -2.390625l1.625 -0.984375l0 3.375l1.65625 0l0 1.265625l-1.65625 0l0 5.671875q0 0.6875 0.078125 0.890625q0.09375 0.203125 0.28125 0.328125q0.203125 0.109375 0.578125 0.109375q0.265625 0 0.71875 -0.0625zm7.9333496 1.46875l0 -1.421875q-1.125 1.640625 -3.0625 1.640625q-0.859375 0 -1.609375 -0.328125q-0.734375 -0.328125 -1.09375 -0.828125q-0.359375 -0.5 -0.5 -1.21875q-0.109375 -0.46875 -0.109375 -1.53125l0 -5.984375l1.640625 0l0 5.359375q0 1.28125 0.109375 1.734375q0.15625 0.640625 0.65625 1.015625q0.5 0.375 1.234375 0.375q0.734375 0 1.375 -0.375q0.65625 -0.390625 0.921875 -1.03125q0.265625 -0.65625 0.265625 -1.890625l0 -5.1875l1.640625 0l0 9.671875l-1.46875 0zm4.0319214 0l0 -9.671875l1.46875 0l0 1.46875q0.5625 -1.03125 1.03125 -1.359375q0.484375 -0.328125 1.0625 -0.328125q0.828125 0 1.6875 0.53125l-0.5625 1.515625q-0.609375 -0.359375 -1.203125 -0.359375q-0.546875 0 -0.96875 0.328125q-0.421875 0.328125 -0.609375 0.890625q-0.28125 0.875 -0.28125 1.921875l0 5.0625l-1.625 0zm12.8533325 -3.109375l1.6875 0.203125q-0.40625 1.484375 -1.484375 2.3125q-1.078125 0.8125 -2.765625 0.8125q-2.125 0 -3.375 -1.296875q-1.234375 -1.3125 -1.234375 -3.671875q0 -2.453125 1.25 -3.796875q1.265625 -1.34375 3.265625 -1.34375q1.9375 0 3.15625 1.328125q1.234375 1.3125 1.234375 3.703125q0 0.15625 0 0.4375l-7.21875 0q0.09375 1.59375 0.90625 2.453125q0.8125 0.84375 2.015625 0.84375q0.90625 0 1.546875 -0.46875q0.640625 -0.484375 1.015625 -1.515625zm-5.390625 -2.65625l5.40625 0q-0.109375 -1.21875 -0.625 -1.828125q-0.78125 -0.953125 -2.03125 -0.953125q-1.125 0 -1.90625 0.765625q-0.765625 0.75 -0.84375 2.015625zm8.485107 2.875l1.625 -0.25q0.125 0.96875 0.75 1.5q0.625 0.515625 1.75 0.515625q1.125 0 1.671875 -0.453125q0.546875 -0.46875 0.546875 -1.09375q0 -0.546875 -0.484375 -0.875q-0.328125 -0.21875 -1.671875 -0.546875q-1.8125 -0.46875 -2.515625 -0.796875q-0.6875 -0.328125 -1.046875 -0.90625q-0.359375 -0.59375 -0.359375 -1.3125q0 -0.640625 0.296875 -1.1875q0.296875 -0.5625 0.8125 -0.921875q0.375 -0.28125 1.03125 -0.46875q0.671875 -0.203125 1.421875 -0.203125q1.140625 0 2.0 0.328125q0.859375 0.328125 1.265625 0.890625q0.421875 0.5625 0.578125 1.5l-1.609375 0.21875q-0.109375 -0.75 -0.640625 -1.171875q-0.515625 -0.421875 -1.46875 -0.421875q-1.140625 0 -1.625 0.375q-0.46875 0.375 -0.46875 0.875q0 0.3125 0.1875 0.578125q0.203125 0.265625 0.640625 0.4375q0.234375 0.09375 1.4375 0.421875q1.75 0.453125 2.4375 0.75q0.6875 0.296875 1.078125 0.859375q0.390625 0.5625 0.390625 1.40625q0 0.828125 -0.484375 1.546875q-0.46875 0.71875 -1.375 1.125q-0.90625 0.390625 -2.046875 0.390625q-1.875 0 -2.875 -0.78125q-0.984375 -0.78125 -1.25 -2.328125z" fill-rule="nonzero"/><path fill="#000000" fill-opacity="0.0" d="m340.49606 210.82152l128.34647 0l0 33.039368l-128.34647 0z" fill-rule="evenodd"/><path fill="#000000" d="m350.73044 226.27277l0 -1.890625l1.640625 0l0 1.890625l-1.640625 0zm0 11.46875l0 -9.671875l1.640625 0l0 9.671875l-1.640625 0zm4.144806 0l0 -9.671875l1.46875 0l0 1.375q1.0625 -1.59375 3.078125 -1.59375q0.875 0 1.609375 0.3125q0.734375 0.3125 1.09375 0.828125q0.375 0.5 0.515625 1.203125q0.09375 0.453125 0.09375 1.59375l0 5.953125l-1.640625 0l0 -5.890625q0 -1.0 -0.203125 -1.484375q-0.1875 -0.5 -0.671875 -0.796875q-0.484375 -0.296875 -1.140625 -0.296875q-1.046875 0 -1.8125 0.671875q-0.75 0.65625 -0.75 2.515625l0 5.28125l-1.640625 0zm8.860107 3.703125l0 -1.1875l10.859375 0l0 1.1875l-10.859375 0zm12.281952 -3.703125l0 -8.40625l-1.453125 0l0 -1.265625l1.453125 0l0 -1.03125q0 -0.96875 0.171875 -1.453125q0.234375 -0.640625 0.828125 -1.03125q0.59375 -0.390625 1.671875 -0.390625q0.6875 0 1.53125 0.15625l-0.25 1.4375q-0.5 -0.09375 -0.953125 -0.09375q-0.75 0 -1.0625 0.328125q-0.3125 0.3125 -0.3125 1.1875l0 0.890625l1.890625 0l0 1.265625l-1.890625 0l0 8.40625l-1.625 0zm11.417694 -3.109375l1.6875 0.203125q-0.40625 1.484375 -1.484375 2.3125q-1.078125 0.8125 -2.765625 0.8125q-2.125 0 -3.375 -1.296875q-1.234375 -1.3125 -1.234375 -3.671875q0 -2.453125 1.25 -3.796875q1.265625 -1.34375 3.265625 -1.34375q1.9375 0 3.15625 1.328125q1.234375 1.3125 1.234375 3.703125q0 0.15625 0 0.4375l-7.21875 0q0.09375 1.59375 0.90625 2.453125q0.8125 0.84375 2.015625 0.84375q0.90625 0 1.546875 -0.46875q0.640625 -0.484375 1.015625 -1.515625zm-5.390625 -2.65625l5.40625 0q-0.109375 -1.21875 -0.625 -1.828125q-0.78125 -0.953125 -2.03125 -0.953125q-1.125 0 -1.90625 0.765625q-0.765625 0.75 -0.84375 2.015625zm15.453827 4.578125q-0.921875 0.765625 -1.765625 1.09375q-0.828125 0.3125 -1.796875 0.3125q-1.59375 0 -2.453125 -0.78125q-0.859375 -0.78125 -0.859375 -1.984375q0 -0.71875 0.328125 -1.296875q0.328125 -0.59375 0.84375 -0.9375q0.53125 -0.359375 1.1875 -0.546875q0.46875 -0.125 1.453125 -0.25q1.984375 -0.234375 2.921875 -0.5625q0.015625 -0.34375 0.015625 -0.421875q0 -1.0 -0.46875 -1.421875q-0.625 -0.546875 -1.875 -0.546875q-1.15625 0 -1.703125 0.40625q-0.546875 0.40625 -0.8125 1.421875l-1.609375 -0.21875q0.21875 -1.015625 0.71875 -1.640625q0.5 -0.640625 1.453125 -0.984375q0.953125 -0.34375 2.1875 -0.34375q1.25 0 2.015625 0.296875q0.78125 0.28125 1.140625 0.734375q0.375 0.4375 0.515625 1.109375q0.078125 0.421875 0.078125 1.515625l0 2.1875q0 2.28125 0.109375 2.890625q0.109375 0.59375 0.40625 1.15625l-1.703125 0q-0.265625 -0.515625 -0.328125 -1.1875zm-0.140625 -3.671875q-0.890625 0.375 -2.671875 0.625q-1.015625 0.140625 -1.4375 0.328125q-0.421875 0.1875 -0.65625 0.53125q-0.21875 0.34375 -0.21875 0.78125q0 0.65625 0.5 1.09375q0.5 0.4375 1.453125 0.4375q0.9375 0 1.671875 -0.40625q0.75 -0.421875 1.09375 -1.140625q0.265625 -0.5625 0.265625 -1.640625l0 -0.609375zm7.7819824 3.390625l0.234375 1.453125q-0.6875 0.140625 -1.234375 0.140625q-0.890625 0 -1.390625 -0.28125q-0.484375 -0.28125 -0.6875 -0.734375q-0.203125 -0.46875 -0.203125 -1.9375l0 -5.578125l-1.203125 0l0 -1.265625l1.203125 0l0 -2.390625l1.625 -0.984375l0 3.375l1.65625 0l0 1.265625l-1.65625 0l0 5.671875q0 0.6875 0.078125 0.890625q0.09375 0.203125 0.28125 0.328125q0.203125 0.109375 0.578125 0.109375q0.265625 0 0.71875 -0.0625zm7.9332886 1.46875l0 -1.421875q-1.125 1.640625 -3.0625 1.640625q-0.859375 0 -1.609375 -0.328125q-0.734375 -0.328125 -1.09375 -0.828125q-0.359375 -0.5 -0.5 -1.21875q-0.109375 -0.46875 -0.109375 -1.53125l0 -5.984375l1.640625 0l0 5.359375q0 1.28125 0.109375 1.734375q0.15625 0.640625 0.65625 1.015625q0.5 0.375 1.234375 0.375q0.734375 0 1.375 -0.375q0.65625 -0.390625 0.921875 -1.03125q0.265625 -0.65625 0.265625 -1.890625l0 -5.1875l1.640625 0l0 9.671875l-1.46875 0zm4.0319824 0l0 -9.671875l1.46875 0l0 1.46875q0.5625 -1.03125 1.03125 -1.359375q0.484375 -0.328125 1.0625 -0.328125q0.828125 0 1.6875 0.53125l-0.5625 1.515625q-0.609375 -0.359375 -1.203125 -0.359375q-0.546875 0 -0.96875 0.328125q-0.421875 0.328125 -0.609375 0.890625q-0.28125 0.875 -0.28125 1.921875l0 5.0625l-1.625 0zm12.853302 -3.109375l1.6875 0.203125q-0.40625 1.484375 -1.484375 2.3125q-1.078125 0.8125 -2.765625 0.8125q-2.125 0 -3.375 -1.296875q-1.234375 -1.3125 -1.234375 -3.671875q0 -2.453125 1.25 -3.796875q1.265625 -1.34375 3.265625 -1.34375q1.9375 0 3.15625 1.328125q1.234375 1.3125 1.234375 3.703125q0 0.15625 0 0.4375l-7.21875 0q0.09375 1.59375 0.90625 2.453125q0.8125 0.84375 2.015625 0.84375q0.90625 0 1.546875 -0.46875q0.640625 -0.484375 1.015625 -1.515625zm-5.390625 -2.65625l5.40625 0q-0.109375 -1.21875 -0.625 -1.828125q-0.78125 -0.953125 -2.03125 -0.953125q-1.125 0 -1.90625 0.765625q-0.765625 0.75 -0.84375 2.015625zm8.485077 2.875l1.625 -0.25q0.125 0.96875 0.75 1.5q0.625 0.515625 1.75 0.515625q1.125 0 1.671875 -0.453125q0.546875 -0.46875 0.546875 -1.09375q0 -0.546875 -0.484375 -0.875q-0.328125 -0.21875 -1.671875 -0.546875q-1.8125 -0.46875 -2.515625 -0.796875q-0.6875 -0.328125 -1.046875 -0.90625q-0.359375 -0.59375 -0.359375 -1.3125q0 -0.640625 0.296875 -1.1875q0.296875 -0.5625 0.8125 -0.921875q0.375 -0.28125 1.03125 -0.46875q0.671875 -0.203125 1.421875 -0.203125q1.140625 0 2.0 0.328125q0.859375 0.328125 1.265625 0.890625q0.421875 0.5625 0.578125 1.5l-1.609375 0.21875q-0.109375 -0.75 -0.640625 -1.171875q-0.515625 -0.421875 -1.46875 -0.421875q-1.140625 0 -1.625 0.375q-0.46875 0.375 -0.46875 0.875q0 0.3125 0.1875 0.578125q0.203125 0.265625 0.640625 0.4375q0.234375 0.09375 1.4375 0.421875q1.75 0.453125 2.4375 0.75q0.6875 0.296875 1.078125 0.859375q0.390625 0.5625 0.390625 1.40625q0 0.828125 -0.484375 1.546875q-0.46875 0.71875 -1.375 1.125q-0.90625 0.390625 -2.046875 0.390625q-1.875 0 -2.875 -0.78125q-0.984375 -0.78125 -1.25 -2.328125z" fill-rule="nonzero"/><path fill="#000000" fill-opacity="0.0" d="m542.3294 224.81364l0 -128.34645l33.039368 0l0 128.34645z" fill-rule="evenodd"/><path fill="#000000" d="m557.78064 214.57927l-1.890625 0l0 -1.640625l1.890625 0l0 1.640625zm11.46875 0l-9.671875 0l0 -1.640625l9.671875 0l0 1.640625zm0 -4.144821l-9.671875 0l0 -1.46875l1.375 0q-1.59375 -1.0625 -1.59375 -3.078125q0 -0.875 0.3125 -1.609375q0.3125 -0.734375 0.828125 -1.09375q0.5 -0.375 1.203125 -0.515625q0.453125 -0.09375 1.59375 -0.09375l5.953125 0l0 1.640625l-5.890625 0q-1.0 0 -1.484375 0.203125q-0.5 0.1875 -0.796875 0.671875q-0.296875 0.484375 -0.296875 1.140625q0 1.046875 0.671875 1.8125q0.65625 0.75 2.515625 0.75l5.28125 0l0 1.640625zm3.703125 -8.860092l-1.1875 0l0 -10.859375l1.1875 0l0 10.859375zm-3.703125 -12.281967l-8.40625 0l0 1.453125l-1.265625 0l0 -1.453125l-1.03125 0q-0.96875 0 -1.453125 -0.171875q-0.640625 -0.234375 -1.03125 -0.828125q-0.390625 -0.59375 -0.390625 -1.671875q0 -0.6875 0.15625 -1.53125l1.4375 0.25q-0.09375 0.5 -0.09375 0.953125q0 0.75 0.328125 1.0625q0.3125 0.3125 1.1875 0.3125l0.890625 0l0 -1.890625l1.265625 0l0 1.890625l8.40625 0l0 1.625zm-3.109375 -11.417679l0.203125 -1.6875q1.484375 0.40625 2.3125 1.484375q0.8125 1.078125 0.8125 2.765625q0 2.125 -1.296875 3.375q-1.3125 1.234375 -3.671875 1.234375q-2.453125 0 -3.796875 -1.25q-1.34375 -1.265625 -1.34375 -3.265625q0 -1.9375 1.328125 -3.15625q1.3125 -1.234375 3.703125 -1.234375q0.15625 0 0.4375 0l0 7.21875q1.59375 -0.09375 2.453125 -0.90625q0.84375 -0.8125 0.84375 -2.015625q0 -0.90625 -0.46875 -1.546875q-0.484375 -0.640625 -1.515625 -1.015625zm-2.65625 5.390625l0 -5.40625q-1.21875 0.109375 -1.828125 0.625q-0.953125 0.78125 -0.953125 2.03125q0 1.125 0.765625 1.90625q0.75 0.765625 2.015625 0.84375zm4.578125 -15.453842q0.765625 0.921875 1.09375 1.765625q0.3125 0.828125 0.3125 1.796875q0 1.59375 -0.78125 2.453125q-0.78125 0.859375 -1.984375 0.859375q-0.71875 0 -1.296875 -0.328125q-0.59375 -0.328125 -0.9375 -0.84375q-0.359375 -0.53125 -0.546875 -1.1875q-0.125 -0.46875 -0.25 -1.453125q-0.234375 -1.984375 -0.5625 -2.921875q-0.34375 -0.015625 -0.421875 -0.015625q-1.0 0 -1.421875 0.46875q-0.546875 0.625 -0.546875 1.875q0 1.15625 0.40625 1.703125q0.40625 0.546875 1.421875 0.8125l-0.21875 1.609375q-1.015625 -0.21875 -1.640625 -0.71875q-0.640625 -0.5 -0.984375 -1.453125q-0.34375 -0.953125 -0.34375 -2.1875q0 -1.25 0.296875 -2.015625q0.28125 -0.78125 0.734375 -1.140625q0.4375 -0.375 1.109375 -0.515625q0.421875 -0.078125 1.515625 -0.078125l2.1875 0q2.28125 0 2.890625 -0.109375q0.59375 -0.109375 1.15625 -0.40625l0 1.703125q-0.515625 0.265625 -1.1875 0.328125zm-3.671875 0.140625q0.375 0.890625 0.625 2.671875q0.140625 1.015625 0.328125 1.4375q0.1875 0.421875 0.53125 0.65625q0.34375 0.21875 0.78125 0.21875q0.65625 0 1.09375 -0.5q0.4375 -0.5 0.4375 -1.453125q0 -0.9375 -0.40625 -1.671875q-0.421875 -0.75 -1.140625 -1.09375q-0.5625 -0.265625 -1.640625 -0.265625l-0.609375 0zm3.390625 -7.781967l1.453125 -0.234375q0.140625 0.6875 0.140625 1.234375q0 0.890625 -0.28125 1.390625q-0.28125 0.484375 -0.734375 0.6875q-0.46875 0.203125 -1.9375 0.203125l-5.578125 0l0 1.203125l-1.265625 0l0 -1.203125l-2.390625 0l-0.984375 -1.625l3.375 0l0 -1.65625l1.265625 0l0 1.65625l5.671875 0q0.6875 0 0.890625 -0.078125q0.203125 -0.09375 0.328125 -0.28125q0.109375 -0.203125 0.109375 -0.578125q0 -0.265625 -0.0625 -0.71875zm1.46875 -7.933304l-1.421875 0q1.640625 1.125 1.640625 3.0625q0 0.859375 -0.328125 1.609375q-0.328125 0.734375 -0.828125 1.09375q-0.5 0.359375 -1.21875 0.5q-0.46875 0.109375 -1.53125 0.109375l-5.984375 0l0 -1.640625l5.359375 0q1.28125 0 1.734375 -0.109375q0.640625 -0.15625 1.015625 -0.65625q0.375 -0.5 0.375 -1.234375q0 -0.734375 -0.375 -1.375q-0.390625 -0.65625 -1.03125 -0.921875q-0.65625 -0.265625 -1.890625 -0.265625l-5.1875 0l0 -1.640625l9.671875 0l0 1.46875zm0 -4.031967l-9.671875 0l0 -1.46875l1.46875 0q-1.03125 -0.5625 -1.359375 -1.03125q-0.328125 -0.484375 -0.328125 -1.0625q0 -0.828125 0.53125 -1.6875l1.515625 0.5625q-0.359375 0.609375 -0.359375 1.203125q0 0.546875 0.328125 0.96875q0.328125 0.421875 0.890625 0.609375q0.875 0.28125 1.921875 0.28125l5.0625 0l0 1.625zm-3.109375 -12.853302l0.203125 -1.6875q1.484375 0.40625 2.3125 1.484375q0.8125 1.078125 0.8125 2.765625q0 2.125 -1.296875 3.375q-1.3125 1.234375 -3.671875 1.234375q-2.453125 0 -3.796875 -1.25q-1.34375 -1.265625 -1.34375 -3.265625q0 -1.9375 1.328125 -3.15625q1.3125 -1.234375 3.703125 -1.234375q0.15625 0 0.4375 0l0 7.21875q1.59375 -0.09375 2.453125 -0.90625q0.84375 -0.8125 0.84375 -2.015625q0 -0.90625 -0.46875 -1.546875q-0.484375 -0.640625 -1.515625 -1.015625zm-2.65625 5.390625l0 -5.40625q-1.21875 0.109375 -1.828125 0.625q-0.953125 0.78125 -0.953125 2.03125q0 1.125 0.765625 1.90625q0.75 0.765625 2.015625 0.84375zm2.875 -8.485092l-0.25 -1.625q0.96875 -0.125 1.5 -0.75q0.515625 -0.625 0.515625 -1.75q0 -1.1249924 -0.453125 -1.6718674q-0.46875 -0.546875 -1.09375 -0.546875q-0.546875 0 -0.875 0.484375q-0.21875 0.328125 -0.546875 1.6718674q-0.46875 1.8125 -0.796875 2.515625q-0.328125 0.6875 -0.90625 1.046875q-0.59375 0.359375 -1.3125 0.359375q-0.640625 0 -1.1875 -0.296875q-0.5625 -0.296875 -0.921875 -0.8125q-0.28125 -0.375 -0.46875 -1.03125q-0.203125 -0.671875 -0.203125 -1.421875q0 -1.1406174 0.328125 -1.9999924q0.328125 -0.859375 0.890625 -1.265625q0.5625 -0.421875 1.5 -0.578125l0.21875 1.609375q-0.75 0.109375 -1.171875 0.640625q-0.421875 0.515625 -0.421875 1.4687424q0 1.140625 0.375 1.625q0.375 0.46875 0.875 0.46875q0.3125 0 0.578125 -0.1875q0.265625 -0.203125 0.4375 -0.640625q0.09375 -0.234375 0.421875 -1.4375q0.453125 -1.7499924 0.75 -2.4374924q0.296875 -0.6875 0.859375 -1.078125q0.5625 -0.390625 1.40625 -0.390625q0.828125 0 1.546875 0.484375q0.71875 0.46875 1.125 1.375q0.390625 0.90625 0.390625 2.0468674q0 1.875 -0.78125 2.875q-0.78125 0.984375 -2.328125 1.25z" fill-rule="nonzero"/><path fill="#000000" fill-opacity="0.0" d="m109.40945 84.32809l35.716545 0l0 52.09449l-35.716545 0z" fill-rule="evenodd"/><path fill="#000000" d="m120.39382 130.4387l-0.3125 -2.6406174q0.921875 0.24999237 1.609375 0.24999237q0.9375 0 1.5 -0.31249237q0.5625 -0.3125 0.921875 -0.875q0.265625 -0.421875 0.859375 -2.09375q0.078125 -0.234375 0.25 -0.6875l-6.296875 -16.625l3.03125 0l3.453125 9.609375q0.671875 1.828125 1.203125 3.84375q0.484375 -1.9375 1.15625 -3.78125l3.5468826 -9.671875l2.8125 0l-6.3125076 16.875q-1.015625 2.734375 -1.578125 3.7656174q-0.75 1.390625 -1.71875 2.03125q-0.96875 0.65625 -2.3125 0.65625q-0.8125 0 -1.8125 -0.34375z" fill-rule="nonzero"/><path fill="#000000" fill-opacity="0.0" d="m377.88846 84.32809l35.716522 0l0 52.09449l-35.716522 0z" fill-rule="evenodd"/><path fill="#000000" d="m387.12283 124.04809l6.0625 -8.625l-5.609375 -7.96875l3.515625 0l2.546875 3.890625q0.71875 1.109375 1.15625 1.859375q0.6875 -1.03125 1.265625 -1.828125l2.796875 -3.921875l3.359375 0l-5.734375 7.8125l6.171875 8.78125l-3.453125 0l-3.40625 -5.15625l-0.90625 -1.390625l-4.359375 6.546875l-3.40625 0z" fill-rule="nonzero"/><path fill="#000000" fill-opacity="0.0" d="m635.9829 10.356956l35.716553 0l0 52.094486l-35.716553 0z" fill-rule="evenodd"/><path fill="#000000" d="m644.93604 50.076958l8.796875 -22.906252l3.265625 0l9.375 22.906252l-3.453125 0l-2.671875 -6.9375l-9.578125 0l-2.515625 6.9375l-3.21875 0zm6.609375 -9.40625l7.765625 0l-2.390625 -6.34375q-1.09375 -2.890627 -1.625 -4.750002q-0.4375 2.203125 -1.234375 4.375002l-2.515625 6.71875z" fill-rule="nonzero"/><path fill="#000000" fill-opacity="0.0" d="m652.2454 -5.8346457l35.71649 0l0 52.094486l-35.71649 0z" fill-rule="evenodd"/><path fill="#000000" d="m669.5423 33.885357l0 -20.203125l-7.546875 0l0 -2.703125l18.15625 0l0 2.703125l-7.578125 0l0 20.203125l-3.03125 0z" fill-rule="nonzero"/><path fill="#000000" fill-opacity="0.0" d="m840.8622 84.32809l35.716553 0l0 52.09449l-35.716553 0z" fill-rule="evenodd"/><path fill="#000000" d="m854.5653 124.04809l-2.609375 0l0 -22.90625l2.8125 0l0 8.171875q1.78125 -2.234375 4.546875 -2.234375q1.53125 0 2.890625 0.625q1.375 0.609375 2.25 1.734375q0.890625 1.109375 1.390625 2.6875q0.5 1.578125 0.5 3.375q0 4.265625 -2.109375 6.59375q-2.109375 2.328125 -5.0625 2.328125q-2.9375 0 -4.609375 -2.453125l0 2.078125zm-0.03125 -8.421875q0 2.984375 0.8125 4.3125q1.328125 2.171875 3.59375 2.171875q1.84375 0 3.1875 -1.59375q1.34375 -1.609375 1.34375 -4.78125q0 -3.25 -1.296875 -4.796875q-1.28125 -1.546875 -3.109375 -1.546875q-1.84375 0 -3.1875 1.609375q-1.34375 1.59375 -1.34375 4.625z" fill-rule="nonzero"/><path fill="#000000" fill-opacity="0.0" d="m768.43097 425.4561l0 0c6.921753 0 12.532959 5.6111755 12.532959 12.532928l0 94.272705c0 3.3239746 -1.3204346 6.5117188 -3.6708374 8.862122c-2.3504028 2.3504028 -5.538147 3.6708374 -8.862122 3.6708374l-179.56403 0c-6.921753 0 -12.532959 -5.611206 -12.532959 -12.532959l0 -94.272705c0 -6.921753 5.611206 -12.532928 12.532959 -12.532928z" fill-rule="evenodd"/><path fill="#000000" fill-opacity="0.0" d="m576.334 437.989c0 -6.921753 5.611206 -12.532928 12.532959 -12.532928l179.56403 0l0 0c6.921753 0 12.532959 5.6111755 12.532959 12.532928m0 94.272705c0 3.3239746 -1.3204346 6.5117188 -3.6708374 8.862122c-2.3504028 2.3504028 -5.538147 3.6708374 -8.862122 3.6708374l-179.56403 0c-6.921753 0 -12.532959 -5.611206 -12.532959 -12.532959" fill-rule="evenodd"/><path stroke="#000000" stroke-width="1.7191601049868765" stroke-linejoin="round" stroke-linecap="butt" d="m576.334 437.989c0 -6.921753 5.611206 -12.532928 12.532959 -12.532928l179.56403 0l0 0c6.921753 0 12.532959 5.6111755 12.532959 12.532928m0 94.272705c0 3.3239746 -1.3204346 6.5117188 -3.6708374 8.862122c-2.3504028 2.3504028 -5.538147 3.6708374 -8.862122 3.6708374l-179.56403 0c-6.921753 0 -12.532959 -5.611206 -12.532959 -12.532959" fill-rule="evenodd"/><path fill="#000000" fill-opacity="0.0" d="m779.72296 411.2822l-204.62994 0.6614075" fill-rule="evenodd"/><path stroke="#000000" stroke-width="1.7191601049868765" stroke-linejoin="round" stroke-linecap="butt" d="m773.8313 411.3012l-192.84656 0.62338257" fill-rule="evenodd"/><path fill="#000000" stroke="#000000" stroke-width="1.7191601049868765" stroke-linecap="butt" d="m773.83124 411.30124l-1.927063 1.9395752l5.305542 -1.9505005l-5.318054 -1.9161682z" fill-rule="evenodd"/><path fill="#000000" stroke="#000000" stroke-width="1.7191601049868765" stroke-linecap="butt" d="m580.98474 411.92456l1.927063 -1.9395752l-5.305542 1.9505005l5.318054 1.9161682z" fill-rule="evenodd"/><path fill="#000000" fill-opacity="0.0" d="m559.7592 425.4561l0 119.33859" fill-rule="evenodd"/><path stroke="#000000" stroke-width="1.7191601049868765" stroke-linejoin="round" stroke-linecap="butt" d="m559.7592 431.34778l0 107.555176" fill-rule="evenodd"/><path fill="#000000" stroke="#000000" stroke-width="1.7191601049868765" stroke-linecap="butt" d="m559.7592 431.34778l1.9332886 1.9333496l-1.9332886 -5.311798l-1.9333496 5.311798z" fill-rule="evenodd"/><path fill="#000000" stroke="#000000" stroke-width="1.7191601049868765" stroke-linecap="butt" d="m559.7592 538.90295l-1.9333496 -1.9333496l1.9333496 5.3118286l1.9332886 -5.3118286z" fill-rule="evenodd"/><path fill="#000000" fill-opacity="0.0" d="m521.0873 546.71326l0 -140.06299l33.039368 0l0 140.06299z" fill-rule="evenodd"/><path fill="#000000" d="m543.1635 537.08826q-2.6875 0 -3.96875 -1.484375q-1.078125 -1.25 -1.078125 -3.046875q0 -2.0 1.3125 -3.265625q1.296875 -1.265625 3.609375 -1.265625q1.859375 0 2.9375 0.5625q1.0625 0.5625 1.65625 1.640625q0.59375 1.0625 0.59375 2.328125q0 2.03125 -1.296875 3.28125q-1.3125 1.25 -3.765625 1.25zm0 -1.6875q1.859375 0 2.796875 -0.796875q0.921875 -0.8125 0.921875 -2.046875q0 -1.21875 -0.921875 -2.03125q-0.9375 -0.8125 -2.84375 -0.8125q-1.796875 0 -2.71875 0.8125q-0.921875 0.8125 -0.921875 2.03125q0 1.234375 0.921875 2.046875q0.90625 0.796875 2.765625 0.796875zm4.84375 -15.625732l-1.421875 0q1.640625 1.125 1.640625 3.0625q0 0.859375 -0.328125 1.609375q-0.328125 0.734375 -0.828125 1.09375q-0.5 0.359375 -1.21875 0.5q-0.46875 0.109375 -1.53125 0.109375l-5.984375 0l0 -1.640625l5.359375 0q1.28125 0 1.734375 -0.109375q0.640625 -0.15625 1.015625 -0.65625q0.375 -0.5 0.375 -1.234375q0 -0.734375 -0.375 -1.375q-0.390625 -0.65625 -1.03125 -0.921875q-0.65625 -0.265625 -1.890625 -0.265625l-5.1875 0l0 -1.640625l9.671875 0l0 1.46875zm-1.46875 -7.6257324l1.453125 -0.23434448q0.140625 0.6874695 0.140625 1.2343445q0 0.890625 -0.28125 1.390625q-0.28125 0.484375 -0.734375 0.6875q-0.46875 0.203125 -1.9375 0.203125l-5.578125 0l0 1.203125l-1.265625 0l0 -1.203125l-2.390625 0l-0.984375 -1.625l3.375 0l0 -1.65625l1.265625 0l0 1.65625l5.671875 0q0.6875 0 0.890625 -0.078125q0.203125 -0.09375 0.328125 -0.28125q0.109375 -0.203125 0.109375 -0.578125q0 -0.265625 -0.0625 -0.71875zm5.171875 -0.089538574l-1.1875 0l0 -10.859375l1.1875 0l0 10.859375zm-3.703125 -12.281952l-8.40625 0l0 1.453125l-1.265625 0l0 -1.453125l-1.03125 0q-0.96875 0 -1.453125 -0.171875q-0.640625 -0.234375 -1.03125 -0.828125q-0.390625 -0.59375 -0.390625 -1.671875q0 -0.6875 0.15625 -1.53125l1.4375 0.25q-0.09375 0.5 -0.09375 0.953125q0 0.75 0.328125 1.0625q0.3125 0.3125 1.1875 0.3125l0.890625 0l0 -1.890625l1.265625 0l0 1.890625l8.40625 0l0 1.625zm-3.109375 -11.417694l0.203125 -1.6875q1.484375 0.40625 2.3125 1.484375q0.8125 1.078125 0.8125 2.765625q0 2.125 -1.296875 3.375q-1.3125 1.234375 -3.671875 1.234375q-2.453125 0 -3.796875 -1.25q-1.34375 -1.265625 -1.34375 -3.265625q0 -1.9375 1.328125 -3.15625q1.3125 -1.234375 3.703125 -1.234375q0.15625 0 0.4375 0l0 7.21875q1.59375 -0.09375 2.453125 -0.90625q0.84375 -0.8125 0.84375 -2.015625q0 -0.90625 -0.46875 -1.546875q-0.484375 -0.640625 -1.515625 -1.015625zm-2.65625 5.390625l0 -5.40625q-1.21875 0.109375 -1.828125 0.625q-0.953125 0.78125 -0.953125 2.03125q0 1.125 0.765625 1.90625q0.75 0.765625 2.015625 0.84375zm4.578125 -15.453827q0.765625 0.921875 1.09375 1.765625q0.3125 0.828125 0.3125 1.796875q0 1.59375 -0.78125 2.453125q-0.78125 0.859375 -1.984375 0.859375q-0.71875 0 -1.296875 -0.328125q-0.59375 -0.328125 -0.9375 -0.84375q-0.359375 -0.53125 -0.546875 -1.1875q-0.125 -0.46875 -0.25 -1.453125q-0.234375 -1.984375 -0.5625 -2.921875q-0.34375 -0.015625 -0.421875 -0.015625q-1.0 0 -1.421875 0.46875q-0.546875 0.625 -0.546875 1.875q0 1.15625 0.40625 1.703125q0.40625 0.546875 1.421875 0.8125l-0.21875 1.609375q-1.015625 -0.21875 -1.640625 -0.71875q-0.640625 -0.5 -0.984375 -1.453125q-0.34375 -0.953125 -0.34375 -2.1875q0 -1.25 0.296875 -2.015625q0.28125 -0.78125 0.734375 -1.140625q0.4375 -0.375 1.109375 -0.515625q0.421875 -0.078125 1.515625 -0.078125l2.1875 0q2.28125 0 2.890625 -0.109375q0.59375 -0.109375 1.15625 -0.40625l0 1.703125q-0.515625 0.265625 -1.1875 0.328125zm-3.671875 0.140625q0.375 0.890625 0.625 2.671875q0.140625 1.015625 0.328125 1.4375q0.1875 0.421875 0.53125 0.65625q0.34375 0.21875 0.78125 0.21875q0.65625 0 1.09375 -0.5q0.4375 -0.5 0.4375 -1.453125q0 -0.9375 -0.40625 -1.671875q-0.421875 -0.75 -1.140625 -1.09375q-0.5625 -0.265625 -1.640625 -0.265625l-0.609375 0zm3.390625 -7.7819824l1.453125 -0.234375q0.140625 0.6875 0.140625 1.234375q0 0.890625 -0.28125 1.390625q-0.28125 0.484375 -0.734375 0.6875q-0.46875 0.203125 -1.9375 0.203125l-5.578125 0l0 1.203125l-1.265625 0l0 -1.203125l-2.390625 0l-0.984375 -1.625l3.375 0l0 -1.65625l1.265625 0l0 1.65625l5.671875 0q0.6875 0 0.890625 -0.078125q0.203125 -0.09375 0.328125 -0.28125q0.109375 -0.203125 0.109375 -0.578125q0 -0.265625 -0.0625 -0.71875zm1.46875 -7.9332886l-1.421875 0q1.640625 1.125 1.640625 3.0625q0 0.859375 -0.328125 1.609375q-0.328125 0.734375 -0.828125 1.09375q-0.5 0.359375 -1.21875 0.5q-0.46875 0.109375 -1.53125 0.109375l-5.984375 0l0 -1.640625l5.359375 0q1.28125 0 1.734375 -0.109375q0.640625 -0.15625 1.015625 -0.65625q0.375 -0.5 0.375 -1.234375q0 -0.734375 -0.375 -1.375q-0.390625 -0.65625 -1.03125 -0.921875q-0.65625 -0.265625 -1.890625 -0.265625l-5.1875 0l0 -1.640625l9.671875 0l0 1.46875zm0 -4.0319824l-9.671875 0l0 -1.46875l1.46875 0q-1.03125 -0.5625 -1.359375 -1.03125q-0.328125 -0.484375 -0.328125 -1.0625q0 -0.828125 0.53125 -1.6875l1.515625 0.5625q-0.359375 0.609375 -0.359375 1.203125q0 0.546875 0.328125 0.96875q0.328125 0.421875 0.890625 0.609375q0.875 0.28125 1.921875 0.28125l5.0625 0l0 1.625zm-3.109375 -12.853302l0.203125 -1.6875q1.484375 0.40625 2.3125 1.484375q0.8125 1.078125 0.8125 2.765625q0 2.125 -1.296875 3.375q-1.3125 1.234375 -3.671875 1.234375q-2.453125 0 -3.796875 -1.25q-1.34375 -1.265625 -1.34375 -3.265625q0 -1.9375 1.328125 -3.15625q1.3125 -1.234375 3.703125 -1.234375q0.15625 0 0.4375 0l0 7.21875q1.59375 -0.09375 2.453125 -0.90625q0.84375 -0.8125 0.84375 -2.015625q0 -0.90625 -0.46875 -1.546875q-0.484375 -0.640625 -1.515625 -1.015625zm-2.65625 5.390625l0 -5.40625q-1.21875 0.109375 -1.828125 0.625q-0.953125 0.78125 -0.953125 2.03125q0 1.125 0.765625 1.90625q0.75 0.765625 2.015625 0.84375zm2.875 -8.485077l-0.25 -1.625q0.96875 -0.125 1.5 -0.75q0.515625 -0.625 0.515625 -1.75q0 -1.125 -0.453125 -1.671875q-0.46875 -0.546875 -1.09375 -0.546875q-0.546875 0 -0.875 0.484375q-0.21875 0.328125 -0.546875 1.671875q-0.46875 1.8125 -0.796875 2.515625q-0.328125 0.6875 -0.90625 1.046875q-0.59375 0.359375 -1.3125 0.359375q-0.640625 0 -1.1875 -0.296875q-0.5625 -0.296875 -0.921875 -0.8125q-0.28125 -0.375 -0.46875 -1.03125q-0.203125 -0.671875 -0.203125 -1.421875q0 -1.140625 0.328125 -2.0q0.328125 -0.859375 0.890625 -1.265625q0.5625 -0.421875 1.5 -0.578125l0.21875 1.609375q-0.75 0.109375 -1.171875 0.640625q-0.421875 0.515625 -0.421875 1.46875q0 1.140625 0.375 1.625q0.375 0.46875 0.875 0.46875q0.3125 0 0.578125 -0.1875q0.265625 -0.203125 0.4375 -0.640625q0.09375 -0.234375 0.421875 -1.4375q0.453125 -1.75 0.75 -2.4375q0.296875 -0.6875 0.859375 -1.078125q0.5625 -0.390625 1.40625 -0.390625q0.828125 0 1.546875 0.484375q0.71875 0.46875 1.125 1.375q0.390625 0.90625 0.390625 2.046875q0 1.875 -0.78125 2.875q-0.78125 0.984375 -2.328125 1.25z" fill-rule="nonzero"/><path fill="#000000" fill-opacity="0.0" d="m624.8458 373.6122l128.34644 0l0 33.039368l-128.34644 0z" fill-rule="evenodd"/><path fill="#000000" d="m635.0802 389.06345l0 -1.890625l1.640625 0l0 1.890625l-1.640625 0zm0 11.46875l0 -9.671875l1.640625 0l0 9.671875l-1.640625 0zm4.1447754 0l0 -9.671875l1.46875 0l0 1.375q1.0625 -1.59375 3.078125 -1.59375q0.875 0 1.609375 0.3125q0.734375 0.3125 1.09375 0.828125q0.375 0.5 0.515625 1.203125q0.09375 0.453125 0.09375 1.59375l0 5.953125l-1.640625 0l0 -5.890625q0 -1.0 -0.203125 -1.484375q-0.1875 -0.5 -0.671875 -0.796875q-0.484375 -0.296875 -1.140625 -0.296875q-1.046875 0 -1.8125 0.671875q-0.75 0.65625 -0.75 2.515625l0 5.28125l-1.640625 0zm8.860107 3.703125l0 -1.1875l10.859375 0l0 1.1875l-10.859375 0zm12.281982 -3.703125l0 -8.40625l-1.453125 0l0 -1.265625l1.453125 0l0 -1.03125q0 -0.96875 0.171875 -1.453125q0.234375 -0.640625 0.828125 -1.03125q0.59375 -0.390625 1.671875 -0.390625q0.6875 0 1.53125 0.15625l-0.25 1.4375q-0.5 -0.09375 -0.953125 -0.09375q-0.75 0 -1.0625 0.328125q-0.3125 0.3125 -0.3125 1.1875l0 0.890625l1.890625 0l0 1.265625l-1.890625 0l0 8.40625l-1.625 0zm11.417664 -3.109375l1.6875 0.203125q-0.40625 1.484375 -1.484375 2.3125q-1.078125 0.8125 -2.765625 0.8125q-2.125 0 -3.375 -1.296875q-1.234375 -1.3125 -1.234375 -3.671875q0 -2.453125 1.25 -3.796875q1.265625 -1.34375 3.265625 -1.34375q1.9375 0 3.15625 1.328125q1.234375 1.3125 1.234375 3.703125q0 0.15625 0 0.4375l-7.21875 0q0.09375 1.59375 0.90625 2.453125q0.8125 0.84375 2.015625 0.84375q0.90625 0 1.546875 -0.46875q0.640625 -0.484375 1.015625 -1.515625zm-5.390625 -2.65625l5.40625 0q-0.109375 -1.21875 -0.625 -1.828125q-0.78125 -0.953125 -2.03125 -0.953125q-1.125 0 -1.90625 0.765625q-0.765625 0.75 -0.84375 2.015625zm15.453857 4.578125q-0.921875 0.765625 -1.765625 1.09375q-0.828125 0.3125 -1.796875 0.3125q-1.59375 0 -2.453125 -0.78125q-0.859375 -0.78125 -0.859375 -1.984375q0 -0.71875 0.328125 -1.296875q0.328125 -0.59375 0.84375 -0.9375q0.53125 -0.359375 1.1875 -0.546875q0.46875 -0.125 1.453125 -0.25q1.984375 -0.234375 2.921875 -0.5625q0.015625 -0.34375 0.015625 -0.421875q0 -1.0 -0.46875 -1.421875q-0.625 -0.546875 -1.875 -0.546875q-1.15625 0 -1.703125 0.40625q-0.546875 0.40625 -0.8125 1.421875l-1.609375 -0.21875q0.21875 -1.015625 0.71875 -1.640625q0.5 -0.640625 1.453125 -0.984375q0.953125 -0.34375 2.1875 -0.34375q1.25 0 2.015625 0.296875q0.78125 0.28125 1.140625 0.734375q0.375 0.4375 0.515625 1.109375q0.078125 0.421875 0.078125 1.515625l0 2.1875q0 2.28125 0.109375 2.890625q0.109375 0.59375 0.40625 1.15625l-1.703125 0q-0.265625 -0.515625 -0.328125 -1.1875zm-0.140625 -3.671875q-0.890625 0.375 -2.671875 0.625q-1.015625 0.140625 -1.4375 0.328125q-0.421875 0.1875 -0.65625 0.53125q-0.21875 0.34375 -0.21875 0.78125q0 0.65625 0.5 1.09375q0.5 0.4375 1.453125 0.4375q0.9375 0 1.671875 -0.40625q0.75 -0.421875 1.09375 -1.140625q0.265625 -0.5625 0.265625 -1.640625l0 -0.609375zm7.7819824 3.390625l0.234375 1.453125q-0.6875 0.140625 -1.234375 0.140625q-0.890625 0 -1.390625 -0.28125q-0.484375 -0.28125 -0.6875 -0.734375q-0.203125 -0.46875 -0.203125 -1.9375l0 -5.578125l-1.203125 0l0 -1.265625l1.203125 0l0 -2.390625l1.625 -0.984375l0 3.375l1.65625 0l0 1.265625l-1.65625 0l0 5.671875q0 0.6875 0.078125 0.890625q0.09375 0.203125 0.28125 0.328125q0.203125 0.109375 0.578125 0.109375q0.265625 0 0.71875 -0.0625zm7.9332886 1.46875l0 -1.421875q-1.125 1.640625 -3.0625 1.640625q-0.859375 0 -1.609375 -0.328125q-0.734375 -0.328125 -1.09375 -0.828125q-0.359375 -0.5 -0.5 -1.21875q-0.109375 -0.46875 -0.109375 -1.53125l0 -5.984375l1.640625 0l0 5.359375q0 1.28125 0.109375 1.734375q0.15625 0.640625 0.65625 1.015625q0.5 0.375 1.234375 0.375q0.734375 0 1.375 -0.375q0.65625 -0.390625 0.921875 -1.03125q0.265625 -0.65625 0.265625 -1.890625l0 -5.1875l1.640625 0l0 9.671875l-1.46875 0zm4.0319824 0l0 -9.671875l1.46875 0l0 1.46875q0.5625 -1.03125 1.03125 -1.359375q0.484375 -0.328125 1.0625 -0.328125q0.828125 0 1.6875 0.53125l-0.5625 1.515625q-0.609375 -0.359375 -1.203125 -0.359375q-0.546875 0 -0.96875 0.328125q-0.421875 0.328125 -0.609375 0.890625q-0.28125 0.875 -0.28125 1.921875l0 5.0625l-1.625 0zm12.8532715 -3.109375l1.6875 0.203125q-0.40625 1.484375 -1.484375 2.3125q-1.078125 0.8125 -2.765625 0.8125q-2.125 0 -3.375 -1.296875q-1.234375 -1.3125 -1.234375 -3.671875q0 -2.453125 1.25 -3.796875q1.265625 -1.34375 3.265625 -1.34375q1.9375 0 3.15625 1.328125q1.234375 1.3125 1.234375 3.703125q0 0.15625 0 0.4375l-7.21875 0q0.09375 1.59375 0.90625 2.453125q0.8125 0.84375 2.015625 0.84375q0.90625 0 1.546875 -0.46875q0.640625 -0.484375 1.015625 -1.515625zm-5.390625 -2.65625l5.40625 0q-0.109375 -1.21875 -0.625 -1.828125q-0.78125 -0.953125 -2.03125 -0.953125q-1.125 0 -1.90625 0.765625q-0.765625 0.75 -0.84375 2.015625zm8.485107 2.875l1.625 -0.25q0.125 0.96875 0.75 1.5q0.625 0.515625 1.75 0.515625q1.125 0 1.671875 -0.453125q0.546875 -0.46875 0.546875 -1.09375q0 -0.546875 -0.484375 -0.875q-0.328125 -0.21875 -1.671875 -0.546875q-1.8125 -0.46875 -2.515625 -0.796875q-0.6875 -0.328125 -1.046875 -0.90625q-0.359375 -0.59375 -0.359375 -1.3125q0 -0.640625 0.296875 -1.1875q0.296875 -0.5625 0.8125 -0.921875q0.375 -0.28125 1.03125 -0.46875q0.671875 -0.203125 1.421875 -0.203125q1.140625 0 2.0 0.328125q0.859375 0.328125 1.265625 0.890625q0.421875 0.5625 0.578125 1.5l-1.609375 0.21875q-0.109375 -0.75 -0.640625 -1.171875q-0.515625 -0.421875 -1.46875 -0.421875q-1.140625 0 -1.625 0.375q-0.46875 0.375 -0.46875 0.875q0 0.3125 0.1875 0.578125q0.203125 0.265625 0.640625 0.4375q0.234375 0.09375 1.4375 0.421875q1.75 0.453125 2.4375 0.75q0.6875 0.296875 1.078125 0.859375q0.390625 0.5625 0.390625 1.40625q0 0.828125 -0.484375 1.546875q-0.46875 0.71875 -1.375 1.125q-0.90625 0.390625 -2.046875 0.390625q-1.875 0 -2.875 -0.78125q-0.984375 -0.78125 -1.25 -2.328125z" fill-rule="nonzero"/><path fill="#000000" fill-opacity="0.0" d="m659.54724 558.30707l35.716553 0l0 52.094482l-35.716553 0z" fill-rule="evenodd"/><path fill="#000000" d="m668.50037 598.0271l8.796875 -22.90625l3.265625 0l9.375 22.90625l-3.453125 0l-2.671875 -6.9375l-9.578125 0l-2.515625 6.9375l-3.21875 0zm6.609375 -9.40625l7.765625 0l-2.390625 -6.34375q-1.09375 -2.890625 -1.625 -4.75q-0.4375 2.203125 -1.234375 4.375l-2.515625 6.71875z" fill-rule="nonzero"/><path fill="#000000" fill-opacity="0.0" d="m729.57745 256.3386c22.769897 15.258087 111.38446 60.21039 136.61938 91.54855c25.234924 31.338135 26.761597 75.58835 14.790039 96.480316c-11.971558 20.891937 -72.18286 24.059479 -86.619446 28.871368" fill-rule="evenodd"/><path stroke="#000000" stroke-width="1.0" stroke-linejoin="round" stroke-linecap="butt" d="m729.57745 256.3386c22.769897 15.258087 111.38446 60.21039 136.61938 91.54855c25.234924 31.338135 26.761597 75.58838 14.790039 96.480316c-5.985718 10.445953 -24.031494 16.460815 -42.385315 20.465698c-9.176941 2.0024414 -18.430847 3.5023804 -26.292908 4.8024597c-3.9309692 0.6500244 -7.514038 1.2500916 -10.565369 1.8380127c-0.38146973 0.07348633 -0.75457764 0.14682007 -1.1190186 0.2199707l-0.43603516 0.08963013" fill-rule="evenodd"/><path fill="#000000" stroke="#000000" stroke-width="1.0" stroke-linecap="butt" d="m799.7875 470.18085l-4.00177 2.7033386l4.8032227 0.5014343z" fill-rule="evenodd"/></g></svg>